<?xml version="1.0" encoding="UTF-8"?><svg xmlns="http://www.w3.org/2000/svg" viewBox="0 0 317.03 204.76"><defs><style>.d,.e{fill:#fff;}.e{fill-rule:evenodd;}</style></defs><g id="a"/><g id="b"><g id="c"><g><path class="d" d="M151.68,24.88l-.05-4.03c-.7,1.78-1.89,4.75-3.06,7.77h3.12c0-1.28,0-2.55,0-3.74Z"/><path class="d" d="M155.45,20.85l-.05,4.03c-.01,1.2-.01,2.46-.01,3.74h3.11c-1.17-3.02-2.35-5.99-3.06-7.77Z"/><path class="d" d="M206.52,98.62c-2.76-2.03-4.67-4.78-5.61-8.17-.01-.06-.02-.11-.02-.18-.52,.63-3.29,1.42-2.66,.85,1.66-1.48,2.93-3.23,3.82-5.13l-.04-.06c-.49,.71-.13-2.91-.2-3.19-.01-.06-.01-.12-.01-.17-.63-1.42-1.23-2.84-1.79-4.28-.23-.25-.45-.5-.7-.74-.03-.04-.06-.06-.09-.1-.32-.31-.21-.72,.04-.96,.18,.13,.36,.21,.56,.23,3.36-5.53,5.47-11.82,6.09-18.25,.05-.5,.08-.99,.11-1.49,0,.01,0,.03,0,.04-.1-.84-.26-1.66-.49-2.46-.01-.51-.04-1.01-.07-1.52,.11-.84,.18-1.69,.19-2.52-.61-2.03-1.35-4.02-2.22-5.97,0,.1-.01,.2-.03,.3,.04,.25,.08,.51,.12,.76-.41-.72-1.7-5.23-3.3-7.13-.15-.24-.3-.47-.45-.71,.56,1.78,.99,3.61,1.3,5.47-.03,0-.19-.26-.24-.39-.23-.56-.8-.88-1.35-.91-1.13-9.1-17.56-18.81-22.42-21.23,7.36,.8,14.22,4.37,15.31,5.28-.04-.06-.08-.12-.12-.18-1.06-.9,5.9,2.74,7.56,5.42,.46,.5,.92,1.01,1.37,1.52,1.08,1.24,2.18,2.53,3.21,3.87-.09-.61-.18-1.22-.27-1.84-.19-.78-.4-1.55-.62-2.32-3.07-4.42-4.12-7.07-1.01-3.45-.18-.57-.36-1.13-.56-1.69-1.22-1.69-2.49-3.35-3.74-4.99-.15-.2-.3-.4-.46-.59-.25-.21-.49-.42-.74-.62-5.44-4.42-9.46-7.89-3.81-4.33,.44,.28,.89,.57,1.32,.86-1.82-2.2-3.79-4.27-6.05-6.01-3.18-2.45-6.85-4.18-10.59-5.64-3.03-1.18-6.12-2.19-9.27-3.02-2.12-.57-4.26-1.06-6.42-1.46-6.26-1.19-12.65-1.7-19.01-1.52-2.63,.16-5.24,.44-7.82,.92,2.8-.04,5.57,.16,8.37,.15,1.51,0,3.32,.46,4.82,.4-1.25,.13-5.43,3.06-6.68,3.19-.25-.03,1.49-1.93,1.24-1.95-1.05,.1-2.13-.43-3.18-.28-.68,.09-1.35,.19-2.03,.3-.76,.13-1.52,.26-2.29,.41-.91,.5-1.26,0-2.3,.1-.23,.08-.47,.17-.7,.26,.22-.03,.45-.05,.67-.07-.35,.07-.7,.14-1.04,.21h0c-1.57,.33-3.13,.66-4.65,1.05-.74,.18-1.47,.38-2.18,.6-.36,.11-.72,.23-1.07,.35-1.42,.76-2.79,1.59-4.14,2.49-.44,.21-.88,.42-1.3,.66-1.14,.62-2.23,1.32-3.27,2.09-.11,.18-.22,.35-.35,.52-.38,.48-.84,.89-1.36,1.31,.37-.25,.75-.49,1.14-.7-.14,.11-.28,.23-.42,.36-.5,.43-.98,.87-1.46,1.32-.49,.46-.97,.93-1.44,1.42-.32,.33-.63,.65-.93,.98,0,0-.01,0-.01,.01-.96,1.34-1.86,2.71-2.68,4.11-1.27,2.14-2.31,3.44-3.64,6.41-1.98,4.43-3.81,11.02-3.92,11.4,.15-.25,2.66-4.62,2.82-4.87,0,.43,.01,.86,.02,1.3-1.25,2.98-1.92,6.13-1.58,9.14-.01,.02-.04,.04-.06,.06-.67,.87-.76,2.03-.71,3.18-.25,1.71-.3,3.48-.22,5.28,.03,.33,.07,.66,.12,.98,.08-.38,2.46-4.44,2.55-4.81,0,.37-.86,3.19-.67,3.44-.04,1.13,9.13-12.26,9.44-11.2-.06,.38-9.08,19.72-9.13,20.1-.06,.41-.12,.82-.17,1.24,0,0,0,.01,0,.02,.04,.28,.08,.55,.13,.83,.73,2.17,.16,1.02,1.07,3.11,.96,3.09,2.34,6.03,3.97,8.83,.2,.55,.44,1.09,.74,1.59-.04,.16-.06,.35-.05,.55,.04,.51,.04,1,.03,1.47,.01,.06,.02,.11,.03,.16,.14,.92,.07,1.83-.16,2.73-.04,.2-.08,.4-.13,.59-.32,1.24-.88,2.4-1.49,3.53-.33,.91-.91,1.74-1.54,2.5-.54,.65-1.13,1.27-1.66,1.91-.09,.13-.18,.27-.26,.4-.13,.16-.27,.33-.41,.49,0,.01-.02,.03-.03,.04-.1,.14-.19,.28-.28,.43t0,.01c-.35,.89-.67,1.79-.98,2.69-.06,.36-.1,.72-.11,1.08,.06-.16,.12-.3,.19-.45-.1,1.23,.12,2.5,.58,4-.09,.07-.17,.14-.26,.21-.04,1.1,.07,2.24,.33,3.36,.07,.35,.16,.7,.26,1.04t0,0c.26,.59,.58,1.15,.95,1.69,0-.08-.01-.16-.04-.23-.11-.54,.45-1.1,.97-.76,2.64,1.75,5.47,3.13,8.4,4.13,1.49,.24,2.97,.48,4.45,.74,.65,.11,1.3,.23,1.95,.35,.47-.64,.95-1.27,1.46-1.88,0-.1,.03-.2,.08-.3,.09-.16,.26-.28,.44-.32,.75-.88,1.54-1.72,2.38-2.53-.07,.16-.15,.32-.23,.48,1.76-1.05,3.95-.92,5.92-.45,.13,.01,.27,.05,.4,.11,.36,.13,.69,.39,.92,.71,.02,.03,.04,.06,.06,.09,.25,.21,.47,.45,.65,.72,.53,.75,.79,1.66,1.01,2.55,.01,.05,.02,.1,.04,.15,0,0,.02,.01,.03,.02,.06,.28,.13,.56,.17,.85,0,.02,0,.04,0,.06,.1,.61,.18,1.2,.29,1.78,.02,.35,.03,.69,.04,1.05h0c.05,.21,.05,.4,0,.57,0,1.19-.06,2.38-.21,3.58,.46,1.85,1.04,6.62,1.29,8.92,.05,.03,.47,.29,.53,.33,.9,.55,1.83,1.11,2.77,1.68,.01-.04,.02-.07,.04-.1,.11-.28,.33-.42,.57-.43,.19-1.47,.54-2.91,1.04-4.35,.05-.14,.38-.79,.42-.85,.3-.39,.58-1.31,.68-.73,.06,.33,.99,6.06,1.07,6.57,.48,.28,.96,.55,1.46,.81-.08-.43-.14-.87-.2-1.31,.03,.04,.06,.09,.09,.14,.28,.44,1.97,2.12,2.66,2.44,.04-.06,.08-.11,.13-.16t0,0s.09-.09,.15-.13c.32-.18,2.31-2.86,2.55-2.61,1,1.04,2.11,2.48,2.2,2.61,4.3-.72,2.15-.42,4.1-.78,.39-.07,.77-.14,1.16-.21,.38-.07,.74-.14,1.11-.21,.05-.26,.1-.53,.14-.79-.11,.11,1.8-3.17,1.8-3.17,0-.52,.87-1.84,.87-1.84,0,0,.73,3.05,.67,3.65,.1,.49,.44,1.58,.45,1.62,.17-.02,.35,.02,.52,.16,.51,.41,.86,.89,1.08,1.41,.11,.4,.24,.9,.24,.93,.54-.06,1.08-.13,1.62-.21,.14-.13,.28-.25,.44-.38,.06-.11,.12-.23,.17-.34,.21-.49,.34-.91,.51-1.45,.17-.52,.42-1.22,.42-1.22,0,0,.49,.55,.58,.8-.02-.13,1.21-2.98,1.21-2.98,0,0,.52,1.19,.56,1.36,.08,.07,.11,1.52,.15,1.62,.2,.51,.29,.81,.35,1.33,.09-.02,.7-.31,.9-.65,.25,.02,.5,.05,.74,.09,.14-.11,.28-.21,.41-.33,.63-.52,1.97-.29,2.34,.06,.15-.08,.3-.18,.45-.28,.1-.06,.19-.1,.29-.1,.04-.08,.11-.16,.21-.22,.07-.05,.14-.09,.21-.14,0,0,1.01-8.29,1.57-10.55-.25-2.02-.29-4.04-.13-6.05h-.08c-.97,.06-1.35-.72-1.2-1.44-.21-.35-.25-.79,0-1.24,.4-.72,1.14-1.37,1.99-1.78,.03-.14,.06-.28,.1-.42-1.13,.42-2.27,.83-3.41,1.22-.81,.28,2.46-2.28,3.86-2.8,.25-.81,.53-1.6,.85-2.39,.25-.64,1.26,1.11,1.25,1.58,1.64-.65,5.26-2.75,6.86-3.49,.76-.36-2.61,3.92-4.01,5.12,1.71,1.16,2.02,1.66,3.3,3.24,.02-.03,.06-.06,.08-.08,.52-.38,1.03-.74,1.54-1.12,.29-.21-.33,1.88-.82,2.23,.11,.13,.21,.28,.3,.42,.24,0,.48,.02,.72,.04,.1,0,.18,.04,.27,.09,1.31-.26,2.62-.49,3.92-.72,1.48-.26,2.97-.5,4.45-.74,2.93-1,5.75-2.38,8.4-4.13,.51-.34,1.07,.22,.96,.76-.08,.38-.07,.68,0,.93,1.02-2.09,1.59-4.5,1.51-6.79Zm-66.07-59.86l9.31-21.31c-3.04-.04-6.44-.05-6.99,.09-1.01,.26-1.66,2.6-1.66,2.6v-6.55l12.51,.13,12.51-.13v6.54s-.63-2.33-1.66-2.6c-.56-.14-4.1-.13-7.18-.09l9.31,21.31h0s1.3,2.32,3.05,2.37h-10.2s2.88-.9,2.71-2.43c-.08-.66-1.46-4.39-3.01-8.41h-3.77v2.49l.06,5.34c0,.52,.02,1.04,.07,1.55,.26,1.01,2.6,1.66,2.6,1.66h-9.17s2.33-.63,2.6-1.66c.05-.52,.07-1.03,.07-1.55l.06-5.35v-2.49h-3.77c-1.55,4.03-2.94,7.75-3.01,8.41-.16,1.52,2.71,2.43,2.71,2.43h-10.22c1.75-.06,3.05-2.37,3.05-2.37Zm.41,48.34h0c.04-.3,.08-.59,.13-.88-.42,.55-3.42,3.5-3.72,3.63,0,0-.02,0-.03,0,0,.01-.01,.02-.03,.03-2.53,1.75-5.37,2.64-8.33,2.63-1.27,.32-2.59,.36-3.98-.06-.26-.08-.49-.33-.47-.62,.02-.35,.06-.63,.13-.88-.05-.02-.1-.06-.15-.09-.83-.67-1.6-1.37-2.33-2.1h-.01v-.03c-.07-.04-.12-.07-.18-.1-.16,.23-.33,.45-.5,.67-.06,.14-.42,.71-.56,.74-2.39,3.2-4.73,6.44-7.02,9.73-.47,.68,3.47-11.01,4.9-13.8,.19-.24,.42-.77-.18-1.37-.85-1.12-1.67-2.27-2.51-3.43-2.03-2.83-4.96-10.39-4.28-10.79,1.24-.72,2.49-1.4,3.77-2.04,.13-.86,.44-1.55,.89-2.12-1.06,.64-6.47,2.74-5.8,2.28,4.09-2.85,10.45-6.48,15.09-8.27,.55-.21-.59,2.41-1.52,2.92,.34,.17,3.64-2.24,3.64-2.87,0-.4,.42-.76,.82-.62,1.33,.47,5.15,2.72,5.04,2.93,.77,.58,.36,.27,1.1,.85,6.24-5.97,10.96-9.39,16.85-13.44,.69-.47-9.06,10.77-13.48,16.12,.24,.19,0,0,.57,.52,1.92,.46,3.71,1.35,5.35,2.57,.66,.5,2.18,3,2.87,4.04,1.67,2.5,.85,6.71,.39,7.21-.36,.4-1.13,2.32-1.35,2.52-.89,.8-1.85,1.38-2.87,1.82-.12,.25-2.38,2.75-2.25,2.3Zm24.83,22.09s.16,.88,.14,.9c-.01,.11-3.11-1.76-3.15-1.66,.61,.45,2.38,2.49,1.91,2.13-.03-.03-.22,.33-1.87,.13-.83-.1-4.25-1.31-6.09-2.42,.78,.92-.54-.19,0,.93,.27,.55-1.96,.87-3.29-.42-.16,.11-.33,.22-.49,.34-.88,.93-1.93,1.66-3.16,2.22-.04,.08-.09,.16-.16,.23-.52,.5-3.89,.69-3.25,.16,.07-.06,.14-.11,.21-.17-.24-.23-.42-.51-.55-.81-.43,.49-1.81,.84-2.03,.53-2.36-3.29,.23-7.21,2.22-10.33,.38-2.11,1.06-4.15,2.27-5.61-.04-.11-.05-.24,0-.39,.54-1.74,1.32-3.38,2.35-4.88,.47-.68,3.13,.49,3.61,.46-.07,.03-.13,.06-.21,.09,.47-.12,1.06,.4,.74,.96-.12,.23-.26,.45-.37,.68,.05,.04,.1,.08,.16,.11,.4-.6,.89-1.12,1.47-1.58,0,0,.01,0,.02-.01,.02-.02,.05-.04,.08-.06-.61-.29-.25-1.35,.5-1.2,3.11,.68,4.23,3.94,5.34,6.55,.28,.65,.55,1.3,.81,1.95,.3,.5,.57,1.01,.81,1.54,.06,.04,.11,.11,.16,.18,.9,1.51,1.49,3.13,1.76,4.86,.04,.22-.03,.4-.16,.55,.35,1.09,.52,1.34,.85,2.45,.19,.66-.24,1.93-.66,1.6Zm30.88-37.67s.01,.04,.01,.05c.59,3.67-1.7,6.77-3.73,9.59-.84,1.16-1.66,2.32-2.51,3.43,.38,.17,1.15,.16,.83,.59-2.2,2.94-5.61,5.16-6.71,5.67-.06,.03-.11,.08-.16,.09,.08,.25,.13,.53,.14,.88,.01,.29-.21,.55-.47,.62-1.39,.42-2.71,.38-3.98,.06-2.95,0-5.79-.89-8.32-2.63l-.02-.02s-.03,0-.04-.01c-.29-.12-3.35-1.82-3.27-1.37,.15,.81-2.15-1.11-2.17-1.3-.42-.93-1-1.79-1.63-2.61-.52,.18-1.13,.06-1.47-.57-.83-1.5-1.6-3.04-2.33-4.59-.57-1.23,.6-6.54,1.56-7.06,.98-.54,1.95-1.1,2.62-1.96-.39-.18-.57-.85-.11-1.2,1.65-1.24,3.46-2.12,5.41-2.59,.29-.24,.89-.73,.9-.73,.94-.84,1.93-1.59,2.98-2.21,.4-.28,2.38-1.98,2.51-1.77,.22-.16,.44-.31,.66-.47,1.15-.86,1.95-1.74,3.43-1.79,.47-.02,.82,.57,.56,.97-.38,.59,3.11,2.72,3.45,2.55-.93-.52,7.27,1.57,11.35,4.42,.68,.47,1.21,4.2,.52,3.94Z"/></g><g><g><path class="e" d="M50.33,139.08l5.66,2.7c.92-4.83,2.2-9.68,3.81-14.46l70.47,30.2,9.81-5.17L63.61,117.5c.87-1.97,1.8-3.92,2.78-5.84l77.61,38.63,9.15-4.82-81.56-42.97c2.7-4.26,5.66-8.31,8.86-12.05l-5.66-2.7c-5.96,6.28-10.33,11.38-13.63,16.39l-40.83-15.66c.33-4.04-1.58-7.1-6.03-9.22-4.45-2.12-11.02-.26-13.41,4.75-2.39,5.02,.3,11.29,4.75,13.41,4.45,2.12,8.02,1.68,10.96-1.12l37.89,21.87c-1.81,5.72-3.02,12.33-4.17,20.9Z"/><path class="e" d="M239.14,190.78l-52.6-27.71-9.07,3.89,26.87,13.38,1.13,1.24-1.66-.15-29.13-13.28-9.83,4.21,69.67,29.86c4.19,2.43,14.97,2.06,20.77,2.54-4.51-4.24-9.33-10.67-16.16-13.98Z"/></g><path class="e" d="M262.53,118.18l37.89-21.87c2.93,2.8,6.51,3.24,10.96,1.12s7.14-8.4,4.75-13.41-8.96-6.87-13.41-4.75c-4.45,2.12-6.36,5.17-6.03,9.22l-40.83,15.66c-3.3-5.01-7.67-10.11-13.63-16.39l-5.66,2.7c3.2,3.74,6.17,7.79,8.86,12.05L77.89,190.78c-6.82,3.31-11.65,9.74-16.16,13.98,5.8-.48,16.58-.11,20.77-2.54l174.73-74.89c1.61,4.78,2.89,9.62,3.81,14.46l5.66-2.7c-1.14-8.58-2.35-15.18-4.17-20.9h0Zm-11.89-6.52c.98,1.92,1.91,3.87,2.78,5.84l-140.2,63.92-1.66,.15,1.13-1.24L250.64,111.66Z"/></g></g></g></svg>