<?xml version="1.0" encoding="utf-8"?>
<!-- Generator: Adobe Illustrator 26.2.1, SVG Export Plug-In . SVG Version: 6.00 Build 0)  -->
<svg version="1.1" id="Layer_1" xmlns="http://www.w3.org/2000/svg" xmlns:xlink="http://www.w3.org/1999/xlink" x="0px" y="0px"
	 viewBox="0 0 239.8 96.5" style="enable-background:new 0 0 239.8 96.5;" xml:space="preserve">
<style type="text/css">
	.st0{fill:#FFFFFF;}
</style>
<g>
	<g>
		<path class="st0" d="M17.6,71.3c-0.6,0.1-1.1,0.1-1.6,0.1H4.3c-0.5,0-1,0-1.6-0.1c-0.6-0.1-1.1-0.2-1.6-0.2
			C0.6,71,0.2,70.9,0,70.8v4.4l0.3,0v-0.6c0-0.6,0.2-1.1,0.6-1.5s0.9-0.6,1.5-0.6H9v20.9C9,94,8.8,94.6,8.3,95
			c-0.4,0.4-0.9,0.7-1.6,0.7H6.3V96H14v-0.3h-0.5c-0.6,0-1.1-0.2-1.6-0.7s-0.7-0.9-0.7-1.6V72.5h6.6c0.6,0,1,0.2,1.5,0.6
			c0.4,0.4,0.6,0.9,0.6,1.5v0.6l0.4,0v-4.4c-0.2,0.1-0.6,0.2-1,0.3S18.2,71.3,17.6,71.3z"/>
		<path class="st0" d="M42.6,75H38v0.3h0.4c0.6,0,1,0.2,1.4,0.5s0.6,0.8,0.6,1.3v7.9H27.5v-7.9c0-0.5,0.2-1,0.6-1.3
			c0.4-0.4,0.9-0.5,1.4-0.5H30V75h-7.1v0.3h0.4c0.6,0,1,0.2,1.4,0.5c0.4,0.4,0.6,0.8,0.6,1.3v16.5c0,0.5-0.2,1-0.6,1.3
			c-0.4,0.4-0.9,0.6-1.4,0.6h-0.4V96H30v-0.3h-0.4c-0.6,0-1-0.2-1.4-0.6c-0.4-0.4-0.6-0.8-0.6-1.3v-7.6h12.9v7.6
			c0,0.5-0.2,1-0.6,1.3s-0.9,0.6-1.4,0.6H38V96h7.1v-0.3h-0.4c-0.6,0-1-0.2-1.4-0.6c-0.4-0.4-0.6-0.8-0.6-1.3V77.2
			c0-0.5,0.2-1,0.6-1.3c0.4-0.4,0.9-0.5,1.4-0.5h0.4V75H42.6z"/>
		<path class="st0" d="M63.6,93c-0.4,0.6-1,1.1-1.7,1.4c-0.7,0.3-1.7,0.5-2.8,0.5h-5.3V86h6c0.5,0,0.8,0.2,1.1,0.4
			c0.2,0.3,0.3,0.6,0.3,1v0.5h0.4V83h-0.4v0.5c0,0.4-0.1,0.7-0.3,1S60.2,85,59.7,85h-6v-8.9H61c0.5,0,1,0.2,1.3,0.5
			c0.3,0.3,0.5,0.8,0.5,1.3v0.5h0.4v-3.9c-0.3,0.1-0.9,0.2-1.7,0.4S59.8,75,59.1,75H49v0.3h0.5c0.6,0,1.1,0.2,1.4,0.5
			c0.4,0.3,0.6,0.8,0.6,1.3v16.6c0,0.5-0.2,1-0.6,1.3s-0.8,0.6-1.4,0.6H49V96h14.2l1.9-5h-0.3C64.4,91.8,64,92.4,63.6,93L63.6,93z"
			/>
		<path class="st0" d="M98.2,95.1c-0.6-0.3-1.1-0.9-1.4-1.7l0,0L87.5,71h-0.3c0,0.2-0.1,0.5-0.2,0.9c-0.1,0.4-0.3,0.8-0.5,1.2
			s-0.4,0.9-0.7,1.5l-8,19c-0.4,0.7-0.8,1.2-1.3,1.5c-0.6,0.3-1.1,0.5-1.7,0.5h-0.3V96h7v-0.3h-0.3c-0.3,0-0.6-0.1-0.8-0.3
			c-0.3-0.2-0.5-0.4-0.6-0.8c-0.1-0.3-0.1-0.7,0.1-1.1l2.4-6h9.4l2.3,6c0.2,0.7,0.2,1.2-0.2,1.5c-0.3,0.4-0.8,0.6-1.2,0.6h-0.3V96
			h7.9v-0.3h-0.3C99.4,95.6,98.8,95.5,98.2,95.1L98.2,95.1z M82.7,86.4l4.4-11.2l4.2,11.2C91.3,86.4,82.7,86.4,82.7,86.4z"/>
		<path class="st0" d="M112.5,87.1l-7.1-5.5c-0.3-0.3-0.6-0.6-0.8-0.9s-0.3-0.6-0.4-0.9s-0.1-0.6-0.1-0.9c0-0.9,0.4-1.7,1.2-2.4
			s1.8-1,3-1c1.4,0,2.4,0.3,3,0.8c0.7,0.6,1,1.3,1,2.3h0.4l0-3.5h0l0-0.3h-1.2c-0.2,0-0.3-0.1-0.5-0.1c-0.4-0.1-0.8-0.1-1.3-0.2
			s-1.1-0.1-1.7-0.1c-1.1,0-2.1,0.2-2.9,0.7s-1.6,1.1-2.1,1.8s-0.8,1.6-0.8,2.6c0,0.6,0.1,1.2,0.3,1.9c0.2,0.7,0.7,1.3,1.3,1.9
			l7,5.4c0.4,0.4,0.8,0.8,1,1.3s0.3,1,0.3,1.5c0,1.1-0.4,2.1-1.2,2.8s-2,1.1-3.4,1.1c-1,0-1.9-0.2-2.7-0.5s-1.3-0.9-1.8-1.7
			s-0.6-1.7-0.5-2.7h-0.4c-0.1,0.4-0.2,0.9-0.3,1.5c-0.1,0.6-0.1,1.1-0.1,1.6s0,0.9,0.1,1.2c0.4,0.4,1,0.7,1.7,0.9s1.4,0.4,2.2,0.5
			c0.8,0.1,1.5,0.2,2.2,0.2c1.1,0,2.2-0.2,3.1-0.8c0.9-0.5,1.7-1.2,2.3-2.1s0.8-1.8,0.8-2.8c0-0.7-0.2-1.4-0.4-2.1
			S113,87.5,112.5,87.1L112.5,87.1z"/>
		<path class="st0" d="M128.7,87.1l-7.1-5.5c-0.3-0.3-0.6-0.6-0.8-0.9s-0.3-0.6-0.4-0.9s-0.1-0.6-0.1-0.9c0-0.9,0.4-1.7,1.2-2.4
			s1.8-1,3-1c1.4,0,2.4,0.3,3,0.8c0.6,0.6,1,1.3,1,2.3h0.4l0-3.5h0l0-0.3h-1.2c-0.2,0-0.3-0.1-0.5-0.1c-0.4-0.1-0.8-0.1-1.3-0.2
			s-1.1-0.1-1.7-0.1c-1.1,0-2.1,0.2-2.9,0.7s-1.6,1.1-2.1,1.8s-0.8,1.6-0.8,2.6c0,0.6,0.1,1.2,0.3,1.9c0.2,0.7,0.7,1.3,1.3,1.9
			l7,5.4c0.4,0.4,0.8,0.8,1,1.3c0.2,0.5,0.3,1,0.3,1.5c0,1.1-0.4,2.1-1.2,2.8s-2,1.1-3.4,1.1c-1,0-1.9-0.2-2.7-0.5s-1.3-0.9-1.8-1.7
			s-0.6-1.7-0.5-2.7h-0.4c-0.1,0.4-0.2,0.9-0.3,1.5c-0.1,0.6-0.1,1.1-0.1,1.6s0,0.9,0.1,1.2c0.4,0.4,1,0.7,1.7,0.9s1.4,0.4,2.2,0.5
			c0.8,0.1,1.5,0.2,2.2,0.2c1.1,0,2.2-0.2,3.1-0.8c0.9-0.5,1.7-1.2,2.3-2.1s0.8-1.8,0.8-2.8c0-0.7-0.2-1.4-0.4-2.1
			S129.2,87.5,128.7,87.1L128.7,87.1z"/>
		<path class="st0" d="M148.7,93c-0.4,0.6-1,1.1-1.7,1.4c-0.7,0.3-1.6,0.5-2.8,0.5h-5.3V86h5.9c0.5,0,0.9,0.2,1.1,0.4
			c0.2,0.3,0.4,0.6,0.4,1v0.5h0.4V83h-0.4v0.5c0,0.4-0.1,0.7-0.4,1c-0.2,0.3-0.6,0.4-1.1,0.4h-5.9v-8.9h7.2c0.5,0,1,0.2,1.3,0.5
			c0.3,0.3,0.5,0.8,0.5,1.3v0.5h0.4v-3.9c-0.3,0.1-0.9,0.2-1.7,0.4S145,75,144.2,75h-10.1v0.3h0.5c0.6,0,1.1,0.2,1.4,0.5
			c0.4,0.3,0.6,0.8,0.6,1.3v16.6c0,0.5-0.2,1-0.6,1.3s-0.9,0.6-1.4,0.6h-0.5V96h14.2l1.9-5h-0.4C149.5,91.8,149.2,92.4,148.7,93
			L148.7,93z"/>
		<path class="st0" d="M179.6,95.1c-0.4-0.3-0.7-0.8-0.8-1.4L176,74.5h-0.3l-8.9,17.8l-9.2-17.8h-0.4l-2.7,19.2h0
			c-0.1,0.6-0.3,1.1-0.8,1.5s-1,0.5-1.6,0.5h-0.5V96h6.5v-0.3h-0.5c-0.5,0-0.9-0.2-1.1-0.5c-0.2-0.3-0.2-0.6-0.2-0.8l1.6-14.1
			l8.4,16.3h0.4c0.1-0.5,0.2-1,0.4-1.6c0.2-0.6,0.5-1.2,0.8-2l6.6-13l1.8,14.3l0,0c0.1,0.3,0,0.7-0.2,1s-0.5,0.5-1.1,0.5h-0.5V96
			h7.3v-0.3h-0.5C180.7,95.6,180.1,95.5,179.6,95.1L179.6,95.1z"/>
		<path class="st0" d="M197.5,85.5c-0.9-0.5-1.9-0.8-3-1c0.6-0.2,1.3-0.4,1.9-0.9s1.1-0.9,1.4-1.5c0.4-0.6,0.6-1.3,0.6-2
			c0-1.2-0.3-2.1-0.8-2.8c-0.5-0.7-1.2-1.2-1.9-1.6s-1.6-0.6-2.4-0.7c-0.8-0.1-1.6-0.2-2.2-0.2h-7.1v0.3h0.4c0.6,0,1.1,0.2,1.5,0.5
			c0.4,0.3,0.6,0.8,0.6,1.4v16.5c0,0.5-0.2,1-0.6,1.3c-0.4,0.4-0.9,0.6-1.5,0.6h-0.4V96h8.7c0.9,0,1.8-0.1,2.7-0.3s1.8-0.5,2.5-0.9
			s1.4-1,1.9-1.8s0.7-1.7,0.7-2.8c0-0.9-0.3-1.8-0.8-2.6C199.1,86.8,198.4,86.1,197.5,85.5L197.5,85.5z M197.2,92.8
			c-0.5,0.7-1.1,1.2-1.9,1.6s-1.7,0.5-2.7,0.5h-3.9V76h2.4c1.5,0,2.7,0.3,3.6,1s1.3,1.7,1.3,3.2c0,1-0.2,1.7-0.6,2.3
			c-0.4,0.6-0.9,1-1.5,1.3s-1.3,0.5-2,0.6c-0.7,0.1-1.4,0.1-2,0.1v0.3c1,0,1.9,0.1,2.9,0.2c1,0.1,1.8,0.4,2.6,0.7s1.4,0.9,1.9,1.6
			c0.5,0.7,0.7,1.6,0.7,2.7S197.6,92.1,197.2,92.8L197.2,92.8z"/>
		<path class="st0" d="M218.5,93c-0.4,0.6-1,1.1-1.7,1.4c-0.7,0.3-1.6,0.5-2.8,0.5h-5.3V77.2c0-0.5,0.2-1,0.6-1.3s0.9-0.5,1.4-0.5
			h0.4V75h-7.2v0.3h0.4c0.6,0,1.1,0.2,1.5,0.5s0.6,0.8,0.6,1.3v16.5c0,0.5-0.2,1-0.6,1.3s-0.9,0.6-1.4,0.6h-0.5V96h14.2l1.9-5h-0.4
			C219.3,91.7,218.9,92.4,218.5,93L218.5,93z"/>
		<path class="st0" d="M232.5,75v0.3h0.4c0.5,0,0.9,0.2,1.1,0.6c0.2,0.4,0.2,0.8,0,1.3l-5.3,8.8l-5-8.9l0,0c-0.2-0.4-0.2-0.8,0-1.2
			s0.6-0.6,1.1-0.6h0.4V75H217v0.3h0.4c0.7,0,1.3,0.2,1.8,0.5c0.6,0.3,1,0.7,1.4,1.3h0l6.5,10.2v6.5c0,0.5-0.2,1-0.6,1.3
			c-0.4,0.4-0.9,0.6-1.4,0.6h-0.4V96h7.2v-0.3h-0.4c-0.6,0-1-0.2-1.4-0.6c-0.4-0.4-0.6-0.8-0.6-1.3v-6.4l6.7-10.2h0.1
			c0.3-0.5,0.8-0.9,1.4-1.2s1.2-0.5,1.8-0.5h0.4V75L232.5,75L232.5,75z"/>
	</g>
</g>
<g id="d" transform="translate(295.667 22.167)">
	<path id="e" class="st0" d="M-173.2,6.8c0,1.5,0,3,0,4.6h3.8c-1.4-3.7-2.9-7.4-3.8-9.5C-173.1,1.8-173.2,6.8-173.2,6.8z"/>
	<path id="f" class="st0" d="M-177.8,1.8c-0.9,2.2-2.3,5.8-3.8,9.5h3.8c0-1.6,0-3.1,0-4.6C-177.8,6.8-177.8,1.8-177.8,1.8z"/>
	<path id="g" class="st0" d="M-175.8-22.2c-18,0-32.5,14.6-32.5,32.5c0,18,14.6,32.5,32.5,32.5s32.5-14.6,32.5-32.5l0,0
		C-143.3-7.6-157.8-22.2-175.8-22.2L-175.8-22.2 M-168.2,26.7c0,0,3.5-1.1,3.3-3c-0.1-0.8-1.8-5.4-3.7-10.3h-4.6v3.1l0.1,6.5
		c0,0.6,0,1.3,0.1,1.9c0.3,1.2,3.2,2,3.2,2h-11.2c0,0,2.9-0.8,3.2-2c0.1-0.6,0.1-1.3,0.1-1.9l0.1-6.6v-3.1h-4.6
		c-1.9,4.9-3.6,9.5-3.7,10.3c-0.2,1.9,3.3,3,3.3,3h-12.5c2.1-0.1,3.7-2.9,3.7-2.9l11.4-26.1c-3.7,0-7.9-0.1-8.6,0.1
		c-1.2,0.3-2,3.2-2,3.2v-8l15.3,0.2l15.3-0.2v8c0,0-0.8-2.9-2-3.2c-0.7-0.2-5-0.2-8.8-0.1l11.4,26.1c0,0,1.6,2.8,3.7,2.9
		L-168.2,26.7L-168.2,26.7z"/>
</g>
</svg>
