<?xml version="1.0" encoding="utf-8"?>
<!-- Generator: Adobe Illustrator 26.2.1, SVG Export Plug-In . SVG Version: 6.00 Build 0)  -->
<svg version="1.1" id="Layer_1" xmlns="http://www.w3.org/2000/svg" xmlns:xlink="http://www.w3.org/1999/xlink" x="0px" y="0px"
	 viewBox="0 0 77.3 77.3" style="enable-background:new 0 0 77.3 77.3;" xml:space="preserve">
<style type="text/css">
	.st0{fill:#987F5B;}
</style>
<g id="a">
</g>
<g id="b">
	<g id="c">
		<g>
			<path id="d" class="st0" d="M45.8,35.9c-2.3,0.1-4,2.1-3.9,4.3c-0.2,2.1,1.3,4.1,3.4,4.3c2.1,0.2,4.1-1.3,4.3-3.4
				c0-0.3,0-0.6,0-0.9C49.8,38,48.1,36.1,45.8,35.9L45.8,35.9"/>
			<path id="e" class="st0" d="M31.5,35.9c-2.3,0.1-4,2.1-3.9,4.3c-0.2,2.1,1.3,4.1,3.4,4.3c2.1,0.2,4.1-1.3,4.3-3.4
				c0-0.3,0-0.6,0-0.9C35.5,38,33.8,36.1,31.5,35.9L31.5,35.9"/>
			<path id="f" class="st0" d="M38.6,0C17.3,0,0,17.3,0,38.6s17.3,38.6,38.6,38.6S77.3,60,77.3,38.6S60,0,38.6,0L38.6,0 M60,49.5
				C60,49.5,59.9,49.6,60,49.5C56.7,52,53,53.8,49.2,55c-0.1,0-0.1,0-0.2,0c-0.8-1.1-1.5-2.3-2.2-3.6c0-0.1,0-0.2,0.1-0.2h0
				c1.2-0.4,2.3-1,3.4-1.6c0.1,0,0.1-0.1,0-0.2c0,0,0,0,0,0c-0.2-0.2-0.5-0.3-0.7-0.5c0,0-0.1,0-0.1,0c-6.8,3.2-14.8,3.2-21.6,0
				c0,0-0.1,0-0.1,0c-0.2,0.2-0.4,0.3-0.7,0.5c-0.1,0-0.1,0.1,0,0.2c0,0,0,0,0,0c1.1,0.6,2.2,1.2,3.4,1.6c0.1,0,0.1,0.1,0.1,0.2v0
				c-0.6,1.2-1.4,2.4-2.2,3.6c0,0-0.1,0.1-0.1,0c-3.9-1.2-7.5-3-10.7-5.4c0,0,0-0.1-0.1-0.1c-0.9-8.7,1.4-17.4,6.4-24.5
				c0,0,0,0,0.1,0c2.8-1.3,5.7-2.2,8.8-2.7c0.1,0,0.1,0,0.1,0.1c0.4,0.7,0.8,1.5,1.1,2.2c3.3-0.5,6.6-0.5,9.8,0
				c0.3-0.8,0.7-1.5,1.1-2.2c0,0,0.1-0.1,0.1-0.1c3,0.5,6,1.4,8.8,2.7c0,0,0,0,0.1,0C58.6,32.1,60.9,40.8,60,49.5"/>
		</g>
	</g>
</g>
</svg>
