<?xml version="1.0" encoding="UTF-8"?><svg xmlns="http://www.w3.org/2000/svg" viewBox="0 0 77.27 77.27"><defs><style>.g{fill:#fff;}</style></defs><g id="a"/><g id="b"><g id="c"><g><path id="d" class="g" d="M45.8,35.93c-2.27,.13-4,2.07-3.87,4.34-.25,2.14,1.29,4.07,3.42,4.31,2.14,.25,4.07-1.29,4.31-3.42,.03-.3,.03-.59,0-.89,.14-2.25-1.57-4.19-3.82-4.34h-.05"/><path id="e" class="g" d="M31.5,35.93c-2.27,.13-4,2.07-3.87,4.34-.25,2.14,1.29,4.07,3.42,4.31,2.14,.25,4.07-1.29,4.31-3.42,.03-.3,.03-.59,0-.89,.14-2.25-1.57-4.19-3.82-4.34h-.05"/><path id="f" class="g" d="M38.63,0C17.3,0,0,17.3,0,38.63s17.3,38.63,38.63,38.63,38.63-17.3,38.63-38.63S59.97,0,38.63,0h0m21.33,49.5s-.02,.08-.05,.1c-3.25,2.41-6.89,4.25-10.76,5.44-.06,.02-.12,0-.15-.05-.82-1.14-1.55-2.33-2.2-3.58-.03-.07,0-.15,.06-.18h.01c1.16-.44,2.29-.98,3.36-1.6,.06-.04,.08-.13,.04-.19,0-.01-.02-.03-.04-.04-.23-.17-.45-.35-.67-.52-.04-.03-.09-.04-.14-.02-6.85,3.22-14.77,3.22-21.62,0-.05-.02-.1-.01-.14,.02-.21,.18-.44,.35-.67,.52-.06,.04-.08,.12-.04,.19,.01,.02,.02,.03,.04,.04,1.07,.62,2.2,1.16,3.35,1.6,.07,.03,.11,.1,.08,.17v.02c-.63,1.25-1.36,2.44-2.18,3.57-.04,.05-.1,.07-.15,.05-3.86-1.19-7.5-3.03-10.74-5.44-.03-.03-.05-.06-.06-.1-.88-8.66,1.37-17.35,6.36-24.48,.01-.02,.03-.04,.06-.05,2.79-1.28,5.73-2.19,8.76-2.72,.06,0,.11,.02,.14,.07,.41,.72,.78,1.47,1.11,2.24,3.26-.5,6.58-.5,9.84,0,.32-.76,.69-1.51,1.09-2.24,.03-.05,.08-.08,.14-.07,3.02,.52,5.97,1.44,8.76,2.72,.02,0,.05,.03,.06,.05,5.01,7.13,7.27,15.83,6.36,24.49"/></g></g></g></svg>