<?xml version="1.0" encoding="utf-8"?>
<!-- Generator: Adobe Illustrator 26.2.1, SVG Export Plug-In . SVG Version: 6.00 Build 0)  -->
<svg version="1.1" id="Layer_1" xmlns="http://www.w3.org/2000/svg" xmlns:xlink="http://www.w3.org/1999/xlink" x="0px" y="0px"
	 viewBox="0 0 77.3 77.3" style="enable-background:new 0 0 77.3 77.3;" xml:space="preserve">
<style type="text/css">
	.st0{fill-rule:evenodd;clip-rule:evenodd;fill:#987F5B;}
</style>
<g id="a">
</g>
<path class="st0" d="M38.6,1.2C17.4,1.2,0.2,18.4,0.2,39.6c0,17,11,31.4,26.3,36.4c1.9,0.4,2.6-0.8,2.6-1.9c0-0.9,0-3.3-0.1-6.5
	c-10.7,2.3-12.9-5.1-12.9-5.1c-1.7-4.4-4.3-5.6-4.3-5.6c-3.5-2.4,0.3-2.3,0.3-2.3c3.9,0.3,5.9,4,5.9,4c3.4,5.9,9,4.2,11.2,3.2
	c0.3-2.5,1.3-4.2,2.4-5.1c-8.5-1-17.5-4.3-17.5-19c0-4.2,1.5-7.6,4-10.3c-0.4-1-1.7-4.9,0.4-10.2c0,0,3.2-1,10.6,3.9
	c3.1-0.9,6.3-1.3,9.6-1.3c3.3,0,6.5,0.4,9.6,1.3c7.3-5,10.6-3.9,10.6-3.9c2.1,5.3,0.8,9.2,0.4,10.2c2.5,2.7,3.9,6.1,3.9,10.3
	c0,14.8-9,18-17.5,19c1.4,1.2,2.6,3.5,2.6,7.1c0,5.1,0,9.3,0,10.5c0,1,0.7,2.2,2.6,1.8c15.2-5.1,26.2-19.5,26.2-36.4
	C77.1,18.4,59.9,1.2,38.6,1.2z"/>
</svg>
