<?xml version="1.0" encoding="utf-8"?>
<!-- Generator: Adobe Illustrator 26.2.1, SVG Export Plug-In . SVG Version: 6.00 Build 0)  -->
<svg version="1.1" id="Layer_1" xmlns="http://www.w3.org/2000/svg" xmlns:xlink="http://www.w3.org/1999/xlink" x="0px" y="0px"
	 viewBox="0 0 77.3 77.3" style="enable-background:new 0 0 77.3 77.3;" xml:space="preserve">
<style type="text/css">
	.st0{fill:#987F5B;}
</style>
<g id="a">
</g>
<g id="b">
	<g id="c">
		<g>
			<path id="d" class="st0" d="M57.3,24.5c-0.8-2.1-2.5-3.8-4.6-4.6c-1.4-0.5-2.9-0.8-4.5-0.8C45.8,19,45,19,38.6,19s-7.2,0-9.7,0.1
				c-1.5,0-3,0.3-4.5,0.8c-2.1,0.8-3.8,2.5-4.6,4.6c-0.5,1.4-0.8,2.9-0.8,4.5c-0.1,2.5-0.1,3.3-0.1,9.7s0,7.2,0.1,9.7
				c0,1.5,0.3,3,0.8,4.5c0.8,2.1,2.5,3.8,4.6,4.5c1.4,0.5,2.9,0.8,4.5,0.8c2.5,0.1,3.3,0.1,9.7,0.1s7.2,0,9.7-0.1
				c1.5,0,3-0.3,4.5-0.8c2.1-0.8,3.8-2.5,4.6-4.6c0.5-1.4,0.8-2.9,0.8-4.5c0.1-2.5,0.1-3.3,0.1-9.7s0-7.2-0.1-9.7
				C58.2,27.4,57.9,25.9,57.3,24.5 M38.6,50.9c-6.8,0-12.3-5.5-12.3-12.3s5.5-12.3,12.3-12.3S51,31.8,51,38.6S45.4,50.9,38.6,50.9
				L38.6,50.9 M51.5,28.7c-1.6,0-2.9-1.3-2.9-2.9s1.3-2.9,2.9-2.9s2.9,1.3,2.9,2.9S53,28.7,51.5,28.7L51.5,28.7"/>
			<path id="e" class="st0" d="M38.6,30.6c-4.4,0-8,3.6-8,8s3.6,8,8,8s8-3.6,8-8S43,30.6,38.6,30.6"/>
			<path id="f" class="st0" d="M38.6,0C17.3,0,0,17.3,0,38.6s17.3,38.6,38.6,38.6S77.3,60,77.3,38.6S60,0,38.6,0L38.6,0 M62.5,48.5
				c0,2-0.4,4-1.1,5.8c-1.2,3.2-3.8,5.8-7,7c-1.9,0.7-3.8,1.1-5.8,1.1c-2.6,0.1-3.4,0.1-9.9,0.1s-7.3,0-9.9-0.1c-2,0-4-0.4-5.8-1.1
				c-3.2-1.2-5.8-3.8-7-7c-0.7-1.9-1.1-3.8-1.1-5.8c-0.1-2.6-0.1-3.4-0.1-9.9s0-7.3,0.1-9.9c0-2,0.4-4,1.1-5.8c1.2-3.2,3.8-5.8,7-7
				c1.9-0.7,3.8-1.1,5.8-1.1c2.6-0.1,3.4-0.1,9.9-0.1s7.3,0,9.9,0.1c2,0,4,0.4,5.8,1.1c3.2,1.2,5.8,3.8,7,7c0.7,1.9,1.1,3.8,1.1,5.8
				c0.1,2.6,0.1,3.4,0.1,9.9S62.6,46,62.5,48.5"/>
		</g>
	</g>
</g>
</svg>
