<?xml version="1.0" encoding="UTF-8"?><svg xmlns="http://www.w3.org/2000/svg" viewBox="0 0 77.27 77.27"><defs><style>.g{fill:#fff;}</style></defs><g id="a"/><g id="b"><g id="c"><g><path id="d" class="g" d="M57.35,24.48c-.81-2.09-2.46-3.75-4.56-4.56-1.43-.53-2.94-.81-4.46-.83-2.53-.12-3.29-.14-9.7-.14s-7.17,.03-9.7,.14c-1.52,.02-3.03,.3-4.46,.83-2.09,.81-3.75,2.46-4.56,4.56-.53,1.43-.81,2.94-.83,4.46-.12,2.53-.14,3.29-.14,9.7s.03,7.17,.14,9.7c.02,1.52,.3,3.03,.83,4.45,.81,2.1,2.47,3.75,4.57,4.55,1.43,.53,2.94,.81,4.46,.83,2.53,.12,3.29,.14,9.7,.14s7.17-.03,9.7-.14c1.52-.02,3.03-.3,4.46-.83,2.09-.81,3.75-2.46,4.56-4.56,.53-1.43,.81-2.94,.83-4.46,.12-2.53,.14-3.29,.14-9.7s-.03-7.17-.14-9.7c-.02-1.52-.3-3.03-.83-4.46m-18.72,26.49c-6.81,0-12.32-5.52-12.32-12.32s5.52-12.32,12.32-12.32,12.32,5.52,12.32,12.32c0,6.8-5.51,12.32-12.32,12.32h0m12.81-22.26c-1.59,0-2.88-1.29-2.88-2.88s1.29-2.88,2.88-2.88c1.59,0,2.88,1.29,2.88,2.88s-1.29,2.88-2.88,2.88h0"/><path id="e" class="g" d="M38.63,30.64c-4.42,0-7.99,3.58-7.99,7.99s3.58,7.99,7.99,7.99,7.99-3.58,7.99-7.99-3.58-7.99-7.99-7.99"/><path id="f" class="g" d="M38.63,0C17.3,0,0,17.3,0,38.63s17.3,38.63,38.63,38.63,38.63-17.3,38.63-38.63S59.97,0,38.63,0h0m23.86,48.53c-.04,1.99-.42,3.96-1.11,5.83-1.25,3.23-3.8,5.79-7.03,7.03-1.86,.7-3.83,1.08-5.83,1.12-2.56,.12-3.38,.14-9.9,.14s-7.33-.03-9.9-.14c-1.99-.04-3.96-.42-5.83-1.12-3.23-1.25-5.79-3.8-7.03-7.03-.7-1.86-1.08-3.84-1.11-5.83-.12-2.56-.14-3.38-.14-9.9s.03-7.33,.14-9.9c.04-1.99,.41-3.96,1.11-5.83,1.25-3.23,3.8-5.79,7.03-7.03,1.87-.7,3.84-1.08,5.83-1.12,2.56-.12,3.38-.14,9.9-.14s7.34,.03,9.9,.14c1.99,.04,3.96,.42,5.83,1.12,3.23,1.25,5.79,3.8,7.03,7.03,.7,1.87,1.07,3.84,1.11,5.83,.12,2.56,.14,3.38,.14,9.9s-.03,7.34-.14,9.9"/></g></g></g></svg>