<?xml version="1.0" encoding="utf-8"?>
<!-- Generator: Adobe Illustrator 26.2.1, SVG Export Plug-In . SVG Version: 6.00 Build 0)  -->
<svg version="1.1" id="Group_341" xmlns="http://www.w3.org/2000/svg" xmlns:xlink="http://www.w3.org/1999/xlink" x="0px" y="0px"
	 viewBox="0 0 23.9 33.4" style="enable-background:new 0 0 23.9 33.4;" xml:space="preserve">
<style type="text/css">
	.st0{fill:#987F5B;}
</style>
<g id="Group_340">
	<path id="Path_494" class="st0" d="M0.3,32.7c5.5-0.6,9.6-2.9,12.1-6.9c3.5-5.7,2.8-13.2,1-18.4c-0.1-0.2,0-0.4,0.2-0.5
		c0.2-0.1,0.4,0,0.5,0.2c0,0,0,0,0,0c1.9,5.4,2.6,13.2-1.1,19.1c-2.6,4.1-6.8,6.6-12.6,7.2c0,0,0,0,0,0C0.2,33.4,0,33.2,0,33
		C0,32.8,0.1,32.7,0.3,32.7L0.3,32.7z"/>
	<path id="Path_495" class="st0" d="M13.4,28.8c0.3,0,0.5,0,0.8,0c2,0.1,3.9,0.6,5.6,1.6c-1.7,1.5-3.7,2.5-6,2.8
		c-0.3,0-0.7,0.1-1,0.1c-2.9,0-4-1.4-4-1.8c0.1-0.5,0.4-1,0.8-1.3C10.7,29.4,12,28.9,13.4,28.8z"/>
	<path id="Path_496" class="st0" d="M10.6,27.1C10.6,27.1,10.6,27.1,10.6,27.1c-0.6,0-2.4-0.8-3-4.4c-0.3-2.2,0.2-4.5,1.2-6.5
		c1.6,1.6,2.7,3.6,3.2,5.8C12.6,25.6,11.1,27,10.6,27.1z"/>
	<path id="Path_497" class="st0" d="M15.8,21.5c-0.3-0.5-0.3-1-0.2-1.6c0.4-1.3,1.1-2.5,2.2-3.4c1.7-1.5,3.8-2.4,6.1-2.6
		c-0.4,2.2-1.5,4.3-3,5.9c-1,1.1-2.5,1.8-4,1.9C16.5,21.9,16.1,21.8,15.8,21.5z"/>
	<path id="Path_498" class="st0" d="M13.4,10.4c1.5,2.4,1,3.9,0.7,4.1c-0.1,0.1-0.2,0.1-0.4,0.1c-0.4,0-1.7-0.2-3.1-2.3
		C9.7,10.7,9.3,9,9.4,7.3C11,7.9,12.4,9,13.4,10.4z"/>
	<path id="Path_499" class="st0" d="M16.1,10.7c-0.1,0-0.1,0-0.2,0c-0.3-0.1-0.9-1.4,0.3-3.6c0.8-1.3,1.9-2.3,3.3-3
		c0.2,1.5-0.1,3-0.7,4.4C17.9,10.1,16.8,10.7,16.1,10.7z"/>
	<path id="Path_500" class="st0" d="M13.4,6.6L13.4,6.6c-0.4,0-1.5-0.5-2.1-2.6C11,2.7,11,1.3,11.5,0c1.1,0.9,1.9,2,2.3,3.3
		C14.5,5.6,13.6,6.5,13.4,6.6z"/>
</g>
</svg>
