<?xml version="1.0" encoding="utf-8"?>
<!-- Generator: Adobe Illustrator 26.2.1, SVG Export Plug-In . SVG Version: 6.00 Build 0)  -->
<svg version="1.1" id="Group_339" xmlns="http://www.w3.org/2000/svg" xmlns:xlink="http://www.w3.org/1999/xlink" x="0px" y="0px"
	 viewBox="0 0 23.9 33.4" style="enable-background:new 0 0 23.9 33.4;" xml:space="preserve">
<style type="text/css">
	.st0{fill:#987F5B;}
</style>
<g id="Group_338">
	<path id="Path_487" class="st0" d="M23.6,32.7c-5.5-0.6-9.6-2.9-12.1-6.9c-3.5-5.7-2.8-13.2-1-18.4c0.1-0.2,0-0.4-0.2-0.5
		c-0.2-0.1-0.4,0-0.5,0.2c0,0,0,0,0,0c-1.9,5.4-2.6,13.2,1.1,19.1c2.6,4.1,6.8,6.6,12.6,7.2c0,0,0,0,0,0c0.2,0,0.4-0.2,0.4-0.4
		C23.9,32.8,23.8,32.7,23.6,32.7L23.6,32.7z"/>
	<path id="Path_488" class="st0" d="M10.5,28.8c-0.3,0-0.5,0-0.8,0c-2,0.1-3.9,0.6-5.6,1.6c1.7,1.5,3.7,2.5,6,2.8
		c0.3,0,0.7,0.1,1,0.1c2.9,0,4-1.4,4-1.8c-0.1-0.5-0.4-1-0.8-1.3C13.2,29.4,11.9,28.9,10.5,28.8z"/>
	<path id="Path_489" class="st0" d="M13.3,27.1C13.3,27.1,13.3,27.1,13.3,27.1c0.6,0,2.4-0.8,3-4.4c0.3-2.2-0.2-4.5-1.2-6.5
		c-1.6,1.6-2.7,3.6-3.2,5.8C11.3,25.6,12.8,27,13.3,27.1z"/>
	<path id="Path_490" class="st0" d="M8.1,21.5c0.3-0.5,0.3-1,0.2-1.6c-0.4-1.3-1.1-2.5-2.2-3.4C4.4,15.1,2.2,14.2,0,14
		c0.4,2.2,1.5,4.3,3,5.9c1,1.1,2.5,1.8,4,1.9C7.4,21.9,7.8,21.8,8.1,21.5L8.1,21.5z"/>
	<path id="Path_491" class="st0" d="M10.5,10.4c-1.5,2.4-1,3.9-0.7,4.1c0.1,0.1,0.2,0.1,0.4,0.1c0.4,0,1.7-0.2,3.1-2.3
		c0.9-1.5,1.3-3.2,1.2-4.9C12.9,7.9,11.5,9,10.5,10.4L10.5,10.4z"/>
	<path id="Path_492" class="st0" d="M7.8,10.7c0.1,0,0.1,0,0.2,0c0.3-0.1,0.9-1.4-0.3-3.6c-0.8-1.3-1.9-2.3-3.3-3
		c-0.2,1.5,0.1,3,0.7,4.4C6,10.1,7.1,10.7,7.8,10.7L7.8,10.7z"/>
	<path id="Path_493" class="st0" d="M10.5,6.6L10.5,6.6L10.5,6.6c0.4,0,1.5-0.5,2.1-2.6c0.3-1.3,0.3-2.7-0.1-4
		c-1.1,0.9-1.9,2-2.3,3.3C9.4,5.6,10.3,6.5,10.5,6.6z"/>
</g>
</svg>
