<svg id="Group_200" data-name="Group 200" xmlns="http://www.w3.org/2000/svg" xmlns:xlink="http://www.w3.org/1999/xlink" width="115" height="115" viewBox="0 0 115 115">
  <defs>
    <clipPath id="clip-path">
      <rect id="Rectangle_46" data-name="Rectangle 46" width="115" height="115" fill="#987f5b"/>
    </clipPath>
  </defs>
  <path id="Path_148" data-name="Path 148" d="M57.5,102.615l-3.344-.121-.725,1.141-.724,1.141-.737,1.162-.738,1.162,6.274,7.9,6.256-7.907-.735-1.158-.736-1.158-.726-1.144-.726-1.143Zm22.552-6.03L77.1,98.144l-.057,1.348-.056,1.347-.058,1.376-.058,1.377,9.354,3.732,1.507-10-1.223-.639-1.222-.638-1.194-.624L82.9,94.8ZM30.91,95.421l-1.2.626-1.217.635-1.217.636,1.532,10.019,9.317-3.741-.058-1.378-.058-1.379-.056-1.346L37.9,98.146l-2.938-1.558-2.852-1.794ZM7.677,86.227l10,1.506.638-1.222.639-1.222.624-1.194L20.2,82.9l-1.786-2.846L16.856,77.1l-1.348-.056-1.347-.057-1.376-.058-1.376-.058Zm94.54-9.3-1.379.058-1.346.057-1.347.056L96.588,80.04l-1.794,2.852.627,1.2.626,1.2.636,1.217.636,1.217,10.019-1.532L103.6,76.872Zm3.717-24.958-1.158.735-1.144.726-1.144.726.126,3.338-.121,3.344,1.141.724,1.141.725,1.162.737,1.162.738,7.9-6.275-7.906-6.255ZM0,57.508l7.907,6.255,1.158-.735,1.158-.735,1.144-.726,1.143-.726L12.386,57.5l.121-3.344-1.141-.724-1.141-.725L9.062,51.97,7.9,51.233Zm7.662-28.7L11.4,38.128l1.378-.058,1.378-.059,1.346-.057,1.347-.056,1.558-2.938,1.794-2.852-.626-1.2-.626-1.2L18.317,28.5l-.636-1.217Zm89.023-.32-.639,1.222-.624,1.194L94.8,32.1l1.786,2.847L98.144,37.9l1.348.057,1.348.057,1.376.058,1.376.058,3.732-9.354-10-1.506ZM27.267,17.676l1.222.639,1.222.639,1.194.624L32.1,20.2l2.846-1.786L37.9,16.856l.057-1.347.056-1.347.058-1.376.058-1.376L28.773,7.676Zm49.6-6.271.058,1.378.058,1.379.056,1.346.057,1.347,2.938,1.558,2.851,1.794,1.2-.626,1.2-.626,1.217-.635,1.217-.636L86.19,7.663ZM57.492,0,51.238,7.907l.735,1.158.735,1.158.726,1.144.726,1.143,3.338-.125,3.344.121.725-1.141.724-1.141.738-1.162L63.767,7.9Z" fill="#987f5b"/>
  <path id="Path_149" data-name="Path 149" d="M78.464,105.83l-4.012,9.243-8.079-6.011.41-1.307.41-1.308.405-1.291.4-1.292,3.253-.741,3.2-.982.994.914.994.914,1.011.931ZM99.047,90.2l1.112,10.063L90.2,99.06l-.3-1.345-.3-1.345-.294-1.313-.293-1.314,2.432-2.262,2.287-2.469,1.319.295,1.319.294,1.339.3ZM109.072,66.37l6.019,8.06-9.259,4.038-.932-1.014-.932-1.014-.911-.991-.911-.99.988-3.208L103.876,68l1.285-.4,1.286-.4,1.313-.412Zm-3.243-25.644,9.244,4.012-6.012,8.079-1.307-.41L106.446,52l-1.291-.405-1.291-.4-.742-3.254-.981-3.2.914-.994.914-.994.93-1.012ZM90.2,20.142l10.063-1.112-1.2,9.957-1.345.3-1.345.3-1.314.293-1.313.294-2.262-2.432-2.469-2.288.294-1.318.294-1.319.3-1.339ZM66.37,10.118,74.43,4.1l4.038,9.259-1.014.933-1.014.932-.991.91-.991.911-3.208-.988L68,15.314l-.4-1.285-.4-1.285-.412-1.313ZM40.726,13.36l4.012-9.244,8.079,6.012-.41,1.307L52,12.743l-.4,1.291-.405,1.291-3.253.742-3.2.981-.994-.914-.994-.914-1.012-.931ZM20.142,28.99,19.031,18.927l9.957,1.2.3,1.345.3,1.345.294,1.314.294,1.313-2.432,2.262-2.287,2.469-1.319-.294-1.318-.294-1.339-.3ZM10.118,52.819,4.1,44.76l9.258-4.038.933,1.014.932,1.014.911.991.91.991-.987,3.208-.741,3.252-1.285.4-1.285.4-1.313.412ZM13.36,78.464,4.116,74.452l6.012-8.079,1.308.41,1.307.41,1.291.405,1.291.4.742,3.254.981,3.2-.914.994-.914.994-.93,1.012ZM28.99,99.047l-10.063,1.112,1.2-9.958,1.346-.3,1.345-.3,1.314-.293,1.313-.294,2.263,2.432,2.468,2.288-.294,1.318-.294,1.319-.3,1.338Zm23.829,10.025-8.06,6.019-4.038-9.258,1.014-.933,1.014-.932.991-.911.991-.91,3.208.988,3.252.741.4,1.285.4,1.285.412,1.313Z" transform="translate(-2.095 -2.095)" fill="#987f5b" fill-rule="evenodd"/>
  <g id="Group_199" data-name="Group 199">
    <g id="Group_198" data-name="Group 198" clip-path="url(#clip-path)">
      <path id="Path_150" data-name="Path 150" d="M68.567,74.4a2.613,2.613,0,0,0,1.841-.752,2.542,2.542,0,0,0,0-3.63,2.628,2.628,0,0,0-3.681,0,2.542,2.542,0,0,0,0,3.63,2.613,2.613,0,0,0,1.841.752" transform="translate(-34.751 -36.491)" fill="#987f5b" fill-rule="evenodd"/>
      <path id="Path_151" data-name="Path 151" d="M51.285,114.542a2.541,2.541,0,0,0,0-3.63,2.627,2.627,0,0,0-3.681,0,2.541,2.541,0,0,0,0,3.63,2.628,2.628,0,0,0,3.681,0" transform="translate(-24.677 -58.034)" fill="#987f5b" fill-rule="evenodd"/>
      <path id="Path_152" data-name="Path 152" d="M76.9,78.689a1.087,1.087,0,0,0,1.523,0h0q.192-.19.384-.361T79.188,78c.133-.106.271-.209.412-.309s.285-.2.432-.291A9.639,9.639,0,0,1,82.477,76.3a9.776,9.776,0,0,1,2.761-.395h0v0a9.785,9.785,0,0,1,1.944.194,9.6,9.6,0,0,1,1.811.555c.1.039.189.08.282.122s.183.085.272.129a9.5,9.5,0,0,1,1.325.794,9.791,9.791,0,0,1,1.185,1h0q.192.188.365.378c.116.127.226.253.329.38s.213.268.314.406.2.282.294.427a9.361,9.361,0,0,1,1.523,5.133h0a14.792,14.792,0,0,1-.135,2.059,9.526,9.526,0,0,1-.486,1.987q-.056.15-.116.294c-.041.1-.082.188-.125.277a5.076,5.076,0,0,1-.815,1.228,4.137,4.137,0,0,1-1.183.907,5.152,5.152,0,0,0-2.052,1.849,4.421,4.421,0,0,0-.685,2.209,3.691,3.691,0,0,0,.058.76,3.2,3.2,0,0,0,.208.695c0,.011.01.022.015.033l.016.033a2.785,2.785,0,0,0,.39.621,2.53,2.53,0,0,0,.539.486,2.561,2.561,0,0,0,1.458.431,3.831,3.831,0,0,0,1.835-.54.588.588,0,0,1,.633.114,5.161,5.161,0,0,1,.7.643,7.483,7.483,0,0,0,1.173,1.054,2.675,2.675,0,0,0,3.062,0,7.442,7.442,0,0,0,1.174-1.054,5.188,5.188,0,0,1,.7-.643.588.588,0,0,1,.633-.114,3.829,3.829,0,0,0,1.835.54,2.557,2.557,0,0,0,2.023-.945,2.787,2.787,0,0,0,.4-.659l.013-.033.012-.033a3.261,3.261,0,0,0,.188-.666,3.67,3.67,0,0,0,.052-.723,4.426,4.426,0,0,0-.68-2.2,5.136,5.136,0,0,0-2.039-1.846h0l-.016-.009-.016-.008a4.1,4.1,0,0,1-.428-.254,3.986,3.986,0,0,1-.381-.292h0a4.142,4.142,0,0,1-.352-.342,4.389,4.389,0,0,1-.309-.375,6.78,6.78,0,0,1-1.087-2.564,13.662,13.662,0,0,1-.286-2.914h0a9.357,9.357,0,0,1,.759-3.7c.04-.094.081-.186.124-.277s.086-.18.131-.268a9.273,9.273,0,0,1,.8-1.306,9.739,9.739,0,0,1,1.011-1.169h0c.128-.126.256-.247.384-.361s.256-.222.385-.325.271-.209.412-.309.285-.2.432-.291a9.634,9.634,0,0,1,2.445-1.107,9.767,9.767,0,0,1,2.76-.395h0v0a9.777,9.777,0,0,1,1.944.194,9.6,9.6,0,0,1,1.811.555c.1.039.189.08.281.122s.183.085.272.129a9.5,9.5,0,0,1,1.325.794,9.869,9.869,0,0,1,1.185,1,1.087,1.087,0,0,0,1.523,0,1.053,1.053,0,0,0,0-1.5,11.711,11.711,0,0,0-1.439-1.206,12.063,12.063,0,0,0-1.635-.976c-.113-.055-.225-.109-.338-.16s-.227-.1-.341-.149a11.89,11.89,0,0,0-4.588-.915h0v0h0a11.866,11.866,0,0,0-6.367,1.841q-.266.17-.524.352t-.506.381q-.256.2-.494.413t-.452.421h0a11.593,11.593,0,0,0-1.223,1.419,11.712,11.712,0,0,0-.989,1.613c-.056.11-.11.222-.163.334s-.1.223-.15.335a11.447,11.447,0,0,0-.927,4.526h0a15.479,15.479,0,0,0,.372,3.51,8.794,8.794,0,0,0,1.413,3.213,6.8,6.8,0,0,0,.459.559,6.274,6.274,0,0,0,.521.506h0a6.228,6.228,0,0,0,.58.447,6.5,6.5,0,0,0,.646.385l.007,0,.007,0h0l.007,0,.008,0h0a3.058,3.058,0,0,1,1.182,1.031,2.3,2.3,0,0,1,.393,1.192,1.67,1.67,0,0,1-.017.289,1.172,1.172,0,0,1-.064.252l-.008.018-.008.018a.782.782,0,0,1-.084.151.407.407,0,0,1-.1.1.529.529,0,0,1-.39.052,2.094,2.094,0,0,1-.639-.252,2.4,2.4,0,0,0-2.27-.227,5.848,5.848,0,0,0-1.678,1.365c-.212.219-.425.439-.622.6a.638.638,0,0,1-1.05,0c-.2-.165-.41-.385-.622-.6a5.848,5.848,0,0,0-1.678-1.365,2.4,2.4,0,0,0-2.27.227,2.087,2.087,0,0,1-.639.252.53.53,0,0,1-.39-.052.421.421,0,0,1-.094-.088.685.685,0,0,1-.078-.127l-.007-.018-.008-.018a1.147,1.147,0,0,1-.076-.266,1.633,1.633,0,0,1-.021-.309,2.307,2.307,0,0,1,.393-1.192,3.06,3.06,0,0,1,1.182-1.031,6.275,6.275,0,0,0,1.765-1.337,7.17,7.17,0,0,0,1.192-1.776c.06-.124.116-.248.169-.372s.1-.249.149-.373a11.48,11.48,0,0,0,.584-2.365,17.021,17.021,0,0,0,.163-2.412h0a11.471,11.471,0,0,0-1.868-6.279q-.17-.261-.357-.516t-.386-.5q-.207-.253-.419-.486t-.427-.446h0a11.667,11.667,0,0,0-1.438-1.206,12.091,12.091,0,0,0-1.635-.976c-.113-.055-.226-.109-.339-.16s-.227-.1-.34-.149a11.89,11.89,0,0,0-4.588-.915h0v0h0a11.866,11.866,0,0,0-6.367,1.841q-.266.17-.523.352t-.506.381c-.171.136-.336.274-.494.413s-.309.279-.452.421h0a1.051,1.051,0,0,0,0,1.5" transform="translate(-40.344 -38.868)" fill="#987f5b" fill-rule="evenodd"/>
      <path id="Path_153" data-name="Path 153" d="M168.672,74.4a2.614,2.614,0,0,0,1.841-.752,2.542,2.542,0,0,0,0-3.63,2.628,2.628,0,0,0-3.681,0,2.542,2.542,0,0,0,0,3.63,2.613,2.613,0,0,0,1.841.752" transform="translate(-87.488 -36.491)" fill="#987f5b" fill-rule="evenodd"/>
      <path id="Path_154" data-name="Path 154" d="M187.794,110.16a2.614,2.614,0,0,0-1.841.752,2.542,2.542,0,0,0,0,3.63,2.629,2.629,0,0,0,3.681,0,2.542,2.542,0,0,0,0-3.63,2.615,2.615,0,0,0-1.841-.752" transform="translate(-97.561 -58.034)" fill="#987f5b" fill-rule="evenodd"/>
      <path id="Path_155" data-name="Path 155" d="M73.283,29.96a43.324,43.324,0,1,0,43.323,43.324A43.329,43.329,0,0,0,73.283,29.96m28.4,24.113q.178-.845.357-1.691c.8-3.819,2.039,2.46,1.684,4.241q-.346,1.732-.832,3.344t-1.1,3.1c-1.484,3.6-.876,2.869-4.812,1.9-4.021-.991-5.348-3.845-1.19-3.477l1.65.146,1.65.146a1.079,1.079,0,0,0,.736-.208,1.053,1.053,0,0,0,.407-.631h0q.363-1.718.725-3.436t.725-3.436m-15.8,13.872h0v0A5.717,5.717,0,0,1,81.862,66.3a5.64,5.64,0,0,1-1.224-1.787,5.509,5.509,0,0,1-.449-2.183h0a4.091,4.091,0,0,1,.411-1.872,3.428,3.428,0,0,1,1.119-1.273,5.538,5.538,0,0,1,1.853-.8,9.745,9.745,0,0,1,2.315-.257v0h0v0a9.76,9.76,0,0,1,2.316.257,5.553,5.553,0,0,1,1.853.8,3.435,3.435,0,0,1,1.119,1.273,4.1,4.1,0,0,1,.41,1.872h0a5.542,5.542,0,0,1-.1,1.051,5.47,5.47,0,0,1-.289.987l-.011.026-.011.027a5.584,5.584,0,0,1-.537,1.006,5.719,5.719,0,0,1-4.751,2.522v0Zm6.7,2.749c2.259,1.941,2.783,1.722.323,3.738-2.593,2.125-2.173,1.332-3.244-1.485-1.206-3.171-1.707-6.232,2.921-2.253m1.526-1.5c-3.3-2.836-1.953-3.323,1.736-2.413,2.65.653,3.621.14,1.822,2.6-1.65,2.258-1.561,1.529-3.558-.189M87.577,39.4c12.17,4.937,2.307,5.832-5.524,6.572-2.169.206-.937-1.367-.937-3.2h0a13.913,13.913,0,0,0-.311-2.945c-1.07-4.934,2.989-1.96,6.772-.425M67.6,42.767h0a11.641,11.641,0,0,1,.478-3.344,9.2,9.2,0,0,1,1.3-2.711,6.132,6.132,0,0,1,1.775-1.692,4.094,4.094,0,0,1,2.129-.62v0h0v0a4.086,4.086,0,0,1,2.126.62,6.137,6.137,0,0,1,1.774,1.693l.025.033.026.032a9.262,9.262,0,0,1,1.271,2.689,11.644,11.644,0,0,1,.465,3.3h0a11.639,11.639,0,0,1-.478,3.344,9.2,9.2,0,0,1-1.3,2.711,6.126,6.126,0,0,1-1.775,1.692,4.1,4.1,0,0,1-2.129.62v0h0v0a4.087,4.087,0,0,1-2.126-.62,6.129,6.129,0,0,1-1.774-1.693,9.215,9.215,0,0,1-1.307-2.713,11.59,11.59,0,0,1-.48-3.341h0ZM58.988,39.4c3.785-1.535,7.842-4.509,6.772.425a13.89,13.89,0,0,0-.312,2.945h0c0,1.833,1.23,3.406-.937,3.2-8.73-.826-18.542-1.291-5.523-6.572M64.7,48.116c3.579.309,2.073,2.318,5.451,4.274a6.209,6.209,0,0,0,3.136.861v0h0v0a6.2,6.2,0,0,0,3.132-.861c2.608-1.511,2.477-4.017,5.453-4.274,5.727-.494,20.861-7.617,18.344,4.318q-.4,1.891-.8,3.782-.177.844-.356,1.688L98.7,59.592l-.922-.081-.923-.082-2-.176-2-.176a5.366,5.366,0,0,0-.7-.889,5.942,5.942,0,0,0-.873-.738,7.588,7.588,0,0,0-2.452-1.089,11.866,11.866,0,0,0-2.955-.35v0h0v0a11.868,11.868,0,0,0-2.955.35,7.591,7.591,0,0,0-2.451,1.089,5.549,5.549,0,0,0-1.784,2,6.159,6.159,0,0,0-.654,2.882h0a7.635,7.635,0,0,0,.616,3.014A7.726,7.726,0,0,0,80.338,67.8a7.85,7.85,0,0,0,2.493,1.656,7.94,7.94,0,0,0,3.057.608v0h0v0l.193,0c.064,0,.128,0,.192-.007l.343.9.344.9c1.777,4.673.391,6.785-2.455,7.729s-7.154.719-11.222.719v0h0c-3.753,0-8.113.354-11.111-.389-3.081-.765-4.809-2.67-2.88-7.23l.5-1.315.5-1.315.192.007.193,0v0h0v0a7.944,7.944,0,0,0,3.056-.608A7.856,7.856,0,0,0,66.227,67.8a7.733,7.733,0,0,0,1.679-2.459,7.639,7.639,0,0,0,.616-3.014h0a6.165,6.165,0,0,0-.654-2.882,5.548,5.548,0,0,0-1.784-2,7.59,7.59,0,0,0-2.451-1.089,11.873,11.873,0,0,0-2.956-.35v0h0v0a11.869,11.869,0,0,0-2.955.35,7.592,7.592,0,0,0-2.451,1.089,6,6,0,0,0-.873.738,5.374,5.374,0,0,0-.7.89l-2.439.216-2.439.215-.479.042-.479.043-.185-.879q-.092-.439-.185-.879l-.968-4.591C43.868,40.657,57.861,47.527,64.7,48.116M53.714,70.985c3.511-2.949,4.665-1.924,4.233-.787l-.205.539c-1.149,3.023-1.412,4.928-2.075,5.422-1.069.8-5.854-1.9-1.952-5.175M52.2,69.471c-2.215,1.861-2.162,2.737-4.02.277-2.054-2.719-.8-2.142,2.11-2.859,4.124-1.017,5.7-.6,1.91,2.581M56.65,66.3a5.681,5.681,0,0,1-.724-.873,5.6,5.6,0,0,1-.537-1c0-.01-.007-.019-.011-.029l-.012-.028a5.515,5.515,0,0,1-.388-2.037h0a4.1,4.1,0,0,1,.411-1.872,3.428,3.428,0,0,1,1.119-1.273,5.542,5.542,0,0,1,1.853-.8,9.749,9.749,0,0,1,2.315-.257v0h0v0a9.757,9.757,0,0,1,2.316.257,5.554,5.554,0,0,1,1.853.8,3.431,3.431,0,0,1,1.119,1.273,4.1,4.1,0,0,1,.41,1.872h0a5.509,5.509,0,0,1-.449,2.183A5.642,5.642,0,0,1,64.7,66.3a5.718,5.718,0,0,1-4.026,1.649v0h0v0A5.72,5.72,0,0,1,56.65,66.3m-12.5-13.918.356,1.691q.363,1.718.725,3.436t.725,3.436h0a1.055,1.055,0,0,0,.407.631,1.079,1.079,0,0,0,.736.208l1.65-.146,1.65-.146c4.159-.367,2.832,2.487-1.19,3.477-3.935.971-3.328,1.706-4.812-1.9q-.614-1.491-1.1-3.1t-.833-3.344c-.326-1.63.853-8.185,1.685-4.241M40.919,88.733c2.457,11.881-2.616-.9-3.644-4.24a36.811,36.811,0,0,1-.436-20.014c2.042-7.848,2.186-11.241,4.394-3.9q.515,1.71,1.168,3.293a32.968,32.968,0,0,0,2.427,4.77c5.316,8.6-2.55,2.05-4.617,10.483-.694,2.832,0,6.2.708,9.612m5.4,4.253c.224,1.258.45,2.522.6,3.751.308,2.594.935,4.535-1.491,1.9-1.967-2.135-1.243-3.171-1.606-5.962-.188-1.443-.491-2.91-.793-4.368-.625-3.024-1.242-6.007-.578-8.468.979-3.629,5.474-6.6,8.621-3.966,3.271,2.736-4.086,2.587-5.275,7.721-.648,2.8-.064,6.077.526,9.389m7.594,12.533c-5.086-3.02-4.319-2.966-4.763-8.1-.136-1.579-.424-3.192-.71-4.8-.539-3.026-1.072-6.022-.377-8.506a6.462,6.462,0,0,1,9.279-4.254c4.382,2.033-.292,1.012-2.638,4.09-1.238,1.625-1.97,3.922-1.97,7.158a11.927,11.927,0,0,0,1.544,6.432c3.309,5.3,5.151.887,5.151,7.2,0,5.143-1.527,3.148-5.514.78m9.719,4.059c-2.806-.732-2.05-1.451-2.05-4.209,0-2.666-.949-3.615,1.844-3.4,2.482.195,1.887.356,1.887,2.842v2.752h0a7.724,7.724,0,0,0,.106,1.28c.3,1.773-.021,1.192-1.791.73m.087-15.214a6.318,6.318,0,0,1-.966-.233,2.885,2.885,0,0,1-1.467-1.011,3.317,3.317,0,0,1-.56-2.011h0a2.7,2.7,0,0,1,1.349-2.662c3.49-1.7,3.234.007,3.234,2.663,0,2.556.958,3.677-1.593,3.253m15.385,13.2h0a5.594,5.594,0,0,1-.46,2.224,5.8,5.8,0,0,1-1.254,1.826,5.893,5.893,0,0,1-1.852,1.236,5.8,5.8,0,0,1-2.255.454h0v0h0v0h0a5.806,5.806,0,0,1-2.256-.454,5.892,5.892,0,0,1-1.852-1.236,5.8,5.8,0,0,1-1.253-1.826,5.593,5.593,0,0,1-.46-2.224h0V97.747c0-3.746-2.125-9.933,2.37-9.7,2.393.126,2.752,3.369,2.789,7.226.042,4.372-.419,9.533-.419,11.839a1.078,1.078,0,0,0,2.154,0c0-2.3-.43-7.323-.408-11.661.019-3.949.36-7.332,2.777-7.587C80.955,87.425,79.1,94.936,79.1,97.9v9.668ZM77.607,85.786c-1.444.134-2.839.295-3.992.323h-.332c-.471,0-.985-.028-1.529-.07s-1.117-.1-1.708-.157c-.711-.071-1.445-.143-2.177-.2s-1.461-.092-2.163-.092a9.574,9.574,0,0,0-5.01,1.066,4.8,4.8,0,0,0-2.122,4.453h0a5.366,5.366,0,0,0,.963,3.329,5.05,5.05,0,0,0,2.521,1.7,8.389,8.389,0,0,0,1.253.308c1.968.335,2-.426,2,1.825,0,2.126-.262,1.734-2.412,1.511a16.183,16.183,0,0,1-2.2-.368c-.274-.067-.541-.143-.8-.227s-.51-.177-.752-.279A6.314,6.314,0,0,1,56.066,96.3a9.974,9.974,0,0,1-1.18-5.187c0-3.8,1.308-6,3.336-7.248S63,82.306,65.872,82.28l.044.006.044.005a1.055,1.055,0,0,0,.168.006,1.086,1.086,0,0,0,.162-.019H66.3c.645,0,1.255.009,1.845.023s1.16.033,1.725.052c.609.02,1.215.04,1.792.055s1.125.025,1.623.025h0v0c.96,0,1.967-.027,2.991-.059s2.067-.065,3.1-.079a1.062,1.062,0,0,0,.123.008,1.119,1.119,0,0,0,.125-.007h.014l.014,0c1.117-.01,2.217.007,3.266.083a17.738,17.738,0,0,1,2.95.434q.412.1.8.227t.752.278A6.314,6.314,0,0,1,90.5,85.923,9.972,9.972,0,0,1,91.68,91.11c0,3.68-1.225,5.855-3.141,7.125-1.941,1.288-7.285,3.524-7.285.045,0-3.088,2.334-1.179,4.748-2.8a4.84,4.84,0,0,0,1.99-4.367h0a5.367,5.367,0,0,0-.963-3.329,5.055,5.055,0,0,0-2.521-1.7,8.376,8.376,0,0,0-1.253-.308,12.268,12.268,0,0,0-1.358-.15,29.279,29.279,0,0,0-4.286.163m5.241,2.069a6.373,6.373,0,0,1,.966.234,2.888,2.888,0,0,1,1.467,1.01,3.315,3.315,0,0,1,.561,2.011h0a2.868,2.868,0,0,1-1.35,2.661c-3.489,2.138-3.234-.006-3.234-2.663,0-2.556-.957-3.677,1.594-3.253m.087,21.724c-1.771.462-2.088,1.043-1.791-.731a7.771,7.771,0,0,0,.106-1.28h0v-2.757c0-2.492-.6-2.659,1.9-2.842,2.778-.2,1.831.762,1.831,3.406,0,2.756.754,3.472-2.05,4.2M98.013,92.622c-.289,1.62-.579,3.248-.714,4.841-.436,5.143.407,5.068-4.7,8.089-3.968,2.347-5.46,4.309-5.46-.793,0-5.274,2-2.786,4.809-6.609a11.588,11.588,0,0,0,1.884-7.04,11.927,11.927,0,0,0-1.543-6.432c-2.205-3.534-7.593-3.121-3.762-4.951,3.934-1.879,8.155-1.21,9.813,4.218.769,2.518.222,5.581-.329,8.676m5.415-4.312c-.306,1.48-.614,2.969-.8,4.432-.359,2.813.4,3.865-1.586,6.009-2.447,2.635-1.812.636-1.509-1.958.146-1.247.374-2.53.6-3.807.6-3.389,1.2-6.745.48-9.583-1.334-5.25-9.151-4.914-5.863-7.726,3.264-2.791,8.017-.247,9.237,4.092.7,2.474.073,5.487-.559,8.54m2.1.424c.723-3.494,1.436-6.942.655-9.814-2.3-8.468-10.676-1.721-5.37-10.384a32.921,32.921,0,0,0,2.365-4.667q.652-1.583,1.168-3.293c2.225-7.393,2.168-7.451,5.17,3.144a36.808,36.808,0,0,1-.265,20.888c-1.482,4.764-5.922,14.758-3.723,4.127" transform="translate(-15.783 -15.783)" fill="#987f5b" fill-rule="evenodd"/>
      <path id="Path_156" data-name="Path 156" d="M114.1,50.1a11.426,11.426,0,0,0,.218,2.245,8.166,8.166,0,0,0,.592,1.851,4.357,4.357,0,0,0,1.157,1.552,2.432,2.432,0,0,0,1.541.57v0h0v0a2.431,2.431,0,0,0,1.541-.57,4.352,4.352,0,0,0,1.156-1.552,8.143,8.143,0,0,0,.593-1.851,11.437,11.437,0,0,0,.218-2.246h0a11.43,11.43,0,0,0-.218-2.245,8.17,8.17,0,0,0-.592-1.85,4.354,4.354,0,0,0-1.157-1.553,2.428,2.428,0,0,0-1.541-.569v0h0v0a2.428,2.428,0,0,0-1.541.569A4.346,4.346,0,0,0,114.909,46a8.15,8.15,0,0,0-.593,1.851A11.44,11.44,0,0,0,114.1,50.1h0Zm2.148,0h0a9.267,9.267,0,0,1,.165-1.771,6.179,6.179,0,0,1,.451-1.429,3.347,3.347,0,0,1,.391-.659c.127-.156.247-.242.354-.242v0h0v0c.107,0,.228.086.354.242a3.337,3.337,0,0,1,.391.66,6.2,6.2,0,0,1,.45,1.429,9.227,9.227,0,0,1,.166,1.77h0a9.233,9.233,0,0,1-.166,1.771,6.192,6.192,0,0,1-.45,1.429,3.351,3.351,0,0,1-.391.66c-.127.156-.247.242-.354.242v0h0v0c-.107,0-.228-.086-.354-.242a3.352,3.352,0,0,1-.391-.66,6.153,6.153,0,0,1-.451-1.429,9.227,9.227,0,0,1-.166-1.77h0Z" transform="translate(-60.107 -23.114)" fill="#987f5b" fill-rule="evenodd"/>
    </g>
  </g>
</svg>
