<svg id="Group_202" data-name="Group 202" xmlns="http://www.w3.org/2000/svg" xmlns:xlink="http://www.w3.org/1999/xlink" width="115" height="115" viewBox="0 0 115 115">
  <defs>
    <clipPath id="clip-path">
      <rect id="Rectangle_47" data-name="Rectangle 47" width="115" height="115" fill="#987f5b"/>
    </clipPath>
  </defs>
  <g id="Group_201" data-name="Group 201" clip-path="url(#clip-path)">
    <path id="Path_157" data-name="Path 157" d="M77.285,84.279h0a9.6,9.6,0,0,1,6.764-2.8v0a9.581,9.581,0,0,1,9.565,9.571h0a12.49,12.49,0,0,1-.522,3.832,4.887,4.887,0,0,1-2.316,2.958,4.976,4.976,0,0,0-2.681,4.275,2.576,2.576,0,0,0,2.629,2.884A3.583,3.583,0,0,0,92.4,104.5c.372-.142.71-.084,1.466.707,1.953,2.045,3.339,1.694,4.38.911s1.735-2,2.3-1.673c2.283,1.294,3.871.24,4.318-1.437a4.616,4.616,0,0,0-2.533-5.169h0a3.87,3.87,0,0,1-.435-.257,4.04,4.04,0,0,1-.4-.31h0A5.641,5.641,0,0,1,99.857,94.4a10.44,10.44,0,0,1,2.433-10.12h0a9.6,9.6,0,0,1,6.764-2.8v0a9.582,9.582,0,0,1,6.763,2.807,1.069,1.069,0,0,0,1.511-1.511,11.767,11.767,0,0,0-8.274-3.424v0h0a11.772,11.772,0,0,0-8.275,3.428h0a11.766,11.766,0,0,0-3.424,8.274h0a14.884,14.884,0,0,0,.553,4.237,7.568,7.568,0,0,0,2.19,3.6h0a2.254,2.254,0,0,0,.644.486c.3.183.587.344.587.358h0l.008,0,.007,0h0a3.163,3.163,0,0,1,1.091.92,2.323,2.323,0,0,1,.471,1.316c.033,1.211-.467.927-1.278.605a2.731,2.731,0,0,0-3.142.383c-1.223,1.073-1.579,1.61-1.935,1.61s-.712-.537-1.934-1.61a2.567,2.567,0,0,0-2.965-.434c-.772.31-1.29.652-1.436-.243-.272-1.663,1.111-2.077,2.562-3.272s2.97-3.172,2.97-7.96h0a11.673,11.673,0,0,0-.9-4.479,11.824,11.824,0,0,0-2.528-3.8h0a11.767,11.767,0,0,0-8.273-3.424v0h0a11.772,11.772,0,0,0-8.275,3.428h0a1.069,1.069,0,0,0,1.511,1.511" transform="translate(-39.113 -41.124)" fill="#987f5b" fill-rule="evenodd"/>
    <path id="Path_158" data-name="Path 158" d="M77.422,38.435a38.987,38.987,0,1,0,38.987,38.987A38.991,38.991,0,0,0,77.422,38.435m28.242,23.1c.219-1.054.772-4.783,1.621-1.68.939,3.43.148,6.1-.936,9.2-1.9,5.426-1.432,4.419-5.35,3.44-3.412-.853-5.727-3.9-1.18-3.5,1.707.152,4.127.806,4.406-.55h0ZM64.858,65.952h0v0a7.456,7.456,0,0,1,3.846.935c4.644,2.874.9,4.117-.652,3.916a27.616,27.616,0,0,0-3.45-.2,28.518,28.518,0,0,0-3.045.155c-1.772.193-5.144-1.021-.547-3.869a7.449,7.449,0,0,1,3.845-.935v0Zm0,9.2h0v0a5.5,5.5,0,0,1-2.928-.838c-2.331-1.453-2.751-2.146.044-1.892.8.073,1.693.113,2.629.113a28.571,28.571,0,0,0,3.056-.156c2.8-.307,2.8.216.209,1.881a5.562,5.562,0,0,1-3.01.892v0ZM62.6,77.346c-.576,1.535-1.67,5.689-2.335,6.19-1.3.98-5.764-2.165-2-5.373,2.527-2.154,5.048-2.72,4.334-.817m-5.653-.223c-2.138,1.822-2.151,2.928-4.116.288-2.207-2.963-.517-2.3,2.161-2.969,4.025-1.006,5.967-.736,1.956,2.681M54.439,87.958c.949-5.73.515-5.135,5.276-1.809,2.3,1.611,8.883,7.661,2.26,8.056-6.773.4-8.54-.184-7.536-6.247M77.494,97.5c.408,0,15.308-1.751,12.732.482-2.775,2.4-9.732,4.829-12.79,4.829-3.135,0-9.884-2.384-12.705-4.829-2.576-2.233,7.6-.5,12.764-.482m-9.089-5.288a18.478,18.478,0,0,1,3.467-1.254,5.428,5.428,0,0,1,3.153.08,4.364,4.364,0,0,1,2.365,2.46,4.366,4.366,0,0,1,2.385-2.466,5.472,5.472,0,0,1,3.175-.065,18.833,18.833,0,0,1,3.485,1.272c6.033,2.75.363,2.434-3.581,3.127a29.987,29.987,0,0,1-5.427.5A31.116,31.116,0,0,1,72,95.32c-3.919-.7-9.639-.368-3.594-3.111m26.236-6.06c4.761-3.326,4.326-3.922,5.275,1.808,1,6.063-.762,6.65-7.535,6.247-6.624-.394-.045-6.445,2.26-8.056m-4.778-11h0v0a5.567,5.567,0,0,1-3.031-.9c-2.644-1.713-2.572-2.2.236-1.881a28.244,28.244,0,0,0,3.17.169c.906,0,1.768-.038,2.55-.106,2.8-.245,2.273.512-.007,1.9a5.621,5.621,0,0,1-2.917.826v0Zm0-9.2h0v0a7.455,7.455,0,0,1,3.846.935c4.511,2.792,1.138,4.032-.524,3.858a28.813,28.813,0,0,0-2.948-.145,27.232,27.232,0,0,0-3.557.217c-1.819.244-5.248-1.093-.665-3.931a7.453,7.453,0,0,1,3.845-.935v0Zm6.713,12.211c3.765,3.207-.7,6.353-2,5.373-.664-.5-1.759-4.655-2.335-6.19-.714-1.9,1.806-1.336,4.334.817m1.32-1.04c-4.011-3.417-2.069-3.687,1.956-2.681,2.678.67,4.368.006,2.161,2.969-1.966,2.64-1.979,1.534-4.117-.288M90.629,45.294c4.418,1.4,9.39,4.574,6.309,5.762A57.78,57.78,0,0,1,89.713,52.1c-5.421.664-7.961-9.612.916-6.807M80.814,42.9c1.849,1.791,2.393,4.559,2.393,7.058h0c0,2.517-.537,5.265-2.39,7.059-3.911,3.788-2.633-4.773-2.633-7.059s-1.278-10.847,2.629-7.06m-9.3,7.059c0-2.5.547-5.275,2.389-7.059,3.912-3.788,2.634,4.773,2.634,7.06s1.278,10.847-2.63,7.059c-1.84-1.783-2.392-4.561-2.393-7.058h0Zm-7.3-4.666c8.876-2.806,6.337,7.47.916,6.807A57.794,57.794,0,0,1,57.9,51.056c-3.081-1.187,1.892-4.366,6.309-5.762M56.6,53.147c4.8.28,12.687,1.243,15.979,5.1A5.792,5.792,0,0,0,77.36,60.71v0h0v0a6.009,6.009,0,0,0,4.8-2.473c3.375-3.8,10.754-4.786,15.588-5.206,4.251-.369,7.577.824,6.321,6.858-1.377,6.619-3.01,7.518-5.258,6.762s-5.112-3.167-8.949-3.167v0h0v0a9.354,9.354,0,0,0-5.389,1.5,5.66,5.66,0,0,0-2.39,4.857h0c0,7.534,8.019,5.52,9.356,11.466a6.054,6.054,0,0,1-.01,3.415c-1.539,4-2.617,4.769-3.777,4.554s-2.4-1.417-4.271-1.356a7.886,7.886,0,0,0-2.975,1.029,7.337,7.337,0,0,1-3.044.982v0a7.009,7.009,0,0,1-2.875-.959,7.09,7.09,0,0,0-2.917-.962,6.623,6.623,0,0,0-2.777.9,3.872,3.872,0,0,1-2.453.626,3.958,3.958,0,0,1-2-1.819,22.826,22.826,0,0,1-1.287-2.391,5.459,5.459,0,0,1,.008-3.731c1.642-6.111,9.582-4.236,9.582-11.754h0a5.662,5.662,0,0,0-2.391-4.857,9.351,9.351,0,0,0-5.39-1.5v0h0v0c-3.535,0-6.411,2.355-8.719,3.184s-4.049.134-5.319-5.966c-1.327-6.374,1.686-7.794,5.777-7.555m-9.04,6.71c.849-3.1,1.4.626,1.621,1.68l1.438,6.912h0c.278,1.356,2.7.7,4.406.55,4.548-.406,2.233,2.644-1.18,3.5-3.917.979-3.452,1.986-5.35-3.44-1.085-3.1-1.875-5.77-.936-9.2M43.433,81.693a28.546,28.546,0,0,1-.072-6.562,38.643,38.643,0,0,1,1.129-6.177c.127-.474.349-.621.643-.506a3.119,3.119,0,0,1,1.08,1.063A22.136,22.136,0,0,1,47.6,71.746c.5.9,1.025,1.923,1.559,3.013s1.172,2.432,1.794,3.939A37.019,37.019,0,0,1,52.6,83.531a17.9,17.9,0,0,1,.642,4.929c-.191,6.036-1.773,3.636-3.373-.146-.682-1.611-1.324-3.348-1.91-5.129s-1.119-3.606-1.579-5.393-.851-3.536-1.154-5.166a31.772,31.772,0,0,0,.287,4.759,46.971,46.971,0,0,0,.941,4.951c.406,1.669.895,3.352,1.443,5.028,2.163,6.628.336,5.633-2.564.371a17.347,17.347,0,0,1-1.9-6.043M65.07,105.255c-1.593-.739-3.238-1.605-4.862-2.537s-3.227-1.927-4.736-2.922-2.925-1.989-4.174-2.917a30.067,30.067,0,0,0,3.455,3.377c1.363,1.158,2.9,2.33,4.526,3.459s3.323,2.216,5.007,3.2c7.995,4.692,2.25,2.822-2.813.9a25.774,25.774,0,0,1-6.219-3.393,24.417,24.417,0,0,1-4.633-4.49,21.182,21.182,0,0,1-2.953-5c-.178-.4-.026-.647.37-.761a4.871,4.871,0,0,1,1.843.021,23.344,23.344,0,0,1,2.818.636c1.047.3,2.172.667,3.295,1.083,1.107.411,2.507.979,3.985,1.683a35.412,35.412,0,0,1,4.456,2.5,16.478,16.478,0,0,1,3.644,3.181c3.761,4.665.222,3.474-3.008,1.978m17.7,5.827a7.375,7.375,0,0,1-5.345,1.812v0h0v0a7.341,7.341,0,0,1-5.345-1.809c-2.868-2.962,3.614-1.994,5.346-1.994s8.213-.968,5.346,1.991m-5.346-3.238c-1.729,0-8.213.968-5.346-1.991a7.387,7.387,0,0,1,5.345-1.812v0h0v0a7.383,7.383,0,0,1,5.346,1.809c2.868,2.962-3.614,1.994-5.346,1.994m29.756-12.907a21.182,21.182,0,0,1-2.953,5,24.389,24.389,0,0,1-4.634,4.489,25.746,25.746,0,0,1-6.218,3.394c-5.064,1.922-10.808,3.792-2.813-.9,1.683-.988,3.385-2.075,5.007-3.2s3.163-2.3,4.526-3.46a30.072,30.072,0,0,0,3.455-3.377c-1.249.929-2.665,1.923-4.174,2.917s-3.112,1.99-4.736,2.922-3.269,1.8-4.862,2.537c-3.23,1.5-6.769,2.687-3.008-1.978a16.5,16.5,0,0,1,3.643-3.181,35.383,35.383,0,0,1,4.457-2.5c1.478-.7,2.878-1.272,3.985-1.683,1.122-.417,2.248-.787,3.3-1.083a23.364,23.364,0,0,1,2.818-.636,4.872,4.872,0,0,1,1.843-.021c.4.114.547.358.37.761m2.334-7.2c-2.9,5.262-4.727,6.257-2.563-.371.547-1.676,1.036-3.359,1.442-5.028a46.849,46.849,0,0,0,.941-4.951,31.9,31.9,0,0,0,.287-4.759c-.3,1.63-.693,3.379-1.154,5.166s-.992,3.613-1.579,5.393-1.229,3.518-1.91,5.129c-1.6,3.782-3.182,6.182-3.373.146a17.9,17.9,0,0,1,.642-4.929,37.019,37.019,0,0,1,1.649-4.834c.622-1.507,1.268-2.864,1.794-3.939s1.061-2.116,1.559-3.013a22.225,22.225,0,0,1,1.385-2.236,3.127,3.127,0,0,1,1.08-1.063c.295-.115.516.032.643.506a38.641,38.641,0,0,1,1.129,6.177,28.546,28.546,0,0,1-.072,6.562,17.337,17.337,0,0,1-1.9,6.043" transform="translate(-19.922 -19.922)" fill="#987f5b" fill-rule="evenodd"/>
    <path id="Path_159" data-name="Path 159" d="M86.5,106.119l2.224,4.652,2.224,4.652-6.477-1.735L78,111.952l4.253-2.917Zm22.852-85.285-2.224-4.652-2.224-4.652,6.476,1.735L117.858,15l-4.252,2.917Z" transform="translate(-40.428 -5.976)" fill="#987f5b" fill-rule="evenodd"/>
    <path id="Path_160" data-name="Path 160" d="M109.354,106.119l4.252,2.917,4.253,2.917-6.477,1.735-6.476,1.735,2.224-4.652ZM86.5,20.834,82.25,17.917,78,15l6.477-1.735,6.476-1.735-2.224,4.652Z" transform="translate(-40.428 -5.976)" fill="#987f5b" fill-rule="evenodd"/>
    <path id="Path_161" data-name="Path 161" d="M105.936,105.936l5.14.4,5.141.4-4.741,4.741-4.741,4.741-.4-5.141ZM43.5,43.5l-5.141-.4-5.141-.4,4.741-4.741L42.7,33.221l.4,5.141Z" transform="translate(-17.219 -17.219)" fill="#987f5b" fill-rule="evenodd"/>
    <path id="Path_162" data-name="Path 162" d="M106.119,109.354l4.652-2.224,4.652-2.224-1.735,6.476-1.735,6.477-2.917-4.253ZM20.834,86.5l-4.652,2.224L11.53,90.951l1.735-6.476L15,78l2.917,4.252Z" transform="translate(-5.976 -40.428)" fill="#987f5b" fill-rule="evenodd"/>
    <path id="Path_163" data-name="Path 163" d="M106.119,86.5l2.917-4.252L111.952,78l1.735,6.477,1.735,6.476-4.652-2.224ZM20.834,109.354l-2.917,4.252L15,117.859l-1.735-6.476-1.735-6.477,4.652,2.224Z" transform="translate(-5.976 -40.428)" fill="#987f5b" fill-rule="evenodd"/>
    <path id="Path_164" data-name="Path 164" d="M105.936,43.5l.4-5.141.4-5.14,4.741,4.741,4.741,4.741-5.141.4ZM43.5,105.936l-.4,5.141-.4,5.141-4.741-4.741-4.741-4.741,5.141-.4Z" transform="translate(-17.22 -17.22)" fill="#987f5b" fill-rule="evenodd"/>
    <path id="Path_165" data-name="Path 165" d="M110.824,115l-3.973-8.175-3.973-8.174h3.458l.515,1.06,3.973,8.174L114.8,99.71l.515-1.06h3.459l-3.974,8.174Zm0-115L114.8,8.175l3.974,8.175h-3.459l-.515-1.06-3.973-8.175L106.85,15.29l-.515,1.06h-3.458l3.973-8.175Z" transform="translate(-53.324)" fill="#987f5b" fill-rule="evenodd"/>
    <path id="Path_166" data-name="Path 166" d="M117.188,115.587l-7.528-5.093-7.529-5.093,2.995-1.729.977.66,7.528,5.093-.646-9.066-.084-1.175,3-1.729.646,9.066Zm-57.5-99.593,7.528,5.093,7.529,5.092-3,1.73-.976-.66-7.529-5.093.646,9.067.083,1.175L60.98,34.127l-.646-9.066Z" transform="translate(-30.938 -8.29)" fill="#987f5b" fill-rule="evenodd"/>
    <path id="Path_167" data-name="Path 167" d="M115.586,117.188l-9.066-.646-9.066-.646,1.729-3,1.175.084,9.066.646-5.093-7.529-.66-.976,1.729-3,5.093,7.529Zm-99.593-57.5,9.067.646,9.066.646-1.729,3-1.175-.084-9.066-.646,5.093,7.529.66.975-1.729,3-5.093-7.529Z" transform="translate(-8.29 -30.938)" fill="#987f5b" fill-rule="evenodd"/>
    <path id="Path_168" data-name="Path 168" d="M115,110.824l-8.175,3.973-8.174,3.974v-3.459l1.059-.515,8.175-3.973-8.175-3.973-1.059-.515v-3.459l8.174,3.974Zm-115,0,8.175-3.973,8.174-3.974v3.459l-1.059.515-8.175,3.973L15.29,114.8l1.059.515v3.459L8.175,114.8Z" transform="translate(0 -53.324)" fill="#987f5b" fill-rule="evenodd"/>
    <path id="Path_169" data-name="Path 169" d="M115.586,59.688l-5.093,7.529L105.4,74.745l-1.729-3,.66-.976,5.093-7.529-9.066.646-1.175.084-1.729-3,9.066-.646Zm-99.593,57.5,5.093-7.529,5.093-7.529,1.73,3-.66.975-5.093,7.529,9.067-.646L32.4,112.9l1.729,3-9.066.646Z" transform="translate(-8.29 -30.938)" fill="#987f5b" fill-rule="evenodd"/>
    <path id="Path_170" data-name="Path 170" d="M117.188,15.993l-.646,9.067-.646,9.066L112.9,32.4l.084-1.175.646-9.067L106.1,27.248l-.975.66-3-1.729,7.529-5.093Zm-57.5,99.593.646-9.067.646-9.067,3,1.729-.083,1.175-.646,9.067,7.529-5.093.976-.66,2.995,1.729-7.529,5.094Z" transform="translate(-30.938 -8.29)" fill="#987f5b" fill-rule="evenodd"/>
  </g>
</svg>
