<?xml version="1.0" encoding="utf-8"?>
<!-- Generator: Adobe Illustrator 26.2.1, SVG Export Plug-In . SVG Version: 6.00 Build 0)  -->
<svg version="1.1" id="Layer_1" xmlns="http://www.w3.org/2000/svg" xmlns:xlink="http://www.w3.org/1999/xlink" x="0px" y="0px"
	 viewBox="0 0 221.5 10.5" style="enable-background:new 0 0 221.5 10.5;" xml:space="preserve">
<style type="text/css">
	.st0{fill-rule:evenodd;clip-rule:evenodd;fill:#3C3C3C;}
</style>
<g id="a">
</g>
<g id="b">
	<g id="c">
		<g id="d" transform="translate(-435.743 -1704.471)">
			<path id="e" class="st0" d="M607.9,1709.3H485.1c-0.1,0-0.1,0.1-0.1,0.1c0,0.1,0.1,0.2,0.1,0.2c0.4,0.1,9.8,1.5,15.7,5.3
				c0,0,0.1,0,0.1,0c0.1,0,0.1-0.1,0.1-0.1c0-0.1,2.5-3.2,8.2-3.2h74.6c5.7,0,8.2,3.2,8.2,3.2c0,0,0,0.1,0.1,0.1c0,0,0.1,0,0.1,0
				c5.9-3.8,15.3-5.3,15.7-5.3c0.1,0,0.1-0.1,0.1-0.2C608.1,1709.4,608,1709.3,607.9,1709.3"/>
			<path id="f" class="st0" d="M655.5,1704.5h-218l-1.8,1.9h221.5L655.5,1704.5z"/>
		</g>
	</g>
</g>
</svg>
