<?xml version="1.0" encoding="utf-8"?>
<!-- Generator: Adobe Illustrator 26.2.1, SVG Export Plug-In . SVG Version: 6.00 Build 0)  -->
<svg version="1.1" id="Layer_1" xmlns="http://www.w3.org/2000/svg" xmlns:xlink="http://www.w3.org/1999/xlink" x="0px" y="0px"
	 viewBox="0 0 274.9 10.5" style="enable-background:new 0 0 274.9 10.5;" xml:space="preserve">
<style type="text/css">
	.st0{fill-rule:evenodd;clip-rule:evenodd;fill:#3C3C3C;}
</style>
<g id="a">
</g>
<g id="b">
	<g id="c">
		<g id="d" transform="translate(-409.04 -1631)">
			<path id="e" class="st0" d="M469.2,1634.4c-5.7,0-8.2-3.2-8.2-3.2c0,0,0-0.1-0.1-0.1s-0.1,0-0.1,0c-5.9,3.8-15.3,5.3-15.7,5.3
				c-0.1,0-0.1,0.1-0.1,0.2c0,0.1,0.1,0.1,0.1,0.1h111.4c-1.5-0.8-3-1.5-4.5-2.3C552,1634.4,469.2,1634.4,469.2,1634.4z"/>
			<path id="f" class="st0" d="M647.9,1636.4c-0.4-0.1-9.8-1.5-15.7-5.3c0,0-0.1,0-0.1,0c-0.1,0-0.1,0.1-0.1,0.1
				c0,0.1-2.5,3.2-8.2,3.2H541c-1.5,0.8-2.9,1.6-4.5,2.3h111.4c0.1,0,0.1-0.1,0.1-0.1C648,1636.4,648,1636.4,647.9,1636.4"/>
			<path id="g" class="st0" d="M409,1639.7l1.8,1.9h271.4l1.8-1.9H409z"/>
		</g>
	</g>
</g>
</svg>
