<svg id="Group_209" data-name="Group 209" xmlns="http://www.w3.org/2000/svg" xmlns:xlink="http://www.w3.org/1999/xlink" width="115.001" height="115" viewBox="0 0 115.001 115">
  <defs>
    <clipPath id="clip-path">
      <rect id="Rectangle_50" data-name="Rectangle 50" width="115.001" height="115" fill="#987f5b"/>
    </clipPath>
  </defs>
  <g id="Group_208" data-name="Group 208" clip-path="url(#clip-path)">
    <path id="Path_208" data-name="Path 208" d="M107.251,86.251l-1.97-1.186.792-1.316,1.952-4.058a13.288,13.288,0,0,0,.74-1.8c.116-.329.234-.657.362-.981l.63-1.732-2.194-.69L106.39,77.7c-.415.977-.855,1.88-1.282,2.753-.23.473-.461.946-.685,1.422l-.51,1.086-6.158-3.213.528-1.018a46.33,46.33,0,0,0,5.109-19.221l.048-1.15,6.92.3-.074,1.172c-.025.386-.042.772-.059,1.159a22.646,22.646,0,0,1-.338,3.487l-.4,2.663c-.034.226-.068.455-.107.685l2.25.5c.047-.274.087-.554.129-.843.048-.337.1-.675.157-1.01l.455-3.009c.116-1.321.181-2.753.244-4.138.028-.627.056-1.255.09-1.881l2.3.124c-.033.62-.061,1.241-.09,1.861-.065,1.41-.131,2.868-.259,4.308l-.468,3.108c-.06.34-.1.653-.15.966a14.888,14.888,0,0,1-.438,2.215l-.306,1.021-6.749-1.489.362-1.191a10.841,10.841,0,0,0,.307-1.561l.416-2.725a20.9,20.9,0,0,0,.3-3.19.162.162,0,0,1,0-.031l-2.3-.1a48.7,48.7,0,0,1-4.788,18.008l2.02,1.054c.06-.125.121-.249.182-.373.418-.857.836-1.713,1.209-2.59l1.908-5.216,6.581,2.073-1.464,4.019c-.129.327-.237.631-.345.934a14.79,14.79,0,0,1-.854,2.067l-1.985,4.114Z" fill="#987f5b"/>
    <path id="Path_209" data-name="Path 209" d="M86.257,107.248l-1.2-1.963.868-.525A36.321,36.321,0,0,0,90.069,102l2.489-1.87c.421-.364.88-.783,1.345-1.206l-1.554-1.7-.824.749a12.478,12.478,0,0,1-1.238.987c-.2.147-.407.295-.6.451-.406.29-.762.563-1.118.833a21.748,21.748,0,0,1-2.73,1.869l-.943.515-3.686-5.773,2.1-1.279,3-2.252c.777-.614,1.521-1.3,2.309-2.027.466-.431.935-.862,1.411-1.279.42-.48.852-.949,1.285-1.417.725-.786,1.41-1.529,2.04-2.327l2.3-3.068,1.215-2.007,5.775,3.684-.516.945a22,22,0,0,1-1.864,2.726c-.272.358-.545.715-.806,1.079-.189.241-.337.445-.486.65a12.242,12.242,0,0,1-1,1.25l-.732.808L98.928,93.9c.424-.465.847-.931,1.259-1.406l1.792-2.4a36.229,36.229,0,0,0,2.783-4.178l.523-.863,1.962,1.2-.515.853a38.5,38.5,0,0,1-2.938,4.4l-1.818,2.424c-.517.6-1,1.131-1.478,1.659L99.08,97.163,93.99,92.5l2.288-2.517a10.557,10.557,0,0,0,.828-1.042c.166-.23.332-.456.507-.678.242-.34.527-.715.814-1.091.393-.516.774-1.014,1.115-1.522l-1.936-1.236-.057.094-2.374,3.178c-.7.893-1.452,1.7-2.176,2.487-.435.471-.87.943-1.292,1.427l-.111.111c-.482.42-.952.854-1.422,1.287-.785.726-1.6,1.476-2.468,2.161l-3.3,2.445,1.239,1.942c.51-.343,1.009-.724,1.526-1.119.374-.285.748-.568,1.129-.842.179-.142.4-.308.632-.474a10.208,10.208,0,0,0,1.028-.813l2.536-2.3,4.666,5.088L95.59,100.5c-.527.48-1.052.959-1.59,1.424l-2.518,1.892a38.527,38.527,0,0,1-4.369,2.912Z" fill="#987f5b"/>
    <path id="Path_210" data-name="Path 210" d="M57.562,115l-.125-2.3c.634-.034,1.267-.063,1.9-.092,1.378-.062,2.8-.127,4.188-.251l2.968-.451c.3-.054.638-.1.973-.151.291-.042.575-.082.851-.13l-.5-2.249c-.235.039-.467.074-.7.108l-2.705.412a22.688,22.688,0,0,1-3.432.327c-.387.018-.775.035-1.161.059l-1.172.075-.3-6.919,1.151-.048a46.32,46.32,0,0,0,19.22-5.111l1.019-.526,3.212,6.158-1.086.509c-.473.222-.943.452-1.412.681-.877.428-1.783.871-2.709,1.264l-3.261,1.2.69,2.194,1.759-.641c.3-.118.625-.235.953-.351a12.991,12.991,0,0,0,1.754-.718l4.192-2.023,1.226-.743,1.186,1.971-1.317.792L80.687,110.1a14.877,14.877,0,0,1-2.025.835c-.3.107-.607.214-.9.333l-4.047,1.475-2.074-6.582,5.272-1.929c.815-.348,1.693-.778,2.543-1.192l.364-.178-1.054-2.02a48.7,48.7,0,0,1-18.007,4.788l.1,2.3h.034a20.868,20.868,0,0,0,3.137-.295l2.764-.422a11.192,11.192,0,0,0,1.574-.309l1.188-.361,1.491,6.747-1.022.307a14.854,14.854,0,0,1-2.224.439c-.31.045-.62.089-.928.144l-3.067.464c-1.5.136-2.955.2-4.357.266-.628.029-1.255.057-1.881.091" fill="#987f5b"/>
    <path id="Path_211" data-name="Path 211" d="M57.438,115c-.627-.034-1.254-.062-1.881-.091-1.4-.064-2.854-.13-4.288-.258l-3.108-.468c-.337-.06-.647-.1-.956-.148a14.83,14.83,0,0,1-2.224-.439l-1.021-.307,1.489-6.747,1.188.361a11.336,11.336,0,0,0,1.574.309l2.714.413a21.031,21.031,0,0,0,3.189.3h.033l.1-2.3a48.7,48.7,0,0,1-18.007-4.788l-1.054,2.02.372.181c.857.419,1.713.838,2.59,1.21l5.217,1.908-2.074,6.582-4.018-1.465c-.328-.129-.632-.236-.935-.344a14.744,14.744,0,0,1-2.066-.856l-4.114-1.983-1.408-.841,1.186-1.971,1.317.792,4.058,1.952a13.023,13.023,0,0,0,1.8.74c.329.116.658.233.982.361l1.731.631.691-2.193L37.3,106.389c-.977-.413-1.88-.854-2.754-1.28-.473-.231-.945-.462-1.421-.686l-1.086-.509,3.212-6.158,1.018.526a46.332,46.332,0,0,0,19.221,5.111l1.15.048-.3,6.919-1.171-.075c-.387-.024-.774-.041-1.161-.059a22.865,22.865,0,0,1-3.485-.336l-2.654-.4c-.229-.034-.461-.069-.695-.108l-.5,2.249c.276.048.56.088.85.13.335.048.669.1,1,.155l3.009.456c1.315.115,2.74.18,4.118.242.634.029,1.268.058,1.9.092Z" fill="#987f5b"/>
    <path id="Path_212" data-name="Path 212" d="M28.743,107.248l-.863-.521a38.727,38.727,0,0,1-4.394-2.932l-2.425-1.819c-.6-.516-1.129-.995-1.656-1.476l-1.568-1.42L22.5,93.992,25.02,96.28a10.469,10.469,0,0,0,1.044.828c.228.166.455.33.675.5.34.243.714.526,1.088.811.517.395,1.017.776,1.526,1.119l1.236-1.936-.094-.058-3.178-2.373c-.894-.705-1.707-1.455-2.492-2.181-.47-.433-.94-.867-1.422-1.287l-.111-.111c-.421-.483-.855-.953-1.289-1.423-.725-.785-1.474-1.6-2.159-2.466l-2.447-3.3-1.94,1.239c.343.509.724,1.009,1.118,1.526.285.374.569.748.843,1.129.143.179.308.406.473.634a10.478,10.478,0,0,0,.815,1.028l2.3,2.533-5.089,4.666L14.5,95.594c-.481-.528-.961-1.054-1.427-1.594l-1.892-2.518a38.367,38.367,0,0,1-2.907-4.363l-.523-.862,1.964-1.2.528.872a36.368,36.368,0,0,0,2.752,4.137l1.868,2.49c.368.42.785.881,1.208,1.344l1.7-1.553-.749-.824a12.413,12.413,0,0,1-.985-1.237c-.148-.2-.3-.407-.452-.6-.291-.4-.563-.762-.835-1.118a21.952,21.952,0,0,1-1.867-2.73l-.516-.945,5.775-3.684,1.278,2.1,2.252,3c.612.775,1.3,1.519,2.026,2.307.431.467.862.934,1.28,1.413.478.417.945.848,1.412,1.279.788.727,1.532,1.413,2.332,2.045l3.068,2.3,2.007,1.215-3.686,5.774-.943-.515a21.748,21.748,0,0,1-2.73-1.869c-.356-.27-.713-.543-1.076-.8-.239-.187-.443-.336-.646-.483a12.705,12.705,0,0,1-1.254-1l-.807-.735-1.554,1.7c.465.423.931.847,1.407,1.257l2.4,1.793a36.341,36.341,0,0,0,4.169,2.778l.872.528Z" fill="#987f5b"/>
    <path id="Path_213" data-name="Path 213" d="M7.748,86.251l-.792-1.316L4.9,80.688a14.622,14.622,0,0,1-.834-2.025c-.108-.3-.215-.607-.334-.906L2.259,73.71l6.582-2.073,1.929,5.271c.351.822.77,1.678,1.188,2.535.061.125.122.249.182.373l2.02-1.054A48.725,48.725,0,0,1,9.371,60.754l-2.3.1v.033a20.867,20.867,0,0,0,.3,3.137l.422,2.766A11.351,11.351,0,0,0,8.1,68.363l.361,1.189L1.711,71.041,1.4,70.02a14.865,14.865,0,0,1-.439-2.225c-.044-.309-.089-.619-.144-.927L.357,63.8c-.136-1.5-.2-2.954-.266-4.357C.062,58.816.034,58.189,0,57.562l2.3-.124c.035.633.063,1.267.093,1.9.062,1.379.127,2.8.251,4.188L3.091,66.5c.054.3.1.638.151.973.042.291.082.575.13.851l2.249-.5c-.039-.234-.074-.466-.108-.695L5.1,64.422a22.7,22.7,0,0,1-.328-3.434c-.017-.386-.034-.774-.058-1.16L4.64,58.656l6.919-.3.048,1.15a46.342,46.342,0,0,0,5.11,19.221l.527,1.018L11.086,82.96l-.51-1.086c-.223-.476-.454-.949-.685-1.421-.426-.874-.867-1.777-1.259-2.7l-1.2-3.262-2.194.69.641,1.76c.118.3.234.624.351.953a12.938,12.938,0,0,0,.718,1.754L8.976,83.84l.743,1.225Z" fill="#987f5b"/>
    <path id="Path_214" data-name="Path 214" d="M2.3,57.562,0,57.437c.034-.626.063-1.254.091-1.881.064-1.4.13-2.854.258-4.287l.468-3.108c.06-.337.1-.647.149-.957A15,15,0,0,1,1.4,44.98l.308-1.021,6.746,1.489L8.1,46.637a11.009,11.009,0,0,0-.309,1.573l-.413,2.715a20.753,20.753,0,0,0-.3,3.188l0,.033,2.3.1a48.7,48.7,0,0,1,4.789-18.008L12.14,35.184c-.06.124-.12.248-.181.372-.418.857-.837,1.714-1.21,2.59L8.842,43.363,2.259,41.29l1.465-4.019c.129-.328.236-.631.344-.935a14.8,14.8,0,0,1,.856-2.066l1.984-4.114.841-1.407,1.97,1.186-.791,1.316L6.975,35.309a12.98,12.98,0,0,0-.739,1.8c-.117.329-.234.657-.362.981l-.631,1.731,2.194.691L8.611,37.3c.413-.977.855-1.88,1.281-2.754.231-.473.461-.945.685-1.421l.509-1.086,6.159,3.213-.527,1.018a46.339,46.339,0,0,0-5.111,19.221l-.048,1.15-6.919-.3.075-1.171c.025-.386.042-.774.059-1.161a22.878,22.878,0,0,1,.336-3.485l.4-2.653c.034-.229.068-.461.108-.7l-2.25-.5c-.047.276-.088.56-.13.851-.048.334-.1.669-.155,1l-.455,3.01c-.115,1.314-.181,2.739-.243,4.118-.029.634-.058,1.268-.092,1.9" fill="#987f5b"/>
    <path id="Path_215" data-name="Path 215" d="M18.137,33.793l-5.775-3.686.517-.943a21.856,21.856,0,0,1,1.867-2.731c.271-.355.543-.712.8-1.075.187-.239.335-.443.483-.647a12.665,12.665,0,0,1,1-1.253l.734-.807-1.7-1.554c-.423.465-.846.931-1.257,1.406L13.02,24.9a36.334,36.334,0,0,0-2.777,4.169l-.527.873-1.965-1.2.522-.863A38.594,38.594,0,0,1,11.2,23.487l1.819-2.425c.515-.6,1-1.129,1.476-1.656l1.419-1.57,5.09,4.667L18.72,25.021a10.5,10.5,0,0,0-.828,1.044c-.166.228-.331.454-.505.675-.242.34-.527.714-.812,1.087-.394.518-.775,1.017-1.118,1.527l1.937,1.236.057-.094,2.373-3.179c.7-.894,1.454-1.7,2.179-2.49.434-.471.869-.941,1.289-1.423l.112-.112c.481-.42.951-.853,1.421-1.287.786-.725,1.6-1.475,2.468-2.162l3.3-2.445-1.238-1.94c-.51.343-1.009.723-1.527,1.118-.374.284-.748.569-1.129.843-.179.142-.406.308-.633.473a10.506,10.506,0,0,0-1.028.814l-2.534,2.3-4.667-5.09L19.405,14.5c.528-.481,1.056-.962,1.595-1.428l2.519-1.892a38.542,38.542,0,0,1,4.362-2.908l.862-.521,1.2,1.964-.872.528A36.1,36.1,0,0,0,24.931,13l-2.489,1.868c-.42.366-.881.785-1.346,1.207l1.554,1.7.824-.749a12.27,12.27,0,0,1,1.237-.985c.2-.149.408-.3.6-.452.405-.292.761-.564,1.117-.835a21.917,21.917,0,0,1,2.73-1.867l.944-.517,3.686,5.774-2.1,1.28-3,2.252c-.776.612-1.52,1.3-2.308,2.027-.467.431-.933.861-1.411,1.279-.419.478-.849.946-1.281,1.413-.727.787-1.414,1.531-2.044,2.331l-2.3,3.067Z" fill="#987f5b"/>
    <path id="Path_216" data-name="Path 216" d="M35.253,17.244,32.04,11.086l1.086-.51c.477-.223.949-.454,1.422-.685.873-.426,1.776-.867,2.7-1.259l3.263-1.2-.691-2.194-1.76.641c-.295.117-.624.234-.953.351a12.811,12.811,0,0,0-1.754.718L31.16,8.976l-1.225.743L28.749,7.748l1.316-.792L34.312,4.9a14.872,14.872,0,0,1,2.025-.834c.3-.107.607-.215.906-.333L41.29,2.259l2.073,6.582L38.092,10.77c-.822.351-1.678.77-2.535,1.188l-.373.182,1.054,2.02A48.725,48.725,0,0,1,54.246,9.371l-.1-2.3-.034,0a20.609,20.609,0,0,0-3.137.3l-2.765.422a11.051,11.051,0,0,0-1.574.309l-1.189.361L43.96,1.711,44.981,1.4A14.829,14.829,0,0,1,47.205.965c.309-.044.619-.089.927-.144L51.2.357c1.5-.137,2.953-.2,4.357-.266C56.184.062,56.811.033,57.438,0l.124,2.3c-.633.035-1.267.063-1.9.092-1.379.063-2.8.128-4.187.251l-2.969.452c-.3.054-.638.1-.973.15-.291.042-.574.083-.851.131l.5,2.249c.234-.04.466-.074.695-.108l2.7-.412a22.588,22.588,0,0,1,3.434-.328c.387-.017.774-.034,1.161-.059l1.171-.074.3,6.918-1.15.049a46.331,46.331,0,0,0-19.221,5.11Z" fill="#987f5b"/>
    <path id="Path_217" data-name="Path 217" d="M79.747,17.244l-1.019-.527a46.314,46.314,0,0,0-19.22-5.11l-1.151-.049.3-6.918,1.171.074c.386.025.774.042,1.161.059a22.742,22.742,0,0,1,3.484.337l2.653.4c.229.034.461.068.7.108l.5-2.249c-.277-.048-.561-.089-.852-.131-.334-.048-.669-.1-1-.155l-3.008-.455c-1.315-.115-2.741-.18-4.119-.243-.634-.029-1.267-.057-1.9-.092L57.562,0c.626.033,1.253.062,1.881.091,1.4.064,2.854.129,4.288.257l3.107.469c.337.059.647.1.957.148a14.853,14.853,0,0,1,2.224.439l1.022.307-1.49,6.747L68.362,8.1a11.051,11.051,0,0,0-1.574-.309l-2.712-.413a20.766,20.766,0,0,0-3.189-.3l-.034,0-.1,2.3A48.715,48.715,0,0,1,78.761,14.16l1.055-2.02-.364-.178c-.851-.415-1.729-.844-2.6-1.213L71.636,8.841,73.71,2.259l4.019,1.464c.327.129.63.237.933.344a14.939,14.939,0,0,1,2.068.856l4.114,1.984,1.407.841L85.065,9.719l-1.316-.792L79.69,6.975a12.742,12.742,0,0,0-1.8-.74c-.328-.117-.657-.234-.981-.362l-1.73-.63-.691,2.193L77.7,8.61c.979.415,1.885.858,2.762,1.286.47.229.939.458,1.412.68l1.086.51Z" fill="#987f5b"/>
    <path id="Path_218" data-name="Path 218" d="M96.863,33.793l-1.279-2.1-2.252-3c-.611-.774-1.3-1.516-2.021-2.3-.433-.468-.865-.937-1.285-1.417-.478-.418-.945-.848-1.411-1.279-.788-.727-1.533-1.415-2.333-2.046l-3.068-2.3-2.007-1.216,3.686-5.774.944.517a21.918,21.918,0,0,1,2.73,1.867c.356.271.712.543,1.076.8.238.186.441.334.644.482a12.351,12.351,0,0,1,1.256,1l.806.733,1.555-1.7c-.465-.423-.931-.846-1.406-1.256L90.1,13.02a36.671,36.671,0,0,0-4.173-2.78l-.868-.524,1.2-1.964.857.518a38.479,38.479,0,0,1,4.4,2.936l2.426,1.819c.6.513,1.124.992,1.651,1.472l1.573,1.422L92.5,21.009l-2.519-2.288a10.5,10.5,0,0,0-1.045-.83c-.227-.165-.454-.33-.674-.5-.339-.243-.713-.528-1.087-.812-.518-.4-1.016-.775-1.527-1.118L84.41,17.394l.095.058,3.178,2.373c.894.7,1.707,1.455,2.492,2.18.47.434.94.867,1.422,1.287l.111.112c.421.484.857.955,1.292,1.427.724.783,1.472,1.594,2.157,2.462l2.445,3.3,1.941-1.239c-.343-.509-.722-1.007-1.116-1.523-.286-.375-.571-.75-.845-1.133-.143-.179-.309-.407-.475-.635a10.583,10.583,0,0,0-.812-1.026L93.99,22.5l5.091-4.666L100.5,19.4c.481.528.962,1.056,1.429,1.6l1.892,2.519a38.356,38.356,0,0,1,2.914,4.372l.515.853-1.963,1.2-.522-.864A36.488,36.488,0,0,0,102,24.931l-1.867-2.489c-.366-.42-.785-.88-1.209-1.345l-1.694,1.554.748.823a12.226,12.226,0,0,1,.983,1.235c.15.2.3.409.454.607.293.407.566.764.838,1.121a21.864,21.864,0,0,1,1.864,2.727l.517.943Z" fill="#987f5b"/>
    <path id="Path_219" data-name="Path 219" d="M112.7,57.562c-.034-.626-.062-1.253-.09-1.881-.063-1.385-.128-2.817-.253-4.207l-.45-2.969c-.055-.306-.1-.644-.153-.981-.041-.288-.082-.569-.129-.842l-2.249.5c.039.231.073.459.106.685l.414,2.715a22.614,22.614,0,0,1,.329,3.435c.017.387.033.774.058,1.16l.074,1.171-6.919.3-.048-1.15a46.349,46.349,0,0,0-5.109-19.221l-.528-1.017,6.158-3.213.51,1.086c.223.476.454.949.685,1.421.427.874.867,1.777,1.259,2.7l1.2,3.263,2.193-.691-.641-1.76c-.117-.295-.235-.624-.351-.952a12.952,12.952,0,0,0-.718-1.755l-2.023-4.191-.742-1.226,1.969-1.186.792,1.317,2.056,4.247a14.676,14.676,0,0,1,.833,2.024c.108.3.215.607.333.906l1.475,4.047-6.58,2.073-1.931-5.271c-.35-.821-.769-1.678-1.187-2.535-.06-.124-.121-.248-.182-.372l-2.019,1.054a48.739,48.739,0,0,1,4.788,18.007l2.3-.1c0-.011,0-.022,0-.032a20.881,20.881,0,0,0-.295-3.138L107.21,48.2a10.88,10.88,0,0,0-.308-1.562l-.361-1.191,6.748-1.488.307,1.021a14.979,14.979,0,0,1,.438,2.214c.045.313.09.626.145.936l.464,3.069c.136,1.51.2,2.967.268,4.377.028.62.056,1.242.09,1.861Z" fill="#987f5b"/>
    <path id="Path_220" data-name="Path 220" d="M54.14,28.594q.581-1,1.081-2A24.241,24.241,0,0,0,57.5,20.157,24.28,24.28,0,0,0,59.78,26.6q.5,1,1.081,2c4.515,7.854,12.233,15.576,16.674,18.577.008-.216.011-.439.011-.658A20.051,20.051,0,0,0,62.085,26.994C61.991,20.157,57.5,13.5,57.5,13.5s-4.489,6.658-4.583,13.495A20.052,20.052,0,0,0,37.455,46.513c0,.219,0,.442.011.658,4.441-3,12.16-10.723,16.674-18.577" fill="#987f5b"/>
    <path id="Path_221" data-name="Path 221" d="M79.371,49.79a11.951,11.951,0,0,1-1.839-1.047c-.034-.027-.069-.048-.1-.075C72.677,45.417,64.3,36.906,60,28.595c-.076-.145-.145-.209-.22-.347a14.58,14.58,0,0,1-.765-1.559h0l0-.082c-1.377-2.256-2.689-.725-3.025.04l0,.042h-.005a14.969,14.969,0,0,1-.765,1.559c-.076.138-.144.242-.221.387-4.3,8.311-12.677,16.8-17.428,20.053-.034.028-.069.038-.1.065a11.772,11.772,0,0,1-1.838,1.042c1.515,1.439,1.673,3.723,1.6,6.023-.034,1.2-.137,2.422-.137,3.524,0,.262,0,.523.014.791.4,11.156,8.98,22.422,16.106,23.71a8.756,8.756,0,0,0,1.448.123C53.082,82.775,51.3,77.948,51.3,74V55.175c-2.176,1.081-6.1-.041-8.94-1.019-.1-.035-.249-.062-.339-.1l.705-4.008s-.016,0-.008-.007c.179-.158,3.056-2.665,6.018-3.01a5.894,5.894,0,0,1,6.544,3.017l-.091,1.418-.7,11.2.091.083,2.919,2.72,2.919-2.72.09-.083-.7-11.2-.089-1.418a5.9,5.9,0,0,1,6.548-3.017c2.961.345,5.847,2.852,6.026,3.01l.007.007.736,4.008c-.089.034-.133.061-.23.1-2.844.978-6.594,2.1-8.769,1.019V74c0,3.946-1.952,8.773-3.536,9.964a6.988,6.988,0,0,0,1.3-.124c7.127-1.288,15.7-12.553,16.1-23.709.013-.268.007-.53.007-.792,0-1.1-.1-2.32-.139-3.526-.07-2.3.086-4.585,1.6-6.025" fill="#987f5b"/>
    <path id="Path_222" data-name="Path 222" d="M79.516,31.872c4.092.005,5.824,2.258,6.038,5.958-3.328-.577-5.217-2.7-6.038-5.958" fill="#987f5b"/>
    <path id="Path_223" data-name="Path 223" d="M87.928,32.15c2.315,2.551,3.332,5.378,1.013,8.916-2.4-3.139-3.011-6.133-1.013-8.916" fill="#987f5b"/>
    <path id="Path_224" data-name="Path 224" d="M80.376,39.3c3.412-1.2,6.27-1.184,7.437,2.513-3.526,1.244-5.656-.288-7.437-2.513" fill="#987f5b"/>
    <path id="Path_225" data-name="Path 225" d="M84.348,43.786q5.409-.871,6.524,4.5-4.68.222-6.524-4.5" fill="#987f5b"/>
    <path id="Path_226" data-name="Path 226" d="M92.749,38.8c-2.5,2.508-2.434,5.517-.689,8.856,2.338-2.572,2.881-5.467.689-8.856" fill="#987f5b"/>
    <path id="Path_227" data-name="Path 227" d="M96.4,46.668c-3.136,2.083-3.715,5.041-2.8,8.511,2.93-1.645,4.244-4.254,2.8-8.511" fill="#987f5b"/>
    <path id="Path_228" data-name="Path 228" d="M86.5,49.541c.9,4.078,3.058,5.275,5.532,5.755.166-3.588-1.47-5.679-5.532-5.755" fill="#987f5b"/>
    <path id="Path_229" data-name="Path 229" d="M98.064,54.4a7.225,7.225,0,0,0-4.458,7.579c3.632-.861,5.365-3.195,4.458-7.579" fill="#987f5b"/>
    <path id="Path_230" data-name="Path 230" d="M87.306,54.8c3.721.993,4.862,3.62,4.6,7.133-3.25-1.147-4.624-3.639-4.6-7.133" fill="#987f5b"/>
    <path id="Path_231" data-name="Path 231" d="M87.153,61c-.555,4.037.606,6.451,3.04,7.66,1.289-4.1.143-6.565-3.04-7.66" fill="#987f5b"/>
    <path id="Path_232" data-name="Path 232" d="M98.064,62.377c-3.436,1.034-5.716,2.957-5.755,6.606,3.777-.058,5.545-2.435,5.755-6.606" fill="#987f5b"/>
    <path id="Path_233" data-name="Path 233" d="M96.24,70.772a7.189,7.189,0,0,0-6.971,5.147c3.607.524,6.058-.969,6.971-5.147" fill="#987f5b"/>
    <path id="Path_234" data-name="Path 234" d="M86.026,66.992c2.758,1.789,3.128,4.438,1.337,7.863a7.55,7.55,0,0,1-1.337-7.863" fill="#987f5b"/>
    <path id="Path_235" data-name="Path 235" d="M83.722,72.22c1.992,3.073,1.881,5.776-.811,8.025-1.545-3.162-1.182-5.812.811-8.025" fill="#987f5b"/>
    <path id="Path_236" data-name="Path 236" d="M84.651,81.8c2.756-3.55,5.668-3.966,8.633-3.323C90.877,81.76,88.092,83.3,84.651,81.8" fill="#987f5b"/>
    <path id="Path_237" data-name="Path 237" d="M80.045,76.878c-2.111,1.728-3.481,3.865-2.067,7.538,2.977-1.711,3.543-4.267,2.067-7.538" fill="#987f5b"/>
    <path id="Path_238" data-name="Path 238" d="M88.177,84.836c-3.161-1.217-6.129-1.037-8.754,1.621,3.1,2.155,6.011,1.453,8.754-1.621" fill="#987f5b"/>
    <path id="Path_239" data-name="Path 239" d="M75.347,80.653c-2.428,1.516-4.424,3.363-3.972,7.093,3.753-1.2,4.684-3.753,3.972-7.093" fill="#987f5b"/>
    <path id="Path_240" data-name="Path 240" d="M72.484,90.359c3.7-2.135,6.394-1.249,8.835.4q-4.823,3.932-8.835-.4" fill="#987f5b"/>
    <path id="Path_241" data-name="Path 241" d="M68.428,84.2c-3.359,1.02-4.981,3.027-5.188,5.836,3.624-.633,5.549-2.444,5.188-5.836" fill="#987f5b"/>
    <path id="Path_242" data-name="Path 242" d="M63.941,92.968c4.992-1.246,7.272.214,8.673,2.553q-5.958,2.088-8.673-2.553" fill="#987f5b"/>
    <path id="Path_243" data-name="Path 243" d="M53.1,97.507a8.981,8.981,0,0,1,.509-1.545,6.986,6.986,0,0,1,.842-1.433,7.672,7.672,0,0,1,2.5-2.076,10.112,10.112,0,0,1,2.994-1.034c.256-.047.523-.083.772-.114l.727-.1c.485-.057.966-.142,1.449-.214A46.353,46.353,0,0,0,68.6,89.69a40.209,40.209,0,0,0,5.479-2.08,35.962,35.962,0,0,0,5.088-2.922c.4-.287.8-.562,1.189-.866.194-.149.39-.3.583-.448l.569-.467.284-.234.276-.243.552-.487.536-.5c.179-.169.359-.337.529-.514a33.175,33.175,0,0,0,3.791-4.518,37.291,37.291,0,0,0,2.983-5.112,37.462,37.462,0,0,1-2.815,5.225,33.547,33.547,0,0,1-3.669,4.687c-.166.185-.342.361-.517.538l-.525.53-.544.512-.271.257-.28.247-.562.494c-.19.16-.384.317-.576.475-.381.323-.784.616-1.179.922a36.577,36.577,0,0,1-5.086,3.155,41.257,41.257,0,0,1-5.528,2.318,47.569,47.569,0,0,1-5.8,1.536c-.492.09-.982.194-1.477.27l-.741.122c-.24.039-.462.077-.691.127a8.741,8.741,0,0,0-2.56.98,5.757,5.757,0,0,0-2.965,4.165.809.809,0,0,1-1.587-.316l.006-.026Z" fill="#987f5b"/>
    <path id="Path_244" data-name="Path 244" d="M35.485,31.872c-4.093.005-5.825,2.258-6.039,5.958,3.329-.577,5.218-2.7,6.039-5.958" fill="#987f5b"/>
    <path id="Path_245" data-name="Path 245" d="M27.072,32.15c-2.315,2.551-3.332,5.378-1.013,8.916,2.405-3.139,3.011-6.133,1.013-8.916" fill="#987f5b"/>
    <path id="Path_246" data-name="Path 246" d="M34.625,39.3c-3.412-1.2-6.27-1.184-7.437,2.513,3.526,1.244,5.656-.288,7.437-2.513" fill="#987f5b"/>
    <path id="Path_247" data-name="Path 247" d="M30.653,43.786q-5.411-.871-6.525,4.5,4.682.222,6.525-4.5" fill="#987f5b"/>
    <path id="Path_248" data-name="Path 248" d="M22.252,38.8c2.5,2.508,2.434,5.517.689,8.856-2.338-2.572-2.881-5.467-.689-8.856" fill="#987f5b"/>
    <path id="Path_249" data-name="Path 249" d="M18.6,46.668c3.136,2.083,3.715,5.041,2.8,8.511-2.93-1.645-4.244-4.254-2.8-8.511" fill="#987f5b"/>
    <path id="Path_250" data-name="Path 250" d="M28.5,49.541c-.9,4.078-3.058,5.275-5.532,5.755-.166-3.588,1.47-5.679,5.532-5.755" fill="#987f5b"/>
    <path id="Path_251" data-name="Path 251" d="M16.937,54.4A7.225,7.225,0,0,1,21.4,61.977c-3.632-.861-5.366-3.195-4.458-7.579" fill="#987f5b"/>
    <path id="Path_252" data-name="Path 252" d="M27.694,54.8c-3.721.993-4.862,3.62-4.6,7.133,3.25-1.147,4.624-3.639,4.6-7.133" fill="#987f5b"/>
    <path id="Path_253" data-name="Path 253" d="M27.848,61c.555,4.037-.606,6.451-3.04,7.66-1.289-4.1-.143-6.565,3.04-7.66" fill="#987f5b"/>
    <path id="Path_254" data-name="Path 254" d="M16.937,62.377c3.436,1.034,5.716,2.957,5.755,6.606-3.777-.058-5.545-2.435-5.755-6.606" fill="#987f5b"/>
    <path id="Path_255" data-name="Path 255" d="M18.636,70.523a7.189,7.189,0,0,1,6.971,5.147c-3.607.524-6.058-.969-6.971-5.147" fill="#987f5b"/>
    <path id="Path_256" data-name="Path 256" d="M28.974,66.992c-2.758,1.789-3.128,4.438-1.337,7.863a7.55,7.55,0,0,0,1.337-7.863" fill="#987f5b"/>
    <path id="Path_257" data-name="Path 257" d="M31.279,72.22C29.287,75.293,29.4,78,32.09,80.245c1.545-3.162,1.182-5.812-.811-8.025" fill="#987f5b"/>
    <path id="Path_258" data-name="Path 258" d="M30.349,81.8c-2.756-3.55-5.668-3.966-8.633-3.323,2.407,3.287,5.192,4.825,8.633,3.323" fill="#987f5b"/>
    <path id="Path_259" data-name="Path 259" d="M34.955,76.878c2.111,1.728,3.481,3.865,2.067,7.538-2.977-1.711-3.543-4.267-2.067-7.538" fill="#987f5b"/>
    <path id="Path_260" data-name="Path 260" d="M26.823,84.836c3.161-1.217,6.129-1.037,8.754,1.621-3.1,2.155-6.011,1.453-8.754-1.621" fill="#987f5b"/>
    <path id="Path_261" data-name="Path 261" d="M39.654,80.653c2.428,1.516,4.424,3.363,3.972,7.093-3.753-1.2-4.684-3.753-3.972-7.093" fill="#987f5b"/>
    <path id="Path_262" data-name="Path 262" d="M42.517,90.359c-3.7-2.135-6.394-1.249-8.835.4q4.823,3.932,8.835-.4" fill="#987f5b"/>
    <path id="Path_263" data-name="Path 263" d="M46.573,84.2c3.359,1.02,4.981,3.027,5.188,5.836-3.624-.633-5.549-2.444-5.188-5.836" fill="#987f5b"/>
    <path id="Path_264" data-name="Path 264" d="M51.059,92.968c-4.992-1.246-7.272.214-8.673,2.553q5.958,2.088,8.673-2.553" fill="#987f5b"/>
    <path id="Path_265" data-name="Path 265" d="M60.323,97.854a5.757,5.757,0,0,0-2.965-4.165,8.741,8.741,0,0,0-2.56-.98c-.229-.05-.451-.088-.691-.126l-.741-.123c-.494-.075-.985-.179-1.477-.269a47.573,47.573,0,0,1-5.8-1.537,41.181,41.181,0,0,1-5.528-2.318,36.636,36.636,0,0,1-5.086-3.155c-.395-.305-.8-.6-1.178-.921-.193-.159-.387-.315-.577-.476l-.561-.494-.28-.247-.272-.256-.543-.513-.526-.53c-.175-.177-.351-.353-.517-.538a33.482,33.482,0,0,1-3.668-4.687,37.3,37.3,0,0,1-2.816-5.224,37.22,37.22,0,0,0,2.983,5.111,33.2,33.2,0,0,0,3.791,4.518c.17.178.35.346.529.514l.536.5.552.487.276.243.285.234.568.467c.193.152.389.3.584.449.384.3.791.579,1.188.866a36.053,36.053,0,0,0,5.088,2.921A40.346,40.346,0,0,0,46.4,89.691,46.537,46.537,0,0,0,52.106,91c.484.071.964.156,1.45.214l.726.094c.249.032.516.068.772.115a10.1,10.1,0,0,1,2.994,1.033,7.662,7.662,0,0,1,2.5,2.076,6.948,6.948,0,0,1,.842,1.434,8.885,8.885,0,0,1,.509,1.544v0a.809.809,0,0,1-1.575.373l-.006-.029" fill="#987f5b"/>
  </g>
</svg>
