<svg id="Group_211" data-name="Group 211" xmlns="http://www.w3.org/2000/svg" xmlns:xlink="http://www.w3.org/1999/xlink" width="115" height="115" viewBox="0 0 115 115">
  <defs>
    <clipPath id="clip-path">
      <rect id="Rectangle_51" data-name="Rectangle 51" width="115" height="115" fill="#987f5b"/>
    </clipPath>
  </defs>
  <g id="Group_210" data-name="Group 210" clip-path="url(#clip-path)">
    <path id="Path_266" data-name="Path 266" d="M115,57.5a58.381,58.381,0,0,0-3.944-20.827v0a31.053,31.053,0,0,0-1.568-3.636l-.527-1.088a28.184,28.184,0,0,0-1.7-3.178h0A57.389,57.389,0,0,0,93.481,12.679l-.83-.667-.024.029L90,10.08c-.89-.607-1.774-1.139-2.63-1.654-.37-.222-.741-.445-1.108-.671l-.558.906.533-.921A57.539,57.539,0,0,0,66.269.729h0A47.4,47.4,0,0,0,59.342.085C58.747.06,58.152.034,57.557,0L57.5,1.065,57.5,0A58.425,58.425,0,0,0,36.669,3.944l-.022.008a31,31,0,0,0-3.622,1.565l-1.087.525a28.017,28.017,0,0,0-3.173,1.7v0A57.368,57.368,0,0,0,12.679,21.52l-.667.83.029.024L10.08,25c-.6.887-1.136,1.769-1.65,2.623-.223.372-.448.745-.676,1.115l.907.558-.921-.533A57.541,57.541,0,0,0,.729,48.731h0a47.384,47.384,0,0,0-.643,6.928c-.025.6-.051,1.189-.084,1.784l1.065.057L0,57.505A58.445,58.445,0,0,0,3.943,78.332l.009.021a31.01,31.01,0,0,0,1.565,3.623l.525,1.087a28.029,28.029,0,0,0,1.7,3.173h0A57.364,57.364,0,0,0,21.52,102.321l.83.668.024-.03L25,104.921c.887.6,1.769,1.136,2.623,1.649.372.224.745.448,1.115.676l.558-.907-.533.922a57.539,57.539,0,0,0,19.968,7.01v0a47.523,47.523,0,0,0,6.928.643c.594.025,1.19.051,1.785.083l.056-1.064,0,1.065a58.433,58.433,0,0,0,20.828-3.943l.023-.009a31.1,31.1,0,0,0,3.614-1.561l1.1-.529a28.055,28.055,0,0,0,3.17-1.7v0A57.346,57.346,0,0,0,102.321,93.48l.667-.829-.029-.024L104.922,90c.6-.885,1.131-1.765,1.644-2.616.226-.375.451-.75.68-1.122l-.906-.558.922.533a57.621,57.621,0,0,0,7.01-19.968v0l.007-.038.017-.114a48.484,48.484,0,0,0,.619-6.77c.026-.6.051-1.192.083-1.786l-1.063-.058Zm-2.66,7.36L99.7,62.925l-.441,2.939a10.341,10.341,0,0,1-.252,1.059c-.063.234-.127.467-.182.7-.1.361-.2.775-.306,1.19a14.708,14.708,0,0,1-.688,2.289l-.452,1.056,8.123,2.757-.589,1.608a12.021,12.021,0,0,1-.614,1.484c-.223.456-.427.882-.63,1.31-.29.606-.579,1.213-.878,1.814l-9.321-5.123a42.073,42.073,0,0,0,4.486-18.33l12.792-.276-.063-1.1c-.028-.487-.05-.974-.073-1.46-.047-1.021-.1-2.076-.2-3.122l-.863-5.657-8.435,1.669c-.106-.431-.219-.861-.332-1.292-.123-.467-.247-.935-.361-1.405a12.674,12.674,0,0,0-.619-1.941l-.29-.792,9.934-3.865a56.355,56.355,0,0,1,3.42,19.048c-.031.589-.056,1.177-.082,1.766a54.517,54.517,0,0,1-.448,5.6M91.107,75.936l-.384.711-.042-.025L89.4,78.736c-.241.369-.532.748-.822,1.127-.2.263-.4.525-.6.793a20.884,20.884,0,0,1-2.094,2.522c-.355.383-.71.768-1.051,1.163a38.951,38.951,0,0,1-7.463,5.88l-.949.543.016.027c-.076.047-.152.092-.227.14a6.119,6.119,0,0,1-.574.338l-3.282,1.575L68.928,94.1c-.16.046-.391.1-.62.157L65.452,95c-.43.1-.9.161-1.373.226-.327.046-.653.092-.977.148a22.583,22.583,0,0,1-3.59.353c-.406.019-.812.038-1.217.063l-.785.049a39.877,39.877,0,0,1-18.445-4.726l-.712-.384.025-.042L36.264,89.4c-.373-.243-.754-.536-1.135-.829-.259-.2-.519-.4-.784-.588a20.8,20.8,0,0,1-2.521-2.094c-.385-.355-.769-.71-1.165-1.052a38.9,38.9,0,0,1-5.879-7.463l-.544-.948-.027.016c-.047-.076-.093-.153-.141-.229a6.2,6.2,0,0,1-.336-.572l-1.575-3.282L20.9,68.928c-.045-.161-.1-.392-.157-.621l-.737-2.854c-.1-.43-.161-.9-.227-1.375-.045-.326-.091-.652-.147-.977a22.443,22.443,0,0,1-.354-3.589c-.019-.406-.037-.813-.062-1.217l-.049-.785a39.865,39.865,0,0,1,4.726-18.445l.384-.712.041.025L25.6,36.264c.244-.373.537-.754.829-1.135.2-.259.4-.519.589-.784a20.8,20.8,0,0,1,2.094-2.521c.355-.385.709-.769,1.051-1.164a38.9,38.9,0,0,1,7.463-5.88l.949-.544-.017-.027c.077-.047.154-.093.23-.141a6.07,6.07,0,0,1,.572-.336l3.282-1.575L46.072,20.9c.161-.045.392-.1.622-.156l2.853-.738c.431-.1.9-.161,1.376-.226.326-.046.652-.092.977-.148a22.547,22.547,0,0,1,3.589-.354c.406-.018.811-.037,1.216-.062l.786-.049a39.857,39.857,0,0,1,18.444,4.726l.712.385-.025.041L78.736,25.6c.374.243.755.536,1.136.829.259.2.519.4.783.588a20.519,20.519,0,0,1,2.519,2.092c.385.356.771.711,1.167,1.053a38.929,38.929,0,0,1,5.88,7.464l.543.948.027-.017c.047.077.093.154.141.23a6.044,6.044,0,0,1,.335.571l1.577,3.283L94.1,46.072c.047.161.1.392.158.622L95,49.549c.1.43.161.9.227,1.376.045.325.091.65.146.974a22.4,22.4,0,0,1,.354,3.585c.019.408.037.815.063,1.223l.049.784a39.872,39.872,0,0,1-4.727,18.445M4.316,58.7c.028.488.05.977.073,1.465.045,1.018.093,2.072.2,3.117l.862,5.657,8.435-1.669c.106.431.22.862.333,1.291.123.468.246.936.36,1.406A12.533,12.533,0,0,0,15.2,71.9l.289.792L5.55,76.562A56.343,56.343,0,0,1,2.131,57.521q.045-.885.081-1.771a54.558,54.558,0,0,1,.449-5.6L15.3,52.075l.442-2.938a10.205,10.205,0,0,1,.249-1.056c.064-.235.128-.471.183-.707.1-.362.206-.777.307-1.191a14.65,14.65,0,0,1,.688-2.287l.452-1.058L9.5,40.082l.586-1.6a11.845,11.845,0,0,1,.617-1.492c.227-.464.434-.9.641-1.332.286-.6.572-1.2.867-1.794l9.321,5.124a42.086,42.086,0,0,0-4.485,18.33L4.252,57.6Zm101.1-28.868.922-.533-.892.582a26.126,26.126,0,0,1,1.594,2.987l.529,1.095c.41.846.781,1.664,1.113,2.491L96.8,41.077l1.013,2.766a11.135,11.135,0,0,1,.538,1.663c.124.515.251,1,.378,1.479.193.735.387,1.471.543,2.213l.217,1.03,8.3-1.642.519,3.4c.09.934.137,1.96.183,2.953,0,.128.012.256.017.384l-10.646.23c0-.056-.005-.111-.008-.168A24.229,24.229,0,0,0,97.46,51.5c-.045-.264-.087-.566-.129-.868-.074-.532-.149-1.064-.267-1.586l-.737-2.855c-.065-.267-.131-.536-.21-.8l-1.332-3.63-1.6-3.331a8.465,8.465,0,0,0-.455-.785c-.041-.065-.081-.131-.121-.2l10.917-6.638-1.741-2.853c-.31-.468-.623-.885-.937-1.3-.152-.2-.3-.4-.453-.608l-.551-.737a28.077,28.077,0,0,0-2.391-2.928l-.706-.721-6.362,5.584a45.77,45.77,0,0,0-4.1-3.918l6.68-8.314a55.2,55.2,0,0,1,12.449,14.814M85.16,9.577q.555.341,1.113.674c.831.5,1.69,1.017,2.492,1.562L91.293,13.7l-7.968,9.915.8.67A43.307,43.307,0,0,1,89.48,29.44l.7.821,6.428-5.642c.527.617,1.017,1.276,1.527,1.963l.551.737c.144.2.3.408.462.619.288.384.577.767.842,1.165l.608,1-9.092,5.528A43.355,43.355,0,0,0,85.8,28.614c-.446-.392-.815-.732-1.184-1.072a22.432,22.432,0,0,0-2.75-2.277c-.215-.156-.458-.342-.7-.528-.426-.327-.852-.651-1.3-.944l-2-1.212,6.19-11.26-.96-.505c-.932-.489-1.883-.943-2.835-1.4q-.642-.306-1.284-.617a13.423,13.423,0,0,0-1.726-.719L73.6,6.748,70.864,14.82c-.518-.159-1.036-.284-1.543-.408-.388-.095-.776-.19-1.16-.3-.261-.062-.472-.119-.682-.176a11.669,11.669,0,0,0-1.29-.3l-.836-.126L66.959,3a55.45,55.45,0,0,1,18.2,6.58M57.48,2.131q.885.045,1.771.081a54.536,54.536,0,0,1,5.605.449L62.925,15.3l2.939.442a10.47,10.47,0,0,1,1.056.249c.235.064.47.128.707.183.361.1.775.2,1.19.307a14.692,14.692,0,0,1,2.287.687l1.058.454L74.918,9.5l1.6.588a11.9,11.9,0,0,1,1.49.615c.463.227.9.434,1.33.641.6.286,1.2.572,1.795.867l-5.125,9.321a42.083,42.083,0,0,0-18.33-4.485L57.406,4.252l-1.1.064c-.487.028-.976.05-1.465.073-1.018.045-2.071.093-3.116.2l-5.657.862,1.669,8.435c-.431.107-.862.22-1.292.333-.467.123-.935.246-1.405.36A12.544,12.544,0,0,0,43.1,15.2l-.791.289L38.439,5.55A56.343,56.343,0,0,1,57.48,2.131M29.829,9.584,29.3,8.661l.583.892a25.542,25.542,0,0,1,2.98-1.59l1.095-.53c.848-.411,1.668-.783,2.5-1.117L41.077,18.2l2.766-1.013a10.973,10.973,0,0,1,1.664-.538c.514-.124,1-.251,1.477-.378.736-.193,1.471-.387,2.215-.544l1.029-.217-1.642-8.3,3.4-.52c.933-.089,1.957-.136,2.949-.182l.388-.018.229,10.646-.161.008a24.394,24.394,0,0,0-3.891.389c-.266.045-.569.088-.873.13-.53.075-1.061.149-1.582.267l-2.855.737c-.267.065-.536.13-.8.21l-3.631,1.331-3.33,1.6a8.337,8.337,0,0,0-.785.455c-.065.041-.131.081-.2.121L30.811,11.474l-2.853,1.74c-.47.312-.888.626-1.306.941-.2.151-.4.3-.6.45l-.729.545a27.856,27.856,0,0,0-2.935,2.4l-.721.7,5.584,6.363a45.639,45.639,0,0,0-3.919,4.1l-8.313-6.68A55.173,55.173,0,0,1,29.829,9.584M9.577,29.841c.228-.372.453-.746.678-1.12.5-.829,1.014-1.686,1.558-2.485L13.7,23.708l9.914,7.968.671-.8a43.312,43.312,0,0,1,5.152-5.354l.822-.7-5.642-6.429c.618-.528,1.28-1.02,1.969-1.531l.729-.545c.2-.144.407-.3.617-.46.385-.289.768-.58,1.169-.846l1-.608,5.529,9.093a43.249,43.249,0,0,0-7.014,5.7c-.391.445-.731.813-1.07,1.181a22.543,22.543,0,0,0-2.279,2.752c-.157.217-.342.459-.529.7-.326.426-.651.852-.943,1.3l-1.212,2-11.26-6.189-.5.96c-.49.931-.944,1.883-1.4,2.834-.2.43-.409.858-.617,1.285a13.631,13.631,0,0,0-.721,1.73L6.748,41.4l8.072,2.739c-.159.517-.285,1.035-.408,1.541-.095.389-.19.777-.3,1.161-.062.262-.119.473-.177.684a12.39,12.39,0,0,0-.3,1.288l-.126.837L3,48.042a55.427,55.427,0,0,1,6.58-18.2m.007,55.331-.923.532.891-.582a25.931,25.931,0,0,1-1.59-2.98l-.529-1.1c-.411-.848-.783-1.668-1.117-2.5L18.2,73.924,17.19,71.158a10.973,10.973,0,0,1-.538-1.664c-.124-.515-.251-1-.378-1.477-.193-.736-.387-1.471-.544-2.215l-.217-1.029-8.3,1.642-.52-3.4c-.089-.933-.136-1.957-.182-2.949,0-.129-.011-.258-.018-.388l10.646-.23c0,.054.006.107.008.161A24.383,24.383,0,0,0,17.54,63.5c.045.267.088.57.13.874.074.53.149,1.06.267,1.582l.737,2.855c.065.267.13.535.21.8l1.331,3.632,1.6,3.329a8.091,8.091,0,0,0,.455.785l.121.2L11.474,84.189l1.74,2.854c.312.47.626.888.941,1.306.151.2.3.4.45.6l.545.729a27.744,27.744,0,0,0,2.4,2.934l.7.722,6.363-5.584a45.5,45.5,0,0,0,4.1,3.918l-6.68,8.314A55.185,55.185,0,0,1,9.584,85.172m20.257,20.252q-.558-.342-1.12-.679c-.83-.5-1.686-1.014-2.485-1.557L23.708,101.3l7.967-9.915-.8-.671a43.385,43.385,0,0,1-5.354-5.151l-.7-.822-6.429,5.642c-.528-.618-1.02-1.28-1.531-1.97l-.545-.729c-.144-.2-.3-.406-.46-.616-.289-.385-.58-.769-.846-1.169l-.608-1,9.093-5.529a43.292,43.292,0,0,0,5.7,7.014c.445.391.813.731,1.181,1.07a22.467,22.467,0,0,0,2.752,2.279c.217.157.459.342.7.528.426.327.852.651,1.3.943l2,1.213-6.189,11.259.96.5c.931.49,1.883.944,2.834,1.4q.644.308,1.285.618a13.779,13.779,0,0,0,1.73.721l3.641,1.333,2.739-8.073c.517.159,1.035.285,1.541.409.389.1.777.189,1.161.3.262.063.473.12.684.177a12.144,12.144,0,0,0,1.288.3l.837.125L48.042,112a55.448,55.448,0,0,1-18.2-6.579m27.68,7.446q-.885-.045-1.771-.081a54.259,54.259,0,0,1-5.6-.45L52.075,99.7l-2.938-.442a9.96,9.96,0,0,1-1.056-.25c-.235-.063-.471-.127-.707-.183-.362-.1-.777-.2-1.191-.306a14.512,14.512,0,0,1-2.287-.689l-1.058-.451L40.082,105.5l-1.6-.585a12,12,0,0,1-1.492-.618c-.464-.226-.9-.433-1.332-.64-.6-.286-1.2-.572-1.794-.867l5.124-9.321A42.087,42.087,0,0,0,57.32,97.957l.275,12.791,1.1-.063c.488-.028.977-.05,1.465-.073,1.018-.046,2.072-.093,3.117-.2l5.657-.862-1.669-8.436c.43-.106.859-.218,1.288-.331.469-.123.938-.247,1.409-.361a12.823,12.823,0,0,0,1.941-.621l.791-.29,3.867,9.936a56.382,56.382,0,0,1-19.042,3.419m27.652-7.453.531.922-.582-.891a25.833,25.833,0,0,1-2.979,1.59l-1.1.533c-.846.409-1.663.781-2.49,1.113L73.924,96.8,71.157,97.81a10.9,10.9,0,0,1-1.663.539c-.516.125-1,.251-1.481.378-.734.193-1.469.386-2.211.543l-1.028.218,1.641,8.3-3.4.52c-.933.089-1.958.136-2.949.182l-.388.017-.23-10.646.162-.007a24.4,24.4,0,0,0,3.891-.389c.267-.046.57-.088.873-.131.531-.074,1.06-.149,1.581-.266l2.857-.737c.267-.065.534-.13.8-.21l3.631-1.331,3.33-1.6a8.125,8.125,0,0,0,.787-.455c.065-.041.13-.08.2-.12l6.637,10.916,2.853-1.74c.471-.312.889-.626,1.307-.941.2-.151.4-.3.6-.45l.721-.538a27.91,27.91,0,0,0,2.943-2.4l.721-.705-5.583-6.363a45.774,45.774,0,0,0,3.919-4.1l8.313,6.68a55.22,55.22,0,0,1-14.813,12.448m20.245-20.246h0c-.228.37-.452.743-.677,1.116-.5.826-1.012,1.681-1.553,2.478l-1.89,2.527-9.914-7.967-.67.8a43.53,43.53,0,0,1-5.152,5.354l-.822.7,5.642,6.428c-.622.531-1.287,1.025-1.979,1.539l-.72.538c-.2.144-.407.3-.616.46-.385.289-.769.579-1.169.846l-1,.606-5.528-9.091A43.364,43.364,0,0,0,86.387,85.8c.391-.445.731-.813,1.07-1.181a22.662,22.662,0,0,0,2.279-2.753c.159-.219.347-.464.535-.71.324-.422.647-.845.936-1.289l1.212-2.005,11.26,6.189.5-.96c.493-.939.951-1.9,1.408-2.856.2-.421.4-.843.607-1.264a13.575,13.575,0,0,0,.716-1.717l1.338-3.653-8.073-2.739c.159-.518.285-1.036.409-1.544.1-.387.189-.775.3-1.159.062-.259.119-.469.177-.68a12.651,12.651,0,0,0,.3-1.291l.126-.838L112,66.959a55.489,55.489,0,0,1-6.586,18.212" fill="#987f5b"/>
    <path id="Path_267" data-name="Path 267" d="M59.986,52.819c-.008,1.669-.013,3.442-.013,5.22H64.32c-1.639-4.214-3.284-8.359-4.272-10.838Z" fill="#987f5b"/>
    <path id="Path_268" data-name="Path 268" d="M54.726,47.2c-.988,2.48-2.632,6.625-4.272,10.838H54.8c0-1.778,0-3.55-.013-5.22Z" fill="#987f5b"/>
    <path id="Path_269" data-name="Path 269" d="M57.5,24.046A33.454,33.454,0,1,0,90.954,57.5,33.454,33.454,0,0,0,57.5,24.046m8.158,51.475s4.017-1.26,3.781-3.387c-.1-.918-2.038-6.12-4.206-11.737H59.974c0,1.187.006,2.357.012,3.481l.082,7.453c.028,1.226.062,2.013.1,2.168.368,1.418,3.624,2.311,3.624,2.311H50.98s3.256-.893,3.624-2.311c.04-.155.074-.942.1-2.168l.082-7.453c.006-1.124.01-2.294.012-3.481H49.54c-2.168,5.617-4.1,10.819-4.205,11.737-.237,2.127,3.781,3.387,3.781,3.387H34.858c2.442-.079,4.254-3.308,4.254-3.308L52.119,42.471c-4.3-.059-9.236-.079-10.014.123-1.418.368-2.311,3.624-2.311,3.624V37.08l17.462.194,17.461-.194v9.138s-.893-3.256-2.311-3.624c-.762-.2-5.518-.183-9.753-.127L75.662,72.213s1.812,3.229,4.254,3.308Z" fill="#987f5b"/>
  </g>
</svg>
