<?xml version="1.0" encoding="utf-8"?>
<!-- Generator: Adobe Illustrator 26.2.1, SVG Export Plug-In . SVG Version: 6.00 Build 0)  -->
<svg version="1.1" id="Group_6" xmlns="http://www.w3.org/2000/svg" xmlns:xlink="http://www.w3.org/1999/xlink" x="0px" y="0px"
	 viewBox="0 0 29.8 51.5" style="enable-background:new 0 0 29.8 51.5;" xml:space="preserve">
<style type="text/css">
	.st0{fill:#FFFFFF;}
</style>
<g id="Group_5">
	<path id="Path_1" class="st0" d="M14.9,51.5C6.7,51.5,0,44.8,0,36.6V14.9C0.1,6.7,6.8,0.1,15,0.1c8.1,0.1,14.7,6.6,14.8,14.8v21.7
		C29.8,44.8,23.1,51.5,14.9,51.5L14.9,51.5z M14.9,2.7C8.1,2.7,2.7,8.2,2.7,14.9v21.7c0,6.7,5.5,12.2,12.2,12.2s12.2-5.5,12.2-12.2
		c0,0,0,0,0,0V14.9C27.1,8.1,21.6,2.7,14.9,2.7L14.9,2.7z"/>
	<path id="Path_2" class="st0" d="M14.9,21.3c-0.7,0-1.3-0.6-1.3-1.3V12c0-0.7,0.6-1.4,1.3-1.4c0.7,0,1.4,0.6,1.4,1.3c0,0,0,0,0,0.1
		v7.9C16.2,20.7,15.6,21.3,14.9,21.3L14.9,21.3z"/>
</g>
</svg>
