<?xml version="1.0" encoding="UTF-8"?><svg xmlns="http://www.w3.org/2000/svg" viewBox="0 0 77.07 77.07"><defs><style>.e{fill:#fff;}</style></defs><g id="a"/><g id="b"><g id="c"><path id="d" class="e" d="M38.53,0C17.25,0,0,17.25,0,38.53s17.25,38.53,38.53,38.53,38.53-17.25,38.53-38.53S59.81,0,38.53,0h0m19.48,30.97c.67,14.47-10.51,26.74-24.98,27.41-5.43,.25-10.8-1.19-15.37-4.12,4.88,.59,9.79-.79,13.65-3.82-3.95-.07-7.42-2.64-8.63-6.4,1.38,.26,2.8,.21,4.16-.16-4.35-.88-7.45-4.73-7.4-9.16,1.28,.71,2.71,1.11,4.18,1.15-4.05-2.72-5.29-8.11-2.83-12.32,4.68,5.76,11.59,9.26,19.01,9.63-1.16-4.96,1.93-9.93,6.89-11.09,3.21-.75,6.57,.27,8.83,2.67,2.07-.41,4.05-1.16,5.86-2.24-.69,2.14-2.13,3.96-4.05,5.12,1.83-.23,3.61-.72,5.3-1.48-1.23,1.86-2.79,3.49-4.6,4.8"/></g></g></svg>