<?xml version="1.0" encoding="utf-8"?>
<!-- Generator: Adobe Illustrator 26.2.1, SVG Export Plug-In . SVG Version: 6.00 Build 0)  -->
<svg version="1.1" id="Layer_1" xmlns="http://www.w3.org/2000/svg" xmlns:xlink="http://www.w3.org/1999/xlink" x="0px" y="0px"
	 viewBox="0 0 77.1 77.1" style="enable-background:new 0 0 77.1 77.1;" xml:space="preserve">
<style type="text/css">
	.st0{fill:#987F5B;}
</style>
<g id="a">
</g>
<g id="b">
	<g id="c">
		<path id="d" class="st0" d="M38.5,0C17.2,0,0,17.2,0,38.5s17.2,38.5,38.5,38.5s38.5-17.2,38.5-38.5S59.8,0,38.5,0L38.5,0 M58,31
			c0.7,14.5-10.5,26.7-25,27.4c-5.4,0.2-10.8-1.2-15.4-4.1c4.9,0.6,9.8-0.8,13.6-3.8c-4-0.1-7.4-2.6-8.6-6.4
			c1.4,0.3,2.8,0.2,4.2-0.2c-4.4-0.9-7.5-4.7-7.4-9.2c1.3,0.7,2.7,1.1,4.2,1.2c-4.1-2.7-5.3-8.1-2.8-12.3c4.7,5.8,11.6,9.3,19,9.6
			c-1.2-5,1.9-9.9,6.9-11.1c3.2-0.8,6.6,0.3,8.8,2.7c2.1-0.4,4-1.2,5.9-2.2c-0.7,2.1-2.1,4-4,5.1c1.8-0.2,3.6-0.7,5.3-1.5
			C61.4,28,59.8,29.6,58,31"/>
	</g>
</g>
</svg>
