<svg id="Group_207" data-name="Group 207" xmlns="http://www.w3.org/2000/svg" xmlns:xlink="http://www.w3.org/1999/xlink" width="115" height="115" viewBox="0 0 115 115">
  <defs>
    <clipPath id="clip-path">
      <rect id="Rectangle_49" data-name="Rectangle 49" width="115" height="115" transform="translate(0 0)" fill="#987f5b"/>
    </clipPath>
  </defs>
  <g id="Group_206" data-name="Group 206" transform="translate(0 0)" clip-path="url(#clip-path)">
    <path id="Path_204" data-name="Path 204" d="M304.476,279.56h-3.582a1.913,1.913,0,0,1,1.6-1.624v-1.02c-1.215-.074-2.1.777-2.762,2.641h-.785v-3.411H297.6v3.44h-.752c-.53-1.842-1.565-2.857-2.775-2.729v1.02a1.873,1.873,0,0,1,1.6,1.678H280.148l-.086-.117,17.292-17.007a4.3,4.3,0,0,1,.843,2.32,2.808,2.808,0,0,1-.7,2.093l.767.781c1.255-1.2,1.609-3.712-.144-6.074l.549-.578,1.958,1.979.88-.82c-.341-.334-.678-.663-1.013-.993s-.679-.673-.987-.978l.5-.556c1.406.753,2.664.7,3.367-.091l-.643-.675a1.646,1.646,0,0,1-1.968.007L303.1,256.4l3.251,3.355,3.759-3.881-.874-.922L306.4,257.8l-2.369-2.356,2.839-2.835-1.05-1.053c-.927.93-1.868,1.872-2.783,2.789l-2.363-2.358,2.763-2.756-.879-.948-3.761,3.808c.512.514,1.056,1.063,1.6,1.609s1.094,1.09,1.665,1.659c-.818.809-1.605,1.589-2.4,2.372a1.729,1.729,0,0,1,.081-1.905l-.693-.69a2.854,2.854,0,0,0-.129,3.37l-.532.55c-.7-.731-1.39-1.448-2.108-2.2-.234.249-.445.483-.667.7-.17.17-.156.3.019.464.566.546,1.116,1.108,1.672,1.664.075.075.144.157.17.186-.176.215-.323.4-.465.571-2.382-1.8-4.985-1.429-6.12-.146l.752.759a3.588,3.588,0,0,1,4.591.238l-17.207,16.962V261.19h3.335v-1.135h-3.328V258.9h3.333v-1.123h-3.337v-1.236h3.33v-1.123h-3.325v-1.581h5.747v-5.358h-1.334v4H279v-4h-1.35v4H273.2v-4h-1.308v5.38h5.751v1.568h-3.336v1.135h3.33v1.226h-3.333v1.123h3.337v1.169h-3.333v1.135h3.329v17.074l-20.418-20.269a1.66,1.66,0,0,1,2.3.077l.66-.767a2.948,2.948,0,0,0-3.6-.14c-.15-.132-.28-.249-.458-.409l3.648-3.674-4.567-4.47-.831.777,3.85,3.718-2.867,2.862-.537-.547,1.675-1.654-.828-.852-1.654,1.693-.513-.469c.144-.3.307-.567.414-.86a2.543,2.543,0,0,0-1.937-3.464,3.741,3.741,0,0,0-4.205,2.659,2.522,2.522,0,0,0,1.891,3.118,3.351,3.351,0,0,0,2.387-.293.354.354,0,0,1,.51.089,2.494,2.494,0,0,0,.409.3l-1.878,1.861.823.863,1.789-1.876.625.675-3.18,2.9-3.7-3.821c-.085.076-.151.133-.215.194-.2.182-.389.366-.694.654l4.829,4.45,3.67-3.632.406.373c-.827,1.57-.776,2.983.07,3.634l.675-.586a1.887,1.887,0,0,1-.016-2.318c6.782,6.827,13.647,13.568,20.4,20.479H252.182v-8.121h-5.367v1.34h4v2.695h-4v1.416h3.995V279.6H246.72v1.322h4.094v2.7H246.82v1.348h3.993v2.695H246.82V289h5.368v-8.052h24.319l.054.088L257.87,299.444a1.932,1.932,0,0,1,.1-2.081l-.7-.72c-.914.818-.956,2.172-.137,3.717l-.769.817-1.871-1.887-.841.785,1.88,1.87-.785.849-3.271-3.21c-1.56,1.544-3.145,3.111-4.7,4.649l.929.981c1.263-1.263,2.521-2.523,3.738-3.74l2.264,2.26-1.268,1.274-.717-.766-1.043.986.9.738-.644.646-.862-.922-.9.916,2.76,2.759.969-.956c-.267-.238-.556-.5-.819-.733l.619-.637.8.9,1.032-1.016-.861-.756,1.225-1.227,2.272,2.226-3.753,3.749.971.945,4.707-4.711q-1.657-1.676-3.2-3.236l.8-.845,1.749,1.764.784-.782-1.734-1.726.778-.839c1.538.808,3.037.746,3.7-.159l-.711-.707h0l-.072.044-.071.04c-.049.025-.1.051-.145.073s-.1.043-.145.062a1.737,1.737,0,0,1-1.848-.288l18.675-18.368v19.671H264.436v7.032h-1.385v1.162h1.384v.8h-1.387V312h4.1v-1.168h-1.325v-.8h1.321v-1.162h-1.331v-5.821h2.924v1.214h-1.391v1.171h1.394v.8H267.36v1.191h1.424v1.84h1.341V307.4h1.318V306.22h-1.308v-.792h1.305v-1.189h-1.3v-1.183h7.511v2.332h-5.052v6.692h1.382v-5.342h3.661v2.178h-1.379V310.1h1.379v.8H276.26v1.139h4.093v-1.155H279.03v-.8h1.313v-1.2h-1.31v-2.146h3.607v5.243h1.365v-6.6h-4.971v-2.333h7.505v1.211h-1.45v1.181h1.446v.792h-1.444v1.186h1.476v1.84h1.354V307.4H289.2v-1.179h-1.273v-.781h1.268v-1.189h-1.265v-1.194h2.918v5.919h-1.374v1.186h1.384v.776h-1.384V312.1h4.08v-1.172H292.24v-.789h1.312v-1.2H292.21v-7.09H279.03V282.294l15.9,15.618-2.094,2.073.861.893,2.032-2.036.939.925-2.029,2.014.843.9,2.024-2.038c.307.3.594.579.922.9l-2.043,2.034.853.874,2.038-2.044,1.351,1.334-3.641,3.679,4.181,4.241.973-.932-3.274-3.263,2.721-2.727,2.811,2.808a8.142,8.142,0,0,1-1.01.194,2.865,2.865,0,0,1-2.121-.806l-.793.718a3.806,3.806,0,0,0,3.83,1.02,3.271,3.271,0,0,0,2.44-2.843,3.771,3.771,0,0,0-1.094-3.261l-.78.7c.874,1.255,1.071,2.277.635,2.989l-2.711-2.711,2.72-2.719,3.248,3.256.964-.914-4.275-4.235-3.695,3.617-1.322-1.315,2.026-2.018-.89-.867-1.983,1.991-.986-.928,1.991-1.978-.812-.9-2.047,2.064-.863-.874,2.077-2.085-.913-.914-2.023,2.11-15.9-15.888h15.566a1.943,1.943,0,0,1-1.605,1.535v1.053a4.773,4.773,0,0,0,.56-.082,2.931,2.931,0,0,0,2.013-2c.2-.546.19-.55.774-.532.054,0,.106.013.194.024v3.308h1.342v-3.334a2.59,2.59,0,0,0,.366,0c.323-.05.458.075.534.4a3.046,3.046,0,0,0,1.027,1.662,2.352,2.352,0,0,0,1.63.6c0-.285-.012-.541,0-.8.012-.2-.068-.262-.26-.3a1.81,1.81,0,0,1-1.35-1.546h3.582v4.679h5.362v-1.34h-4V280.9h3.8v-1.325h-3.8v-3.442h4.006V274.8h-5.383Zm-55.285-25.329a1.641,1.641,0,0,1-.018-2.134l2.264,2.263a1.912,1.912,0,0,1-2.247-.13m3.475-.961-2.225-2.222a1.886,1.886,0,0,1,2.242.317,1.6,1.6,0,0,1-.017,1.9m44.074,10.45a.612.612,0,1,0,.6.6.61.61,0,0,0-.6-.6m-2.592-2.6a.615.615,0,0,0-.637.6.63.63,0,0,0,.626.618.612.612,0,0,0,.593-.609.59.59,0,0,0-.583-.61" transform="translate(-219.991 -221.58)" fill="#987f5b"/>
    <path id="Path_205" data-name="Path 205" d="M732.619,370.356a.7.7,0,1,1-.692-.686.7.7,0,0,1,.692.686" transform="translate(-652.512 -329.913)" fill="#987f5b"/>
    <path id="Path_206" data-name="Path 206" d="M704.813,342.7a.7.7,0,0,1-.679.7.722.722,0,0,1-.717-.708.7.7,0,0,1,.729-.687.675.675,0,0,1,.668.7" transform="translate(-627.698 -305.225)" fill="#987f5b"/>
    <path id="Path_207" data-name="Path 207" d="M53.371.16A57.377,57.377,0,0,0,23.062,11.47a56.123,56.123,0,0,0-6.85,6.025A57.023,57.023,0,0,0,.663,48.566a47.041,47.041,0,0,0-.646,7.912A50.857,50.857,0,0,0,.335,64.12,57.438,57.438,0,0,0,21.81,102.631,54.5,54.5,0,0,0,49.7,114.5a44.45,44.45,0,0,0,7.807.5,46.754,46.754,0,0,0,8.8-.649,57.47,57.47,0,0,0,23.179-9.019,58.808,58.808,0,0,0,15.8-15.747,57.374,57.374,0,0,0,9.6-27.634,80.048,80.048,0,0,0-.1-10.107A57.526,57.526,0,0,0,98.6,17.3a67.39,67.39,0,0,0-5.458-4.779l-.046-.039a56.249,56.249,0,0,0-5.97-4.259,42.6,42.6,0,0,0-3.921-2.137A57.436,57.436,0,0,0,53.371.16M57.407,1c0,.048-.067,1.829-.145,3.975s-.144,4.139-.144,4.428V9.94l-2.042.116c-1.127.067-2.582.183-3.237.27a7.17,7.17,0,0,1-1.243.106c-.029-.029-.366-1.646-.761-3.6s-.79-3.918-.886-4.389L48.766,1.6l.2-.048c.559-.125,3.536-.433,5.357-.558a22.291,22.291,0,0,1,3.083,0m3.227.019.578.058-1.2.539a9.5,9.5,0,0,1-1.252.51,2.155,2.155,0,0,1-.019-.606L58.775.93l.636.01c.357.01.906.039,1.223.077m3.622.3A51.929,51.929,0,0,1,71.685,2.74a24.822,24.822,0,0,1-.7,2.762c-.424,1.482-.828,2.888-.9,3.128s-.27.924-.443,1.521a5.918,5.918,0,0,0-.27,1.136,4.315,4.315,0,0,0,.636.221l.588.183.193-.645c.106-.347.4-1.348.636-2.223.443-1.54.829-2.9,1.031-3.542l.1-.318.848.78c.462.424.9.828.954.9.125.144.144.058-.848,3.484-.318,1.117-.588,2.079-.588,2.127a2.208,2.208,0,0,0,1.243.356c.039-.048.472-1.482.963-3.186l.886-3.1-.7-.664c-.385-.366-.944-.876-1.233-1.136s-.809-.751-1.156-1.068l-.626-.6.771.221a54.781,54.781,0,0,1,9.9,3.889A8.483,8.483,0,0,1,84.922,8.1c-.019.067-1.089,1.809-2.37,3.879L80.23,15.734l-1.513-.751a47.029,47.029,0,0,0-19.085-4.957l-1.195-.067.067-1.309c.029-.712.058-1.5.058-1.742V6.465l1.185-.52a17.757,17.757,0,0,0,2.765-1.319,4.863,4.863,0,0,0-.25-.616l-.25-.558-1.021.462c-.568.25-1.32.6-1.676.751l-.655.3V3.674l1.975-.866a15.479,15.479,0,0,0,1.975-.963,1.368,1.368,0,0,0-.145-.337c-.27-.462-.356-.452,1.792-.193M48.13,1.768c-.366.645-2.245,3.667-2.331,3.764s-.453-.116-1.907-1.155c-1.137-.809-1.744-1.3-1.667-1.348A57.537,57.537,0,0,1,47.947,1.71c.125-.01.2.019.183.058m-5.9,5.852c.462,2.329.848,4.312.857,4.408.01.135-.154.231-.713.414-1.089.366-2.784,1.03-3.8,1.482-.549.241-.645.26-.588.125.241-.6.26-.722.144-.8-.058-.039-.867-.327-1.792-.635a5.219,5.219,0,0,1-1.676-.7c0-.077.2-.914.443-1.858s.433-1.733.414-1.752-.925-.26-2.013-.529-1.985-.52-2-.529c-.039-.039,2.717-1.338,3.882-1.838a44.558,44.558,0,0,1,5.935-2.089c.029.039.443,1.973.906,4.3m6.108-1.482a15.873,15.873,0,0,1,.279,1.579,8.474,8.474,0,0,1-1.734-1.328,15.036,15.036,0,0,1,1.089-1.8,10.766,10.766,0,0,1,.366,1.55m-4.2.039a2.934,2.934,0,0,1,.809.674,9.754,9.754,0,0,1-1.137,1.8c-.029-.039-.173-.674-.318-1.415s-.289-1.425-.318-1.53c-.067-.231-.029-.212.963.472M30.1,9.632c-.694,1.954-.7,2-.5,2.069.106.048.915.327,1.792.626s1.59.558,1.6.568-.183.847-.433,1.867L32.1,16.6l.376.106.376.116-1.715,1.145c-.944.626-2.293,1.6-2.986,2.156-1.156.924-1.281,1-1.281.78v-.241h-2.3l.116-3.927-1.888-.029a19.094,19.094,0,0,1-1.927-.087,6.955,6.955,0,0,1,0-1.184l.058-1.136,1.118-.9A56.22,56.22,0,0,1,28.7,8.8,15.514,15.514,0,0,1,30.8,7.62c.01.01-.3.914-.694,2.012M48.351,9.2c.925.655,1.724,1.222,1.763,1.261a5.377,5.377,0,0,1-1.3.327c-1.647.308-3.044.635-4.4,1.03-.549.154-1.012.27-1.031.26s.3-.549.684-1.184,1.012-1.636,1.368-2.223l.655-1.078.289.2c.154.116,1.05.741,1.975,1.405m-14.461.077a19.2,19.2,0,0,1-.54,2.233,6.645,6.645,0,0,1-1.127-.327l-1.1-.375.337-.924c.173-.5.337-.963.366-1.02.019-.077.337-.039,1.031.135.549.135,1.012.26,1.031.279m54.827,1.04c1.416.934,2.7,1.867,4.172,3.013.357.279,1.195.963,1.734,1.444s1.291,1.165,1.657,1.511l.674.626-.395.366c-.6.549-2.7,2.483-4.6,4.235-1.657,1.53-1.715,1.569-1.879,1.4-.231-.27-1.753-1.607-2.669-2.358a55.874,55.874,0,0,0-4.586-3.263,8.411,8.411,0,0,1-1.223-.857c.019-.039.27-.462.559-.953l.53-.9,2.582.067a23.779,23.779,0,0,0,2.572,0c0-.029-.4-.808-.877-1.713s-1.012-1.887-1.156-2.175a2.666,2.666,0,0,1-.279-.626,3.671,3.671,0,0,1,.385-.712l.395-.616.453.27c.25.135,1.127.7,1.946,1.242m-26.811.77a45.579,45.579,0,0,1,11.975,2.762,46.632,46.632,0,0,1-7.081,89.39,41.1,41.1,0,0,1-9.1.9,41.384,41.384,0,0,1-6.734-.424,46.848,46.848,0,0,1-33.257-21.84,46.509,46.509,0,0,1,6.8-57.3A46.588,46.588,0,0,1,54.758,10.941a59.856,59.856,0,0,1,7.148.144m23.006,1.251a2.636,2.636,0,0,1,.318.693,1.871,1.871,0,0,1-.771.029l-.751-.048.4-.655a5.523,5.523,0,0,1,.433-.645,5.039,5.039,0,0,1,.376.626m-48.96,1.55a12.191,12.191,0,0,1,1.416.52,9.722,9.722,0,0,1-1.137.6c-.617.308-1.474.751-1.888.991s-.771.433-.79.433.154-.693.376-1.55a4.544,4.544,0,0,1,.491-1.5c.058.019.742.25,1.532.51M19.536,16.138l-.019.577h-.636l-.636-.01.626-.568a7.711,7.711,0,0,1,.655-.578,2.707,2.707,0,0,1,.01.578m80.646,4.187a57.393,57.393,0,0,1,4.094,5.294,30.491,30.491,0,0,1,1.946,3.09c-.019.019-1.31.693-2.871,1.492s-3.362,1.723-4.008,2.06l-1.166.616-.511-.837A49.63,49.63,0,0,0,91.926,24.7a3.46,3.46,0,0,1-.588-.722A30.877,30.877,0,0,1,94.7,20.922c.039.039.308.7.6,1.473s.578,1.511.626,1.656l.106.25.511-.193a3.94,3.94,0,0,0,.6-.27c.058-.058-.01-.347-.164-.741-.135-.356-.472-1.232-.742-1.944l-.491-1.29L96.1,19.5a2.145,2.145,0,0,1,.424-.375,13.9,13.9,0,0,1,.771,1.656c.385.914.713,1.675.723,1.694a8.5,8.5,0,0,0,1.185-.5c.019-.019-.27-.741-.636-1.607s-.829-1.944-1.021-2.4l-.347-.818,1.069,1.107c.6.606,1.455,1.54,1.917,2.069m-81.7-2.291.9.058-.048,1.915-.048,1.906h3.728v1.3c0,.866.039,1.3.106,1.3s-.116.25-.4.549c-.954,1.078-2.476,2.878-3.1,3.687-.684.886-2.428,3.427-2.5,3.648-.048.135-.607-.164-2.062-1.1-.26-.173-1.021-.645-1.686-1.059s-1.416-.876-1.667-1.039l-.462-.3L13.2,27.92l-.308-.568c-.164-.318-.308-.587-.318-.6s-.838.385-1.83.9-1.821.9-1.84.886a6.855,6.855,0,0,1,.559-.972c.328-.52.646-1.02.694-1.107a63.514,63.514,0,0,1,6.2-7.835c.684-.732.578-.7,2.129-.587m4.605,1.222a5.208,5.208,0,0,1-.048,1.126,4.9,4.9,0,0,1-1.137.019l-1.06-.058L20.9,18.15l2.158.058Zm2.514,2.782c.2.019.145.1-.5.674l-.742.664V21.962l.5.029c.279.01.617.039.742.048M9.391,29.363c2.013,1.271,6.628,4.12,6.744,4.168.077.029.135.087.135.135s-.328.693-.723,1.434a49.269,49.269,0,0,0-3.757,9.163,3.276,3.276,0,0,1-.328.847c-.116,0-4.066-1.03-4.094-1.068s-.289-.789-.578-1.684l-.125-.385L8.3,40.452l1.262.318c.694.173,1.541.395,1.888.491,1.223.337,1.127.356,1.291-.241.087-.289.183-.578.212-.655s-.01-.135-.077-.135c-.116,0-1.936-.452-3.545-.885-.347-.1-1.6-.424-2.794-.732s-2.187-.578-2.206-.587a51.836,51.836,0,0,1,2.447-5.737,33.87,33.87,0,0,1,1.879-3.35,5.81,5.81,0,0,1,.732.424m97.824,1.02A55.422,55.422,0,0,1,112.543,44.1c.376,1.5.491,2.069.4,2.069-.029,0-.511-.4-1.089-.9a47.659,47.659,0,0,0-3.94-3.3c-.048.038-.809,1.3-2.755,4.5l-.973,1.617-.5-2a47.39,47.39,0,0,0-2.5-7.431c-.347-.8-1.936-4.014-2.177-4.408-.068-.116-.106-.221-.087-.241.077-.067,2.38-1.222,2.437-1.222.029,0-.173.866-.443,1.925a16.177,16.177,0,0,0-.434,1.983,2.992,2.992,0,0,0,1.233.26c.039-.039.3-1.011.578-2.146s.54-2.108.588-2.156c.058-.067.7.318,2.765,1.685a2.468,2.468,0,0,0,.491.279,14.844,14.844,0,0,0,.144-2.05c.077-2.445.154-3.475.26-3.369.039.039.337.577.665,1.184m-2.254,1.8a3.469,3.469,0,0,1-1.118-.674,1.81,1.81,0,0,1,.559-.337l.549-.26.029.616a2.172,2.172,0,0,1-.019.655M5.095,41.511a22.288,22.288,0,0,1-2.3,2.214c-.27.221-.318.241-.27.077.029-.1.125-.462.212-.809.193-.76.751-2.637,1.031-3.417.414-1.174.347-1.213.857.385.26.789.472,1.492.472,1.55m1.387-1.579c-.019.039.048.077.154.1.183.029.173.048-.1.289l-.3.26-.135-.308c-.154-.366-.135-.4.173-.4.135,0,.222.029.2.067m-.771,3.407a.588.588,0,0,1,.039.279,1.351,1.351,0,0,1-.347-.067l-.328-.087.222-.193c.279-.241.347-.231.414.067m104.5,2.252c1.021.876,1.965,1.675,2.091,1.771l.241.193.279-.318c.154-.173.308-.3.337-.27.087.1.6,3.552.742,5.082.087.837.173,2.243.2,3.138.058,1.55.048,1.608-.106,1.328-.087-.164-.173-.3-.183-.318s-.983.452-2.158,1.03L109.527,58.3l-2.081-1.078c-1.9-.972-2.1-1.059-2.206-.9-.135.173-.164-.077-.3-2.349-.058-1.059-.462-4.254-.626-4.986a1.216,1.216,0,0,1-.048-.472,1.208,1.208,0,0,1,.491.212,1.593,1.593,0,0,0,.472.231c.019-.019.251-.4.511-.857.443-.751,1.223-2.05,2.119-3.532a2.1,2.1,0,0,1,.434-.578c.029.01.9.732,1.917,1.607M8.033,45.64c2.765.712,3.131.818,3.131.9,0,.048-.125.7-.279,1.463a42.872,42.872,0,0,0-.684,4.514v.289H9.6c-.665,0-8.5-.3-8.526-.337-.048-.029.279-2.647.5-4.043.135-.8.376-2.079.54-2.849l.3-1.4,1.744.452c.963.25,2.707.693,3.873,1M2,53.946c.193.26.54.712.771,1.011l.414.549-1.127,1.2c-.626.664-1.156,1.2-1.185,1.2-.067,0,.067-4.495.144-4.841l.058-.27.279.347c.164.183.443.549.646.8m6.31.164,1.715.067L9.96,55.737c-.039.847-.077,1.569-.1,1.579s-1.127-.01-2.476-.067-2.755-.116-3.131-.116c-.645-.01-.838-.087-.617-.221.048-.029.347-.356.665-.712l.588-.664-.617-.77a5.355,5.355,0,0,1-.578-.818c.019-.01.674,0,1.464.029s2.2.1,3.15.135m99.664,4.909a13.92,13.92,0,0,1-1.435.77,14.18,14.18,0,0,1-1.5.693,11.1,11.1,0,0,1,.019-1.5l.067-1.453,1.406.731c.771.4,1.426.751,1.445.76m6.127,1.174-.058.414-.694-.347c-.385-.193-1.05-.539-1.484-.78l-.79-.424,3.025-1.5.029,1.117a13.363,13.363,0,0,1-.029,1.521M5.509,58.48c2.37.1,4.335.2,4.364.221s.087.76.135,1.627a45.415,45.415,0,0,0,.54,4.9c.424,2.31.828,4.177,1.06,4.88a20.192,20.192,0,0,1-1.965-1.9A25.9,25.9,0,0,0,7.561,66.19c-.029.029-.193.712-.366,1.521a7.664,7.664,0,0,1-.385,1.444c-.039-.019-.636-.491-1.32-1.068s-1.262-1.03-1.291-1.03-.347,1.193-.7,2.657l-.665,2.657-.125-.424c-.25-.857-.9-3.879-1.118-5.294A58.216,58.216,0,0,1,.856,58.99c0-.6.019-.693.173-.693.087,0,2.11.087,4.48.183M111.647,60.9l2.071,1.059.164-.221c.154-.2.164-.193.116.366a62.979,62.979,0,0,1-1.156,7.6c-.414,1.9-.414,1.877-.559,1.877-.1,0-6.31-1.819-8.131-2.377-.337-.106-.491-.193-.462-.279a46.983,46.983,0,0,0,1.108-6.151l.173-1.54.164.356.154.366,2.1-1.049c1.146-.587,2.11-1.059,2.139-1.059s.983.472,2.12,1.049M9.314,69.982c-.087.077-.173.125-.2.087a1.378,1.378,0,0,0-.549.067,1.29,1.29,0,0,1-.549.058A2.188,2.188,0,0,1,8.12,69.4l.173-.741.588.587c.52.52.568.6.433.732m-3.131.356.3.25-.761.164c-.424.1-.867.193-.983.221-.25.058-.27-.029-.135-.549.058-.183.145-.52.2-.751l.106-.414.491.414c.27.231.626.529.78.664m98.46.433c.645.193,1.416.4,1.705.491a2.207,2.207,0,0,1,.636.25,16.625,16.625,0,0,1,.568,2.089c.25,1.088.491,2.031.53,2.108.048.1.655-.433,2.129-1.848,1.137-1.088,2.071-1.964,2.081-1.954.039.039-.665,2.4-1.079,3.667-.443,1.328-1.416,3.792-2.071,5.246-.5,1.126-2.071,4.216-2.216,4.36-.058.067-2.91-1.694-6.8-4.206l-.877-.568L100,78.914a47.556,47.556,0,0,0,3.044-7.565,3.259,3.259,0,0,1,.337-.924c.048,0,.616.154,1.262.347m-92.631.722a49.38,49.38,0,0,0,2.717,6.873,4.792,4.792,0,0,1,.5,1.222c-.125.116-5.838,3.061-5.867,3.022a10.651,10.651,0,0,1,.289-1.338l.328-1.3-.626-.164a2.948,2.948,0,0,0-.645-.125c-.019.029-.723,2.714-.992,3.8a2.065,2.065,0,0,1-.212.606c-.087,0-1.59-3.119-2.168-4.476-1.195-2.811-2.582-6.978-2.322-6.978.029,0,1.05-.221,2.254-.491s2.582-.568,3.054-.674,1.406-.308,2.071-.462,1.252-.279,1.3-.289a1.942,1.942,0,0,1,.318.77m97.207.626c.655.193.655.193.482.347-.077.067-.289.27-.482.452l-.356.327-.087-.375c-.183-.732-.212-.9-.154-.9.029,0,.3.067.6.154m-92.8,9.394a49.467,49.467,0,0,0,5.819,7.922,9.136,9.136,0,0,1,.78.924,5.608,5.608,0,0,1-1.079.164c-2.052.221-5.106.587-5.145.616-.019.019.636.818,1.455,1.781,1.435,1.694,1.474,1.752,1.223,1.8-.145.029-.867.144-1.609.25-2.062.3-1.908.231-1.83.732l.058.424-.511-.558a58.629,58.629,0,0,1-5.626-7.3c-.8-1.232-2.264-3.715-2.216-3.764.01-.019.954.318,2.081.741s2.1.77,2.158.77a2.094,2.094,0,0,0,.462-1.165A8.249,8.249,0,0,0,11.4,84.43c-1.724-.626-1.917-.356,1.522-2.137,1.647-.866,3.015-1.569,3.015-1.569s.222.356.472.789m83.488.943c.655.414,1.532.962,1.946,1.222s.713.481.674.51a29.649,29.649,0,0,1-3.035.674,6.887,6.887,0,0,1-2.071-1.386,9.14,9.14,0,0,1,1.223-1.838c.039.029.617.395,1.262.818m1.58,5.38c2.245,1.444,2.62,1.646,2.775,1.55.173-.1.173-.1.058.067-.077.1-.308.414-.52.7-.838,1.155-2.225,2.965-2.688,3.5a62.3,62.3,0,0,1-7.437,7.431c-.771.655-3.2,2.483-4.085,3.07-.395.27-.742.5-.771.539-.1.106-2.6,1.636-3.661,2.233a57.842,57.842,0,0,1-12.226,5.073,7.515,7.515,0,0,1-1.137.26,2.236,2.236,0,0,1,.241-.616l.289-.558-1.725-.866a14.9,14.9,0,0,1-1.724-.943c0-.038.241-.549.53-1.126a11.963,11.963,0,0,0,.53-1.136,2.441,2.441,0,0,0-1.156-.529c-.116.116-1.734,3.263-1.734,3.359a11.555,11.555,0,0,0,1.618.9c.886.452,1.936.991,2.322,1.2l.723.385-.674.173c-1.127.289-3.873.828-5.289,1.03a51.13,51.13,0,0,1-6.859.558l-2.524.058-.01-3.629c0-1.992.019-3.619.058-3.619a10.421,10.421,0,0,1,.915.578c.472.318.877.578.9.578a9.058,9.058,0,0,0,.732-1.1c0-.039-.973-.712-2.119-1.473l-.626-.414h1.252a52.306,52.306,0,0,0,8.863-.828,7.719,7.719,0,0,1,1.358-.2c.029.029-.039.221-.145.443a2.418,2.418,0,0,0-.2.443c0,.019.78.433,1.734.914l1.734.866-.588,1.165a10.746,10.746,0,0,0-.549,1.194,8.6,8.6,0,0,0,1.146.529,36.628,36.628,0,0,0,1.8-3.513l-2.216-1.117-2.177-1.088,1.541-.414a45.833,45.833,0,0,0,5.279-1.742c1.32-.52,4.114-1.8,4.316-1.964.145-.125.058-.25.838,1.174,1.06,1.935,1.079,1.973,2.341,4.235.665,1.194,1.243,2.2,1.281,2.252a2.482,2.482,0,0,0,1.146-.616,4.921,4.921,0,0,0-.376-.741c-1.917-3.379-3.863-7-3.8-7.046.039-.038.511-.327,1.04-.635a49.859,49.859,0,0,0,6.59-4.716,10.768,10.768,0,0,1,1.156-.914A10.135,10.135,0,0,1,90.6,93.766l.934,1.011H89.3v1.348h1.532c.838,0,1.657.029,1.821.058a14.818,14.818,0,0,1,2.746,2.589l.337.375.5-.481.5-.491-.925-.953-.915-.953,1.146-.029,1.156-.029V94.873H93.554l-1.5-1.55-1.513-1.55.944-.982a47.46,47.46,0,0,0,4.557-5.38l.52-.712,1.156.741c.645.4,2.331,1.482,3.767,2.4m3.728-2.012a9.2,9.2,0,0,0,.963.578,7.512,7.512,0,0,1-.655,1.155c-.4.635-.751,1.155-.771,1.155s-.01-.077.048-.164c.067-.135,0-.221-.376-.462-.26-.154-.742-.462-1.079-.674-2.1-1.309-2.331-1.482-2.091-1.54.983-.221,2.765-.606,2.9-.616a4.9,4.9,0,0,1,1.06.568M24.7,91.966a48.868,48.868,0,0,0,6.262,5.005c.578.395,1.069.732,1.089.741s-.414.712-.954,1.55-1.108,1.733-1.262,1.973l-.279.433-2.023.337-2.023.327.058.433c.106.722.154.866.328.866.087,0,.655-.087,1.262-.192s1.166-.193,1.233-.193c.135,0,.087.1-.751,1.415l-.443.693-1.291-.866a55.383,55.383,0,0,1-5.78-4.457c-1.05-.914-3.69-3.436-3.632-3.475.01-.019,1.32-.212,2.909-.433s2.91-.433,2.919-.443c.039-.019-.636-.828-2.177-2.618a5.02,5.02,0,0,1-.665-.857c.048-.039,3.825-.5,4.152-.51.145,0,.164-.058.135-.289-.029-.164-.01-.279.029-.27s.443.385.906.828m9.326,6.921a57.324,57.324,0,0,0,6.513,3.061c.125.038.376.135.549.2l.318.135-.376.356-.385.366.886.991.877.991,1.146-.067a3.619,3.619,0,0,1,1.137.019c0,.048-.2.8-.433,1.675s-.568,2.118-.742,2.762a4.977,4.977,0,0,1-.395,1.184,8.245,8.245,0,0,1-.935-.578,6.244,6.244,0,0,0-.963-.578c-.058,0-.646.183-1.31.395-1.31.433-1.223.347-1.04,1.02.058.2-.029.173-1.31-.308a52.139,52.139,0,0,1-5.636-2.5,38.893,38.893,0,0,1-3.5-1.925c-.058-.048.164-.414.751-1.319.462-.693.568-.8.607-.626.067.337.674,2.522.7,2.551a9.444,9.444,0,0,0,1.272-.318c.01-.01-.222-.914-.52-2l-.53-1.983,1.262-1.983c1.416-2.195,1.214-2.05,2.052-1.521m9.634,4.12a9.641,9.641,0,0,1,1.32.443,3.054,3.054,0,0,1-.877.077,5.47,5.47,0,0,0-.944.058c-.1.058-.212-.038-.684-.568-.241-.25-.366-.452-.279-.433s.742.212,1.464.424m4.316,1.1a50.236,50.236,0,0,0,5.617.8l1.407.106v6.7l-.877-.616a9.5,9.5,0,0,0-.944-.626,5,5,0,0,0-.761,1.1c.01.019.27.193.559.395,1.31.914,2.852,2.012,2.938,2.1.193.183-4.085-.144-6.647-.52-1.079-.154-3.738-.655-4.933-.924-.125-.029-.222-.115-.222-.183s.145-.664.328-1.319.684-2.493,1.118-4.11c.906-3.4.838-3.176.934-3.176.039,0,.713.125,1.484.279m-5.857,7.479c.588.4.992.7.886.674-.424-.106-1.686-.472-2.457-.7l-.819-.25.626-.221c.347-.116.636-.221.655-.221s.511.318,1.108.722" transform="translate(0 -0.005)" fill="#987f5b"/>
  </g>
</svg>
