<svg xmlns="http://www.w3.org/2000/svg" width="274.921" height="10.526" viewBox="0 0 274.921 10.526">
  <g id="Group_245" data-name="Group 245" transform="translate(-823 -3413.652)">
    <path id="Path_16" data-name="Path 16" d="M46.432,3.348c-5.687,0-8.2-3.175-8.23-3.249a.139.139,0,0,0-.094-.091.155.155,0,0,0-.13.015C32.082,3.845,22.7,5.3,22.3,5.359a.152.152,0,0,0,.024.3H133.711q-2.3-1.135-4.478-2.315Z" transform="translate(1084.182 3424.176) rotate(180)" fill="#fff" fill-rule="evenodd"/>
    <path id="Path_17" data-name="Path 17" d="M190.112,5.358c-.4-.06-9.781-1.513-15.677-5.335A.153.153,0,0,0,174.3.007a.156.156,0,0,0-.1.091c-.028.075-2.54,3.249-8.226,3.249h-82.8Q81.006,4.525,78.7,5.663H190.089a.155.155,0,0,0,.152-.143.151.151,0,0,0-.13-.162" transform="translate(1049.151 3424.176) rotate(180)" fill="#fff" fill-rule="evenodd"/>
    <path id="Path_18" data-name="Path 18" d="M0,5.348,1.751,7.211H273.17l1.751-1.863Z" transform="translate(1097.921 3420.862) rotate(180)" fill="#fff" fill-rule="evenodd"/>
  </g>
</svg>
